<svg xmlns="http://www.w3.org/2000/svg" width="50" height="62" viewBox="0 0 50 62">
  <g id="Logo" transform="translate(-150.8 1274)">
    <path id="Caminho_183" data-name="Caminho 183" d="M158.313-1273.819c-.207.319-2.286,3.645-4.125,6.6-1.559,2.5-3.108,4.977-3.319,5.3l-.069.113h42.423l1.913-3.076c1.052-1.69,2.483-3.978,3.171-5.079.993-1.582,2.34-3.752,2.493-4.007.01-.02-9.519-.034-21.172-.034h-21.2Z" transform="translate(0)" fill="#323741"/>
    <path id="Caminho_184" data-name="Caminho 184" d="M152-911c0,.015.413.392.92.847s1.564,1.411,2.35,2.126,1.991,1.8,2.68,2.425,1.264,1.136,1.278,1.151c.029.039,2.36,2.141,4.327,3.919.851.764,1.922,1.734,2.385,2.155s.919.838,1.023.935l.192.172L167-896.14c-.182,1.357-.757,5.672-1.868,14.1-.934,7.039-1.411,10.664-1.775,13.392-.133,1.009-.236,1.842-.231,1.852a4.063,4.063,0,0,0,.329-.49c.713-1.142,4.42-7.068,6.072-9.709.978-1.563,2.439-3.9,3.245-5.192s1.957-3.135,2.557-4.09,1.745-2.787,2.542-4.066,2.267-3.629,3.26-5.217,2.695-4.311,3.781-6.05c3.363-5.369,3.988-6.383,3.973-6.427,0-.02.01-.039.039-.039a.758.758,0,0,0,.207-.328c0-.024.039-.064.084-.1s.059-.064.039-.064,0-.049.059-.108.088-.122.074-.147.01-.054.049-.068.064-.049.049-.074a.027.027,0,0,1,.025-.044c.03,0,.054-.034.054-.073a.33.33,0,0,1,.1-.172c.054-.054.1-.112.094-.127a5.922,5.922,0,0,1,.329-.563c.615-.975.62-.985.556-1.029S152-911.031,152-911Z" transform="translate(-1.141 -345.207)" fill="#ccc"/>
  </g>
</svg>
