<svg xmlns="http://www.w3.org/2000/svg" width="24" height="24" viewBox="0 0 24 24">
  <g id="vuesax_outline_3dcube" data-name="vuesax/outline/3dcube" transform="translate(-300 -508)">
    <g id="_3dcube" data-name="3dcube">
      <path id="Vector" d="M8.75,10.962a2.759,2.759,0,0,1-1.28-.32L.96,7.133a1.9,1.9,0,0,1,0-3.3L7.47.322a2.682,2.682,0,0,1,2.55,0l6.51,3.51a1.9,1.9,0,0,1,0,3.3l-6.51,3.51A2.577,2.577,0,0,1,8.75,10.962Zm0-9.47a1.185,1.185,0,0,0-.57.15l-6.5,3.5a.374.374,0,0,0-.18.34.352.352,0,0,0,.18.33l6.51,3.51a1.191,1.191,0,0,0,1.13,0l6.51-3.51a.394.394,0,0,0,.18-.33.352.352,0,0,0-.18-.33L9.32,1.643A1.185,1.185,0,0,0,8.75,1.492Z" transform="translate(303.25 509.288)" fill="#292d32"/>
      <path id="Vector-2" data-name="Vector" d="M8.53,13.458a1.878,1.878,0,0,1-.83-.2l-6.06-3.02A2.969,2.969,0,0,1,0,7.578V1.858A1.857,1.857,0,0,1,2.69.2l6.06,3.02a2.958,2.958,0,0,1,1.64,2.66V11.6a1.845,1.845,0,0,1-.88,1.58A1.824,1.824,0,0,1,8.53,13.458ZM1.86,1.5a.434.434,0,0,0-.19.05.358.358,0,0,0-.17.31v5.72A1.469,1.469,0,0,0,2.31,8.9l6.05,3.03a.37.37,0,0,0,.35-.01.358.358,0,0,0,.17-.31V5.888a1.469,1.469,0,0,0-.81-1.32L2.02,1.538A.343.343,0,0,0,1.86,1.5Z" transform="translate(301.25 517.262)" fill="#292d32"/>
      <path id="Vector-3" data-name="Vector" d="M1.86,13.468a1.824,1.824,0,0,1-.98-.28A1.845,1.845,0,0,1,0,11.608V5.888a2.969,2.969,0,0,1,1.64-2.66L7.69.2a1.857,1.857,0,0,1,2.69,1.66v5.72a2.969,2.969,0,0,1-1.64,2.66l-6.05,3.03A1.752,1.752,0,0,1,1.86,13.468ZM8.53,1.508a.343.343,0,0,0-.16.04L2.32,4.578A1.458,1.458,0,0,0,1.51,5.9v5.72a.358.358,0,0,0,.17.31.343.343,0,0,0,.35.01l6.05-3.03a1.469,1.469,0,0,0,.81-1.32V1.868a.358.358,0,0,0-.17-.31A.434.434,0,0,0,8.53,1.508Z" transform="translate(312.36 517.252)" fill="#292d32"/>
      <path id="Vector-4" data-name="Vector" d="M0,0H24V24H0Z" transform="translate(300 508)" fill="none" opacity="0"/>
    </g>
  </g>
</svg>
