<svg xmlns="http://www.w3.org/2000/svg" width="24" height="24" viewBox="0 0 24 24">
  <g id="vuesax_outline_alarm" data-name="vuesax/outline/alarm" transform="translate(-236 -316)">
    <g id="alarm">
      <path id="Vector" d="M20.75,1.5H.75A.755.755,0,0,1,0,.75.755.755,0,0,1,.75,0h20a.755.755,0,0,1,.75.75A.755.755,0,0,1,20.75,1.5Z" transform="translate(237.25 337.25)" fill="#292d32"/>
      <path id="Vector-2" data-name="Vector" d="M18.75,17.5H.75A.755.755,0,0,1,0,16.75v-7a9.75,9.75,0,0,1,19.5,0v7A.755.755,0,0,1,18.75,17.5ZM1.5,16H18V9.75a8.25,8.25,0,0,0-16.5,0Z" transform="translate(238.25 321.25)" fill="#292d32"/>
      <path id="Vector-3" data-name="Vector" d="M.75,2.5A.755.755,0,0,1,0,1.75v-1A.755.755,0,0,1,.75,0,.755.755,0,0,1,1.5.75v1A.755.755,0,0,1,.75,2.5Z" transform="translate(247.25 317.25)" fill="#292d32"/>
      <path id="Vector-4" data-name="Vector" d="M1.747,2.5a.742.742,0,0,1-.53-.22l-1-1A.75.75,0,0,1,1.277.218l1,1a.754.754,0,0,1,0,1.06A.742.742,0,0,1,1.747,2.5Z" transform="translate(239.252 319.253)" fill="#292d32"/>
      <path id="Vector-5" data-name="Vector" d="M.747,2.5a.742.742,0,0,1-.53-.22.754.754,0,0,1,0-1.06l1-1a.75.75,0,0,1,1.06,1.06l-1,1A.742.742,0,0,1,.747,2.5Z" transform="translate(254.252 319.253)" fill="#292d32"/>
      <path id="Vector-6" data-name="Vector" d="M0,0H24V24H0Z" transform="translate(236 316)" fill="none" opacity="0"/>
    </g>
  </g>
</svg>
