<svg xmlns="http://www.w3.org/2000/svg" width="24" height="24" viewBox="0 0 24 24">
  <g id="vuesax_outline_archive" data-name="vuesax/outline/archive" transform="translate(-492 -444)">
    <g id="archive">
      <path id="Vector" d="M13.75,21.5h-6C2.32,21.5,0,19.18,0,13.75v-6C0,2.32,2.32,0,7.75,0h6c5.43,0,7.75,2.32,7.75,7.75v6C21.5,19.18,19.18,21.5,13.75,21.5Zm-6-20C3.14,1.5,1.5,3.14,1.5,7.75v6C1.5,18.36,3.14,20,7.75,20h6C18.36,20,20,18.36,20,13.75v-6c0-4.61-1.64-6.25-6.25-6.25Z" transform="translate(493.25 445.25)" fill="#292d32"/>
      <path id="Vector-2" data-name="Vector" d="M12.75,10.25A.755.755,0,0,1,12,9.5a1.25,1.25,0,0,0-1.25-1.25h-8A1.25,1.25,0,0,0,1.5,9.5a.755.755,0,0,1-.75.75A.755.755,0,0,1,0,9.5V2.75A2.748,2.748,0,0,1,2.75,0h8A2.748,2.748,0,0,1,13.5,2.75V9.5A.755.755,0,0,1,12.75,10.25Zm-10-3.5h8a2.745,2.745,0,0,1,1.25.3V2.75A1.25,1.25,0,0,0,10.75,1.5h-8A1.25,1.25,0,0,0,1.5,2.75v4.3A2.745,2.745,0,0,1,2.75,6.75Z" transform="translate(497.25 449)" fill="#292d32"/>
      <path id="Vector-3" data-name="Vector" d="M1.75,1.5h-1A.755.755,0,0,1,0,.75.755.755,0,0,1,.75,0h1A.755.755,0,0,1,2.5.75.755.755,0,0,1,1.75,1.5Z" transform="translate(509.25 459)" fill="#292d32"/>
      <path id="Vector-4" data-name="Vector" d="M1.75,1.5h-1A.755.755,0,0,1,0,.75.755.755,0,0,1,.75,0h1A.755.755,0,0,1,2.5.75.755.755,0,0,1,1.75,1.5Z" transform="translate(496.25 459)" fill="#292d32"/>
      <path id="Vector-5" data-name="Vector" d="M12.75,6.5A.755.755,0,0,1,12,5.75v-3A1.25,1.25,0,0,0,10.75,1.5h-8A1.25,1.25,0,0,0,1.5,2.75v3a.755.755,0,0,1-.75.75A.755.755,0,0,1,0,5.75v-3A2.748,2.748,0,0,1,2.75,0h8A2.748,2.748,0,0,1,13.5,2.75v3A.755.755,0,0,1,12.75,6.5Z" transform="translate(497.25 452.25)" fill="#292d32"/>
      <path id="Vector-6" data-name="Vector" d="M6.75,7.25a3.258,3.258,0,0,1-3.16-2.5H.75A.755.755,0,0,1,0,4V2.75A2.748,2.748,0,0,1,2.75,0h8A2.748,2.748,0,0,1,13.5,2.75V4a.755.755,0,0,1-.75.75H9.91A3.258,3.258,0,0,1,6.75,7.25Zm-5.25-4H4.25A.755.755,0,0,1,5,4,1.75,1.75,0,0,0,8.5,4a.755.755,0,0,1,.75-.75H12v-.5A1.25,1.25,0,0,0,10.75,1.5h-8A1.25,1.25,0,0,0,1.5,2.75Z" transform="translate(497.25 455.75)" fill="#292d32"/>
      <path id="Vector-7" data-name="Vector" d="M0,0H24V24H0Z" transform="translate(492 444)" fill="none" opacity="0"/>
    </g>
  </g>
</svg>
