<svg xmlns="http://www.w3.org/2000/svg" width="24" height="24" viewBox="0 0 24 24">
  <g id="vuesax_outline_battery-charging" data-name="vuesax/outline/battery-charging" transform="translate(-428 -188)">
    <g id="battery-charging">
      <path id="Vector" d="M.75,6.5A.75.75,0,0,1,.75,5a1.693,1.693,0,0,0,.73-.09,5.389,5.389,0,0,0,.02-.66v-2a3.051,3.051,0,0,0-.04-.68A2.7,2.7,0,0,0,.75,1.5.755.755,0,0,1,0,.75.755.755,0,0,1,.75,0C2.83,0,3,1.02,3,2.25v2C3,5.48,2.83,6.5.75,6.5Z" transform="translate(447.75 196.75)" fill="#292d32"/>
      <path id="Vector-2" data-name="Vector" d="M2.79,9.5a.75.75,0,0,1-.57-1.24L4.3,5.83a.276.276,0,0,0-.02-.21.238.238,0,0,0-.22-.12H1.76A1.759,1.759,0,0,1,.24,4.63a1.715,1.715,0,0,1,0-1.75L2.19.3a.75.75,0,0,1,1.2.9L1.5,3.7a.451.451,0,0,0,.05.17.238.238,0,0,0,.22.12h2.3a1.759,1.759,0,0,1,1.52.87,1.715,1.715,0,0,1,0,1.75.444.444,0,0,1-.08.11L3.37,9.22A.752.752,0,0,1,2.79,9.5Z" transform="translate(435.21 195.25)" fill="#292d32"/>
      <path id="Vector-3" data-name="Vector" d="M5.75,15.5C1.34,15.5,0,14.16,0,9.75v-4C0,1.34,1.34,0,5.75,0A.755.755,0,0,1,6.5.75a.755.755,0,0,1-.75.75c-3.57,0-4.25.68-4.25,4.25v4c0,3.57.68,4.25,4.25,4.25a.75.75,0,0,1,0,1.5Z" transform="translate(429.25 192.25)" fill="#292d32"/>
      <path id="Vector-4" data-name="Vector" d="M.75,15.5a.75.75,0,0,1,0-1.5C4.32,14,5,13.32,5,9.75v-4C5,2.18,4.32,1.5.75,1.5A.755.755,0,0,1,0,.75.755.755,0,0,1,.75,0C5.16,0,6.5,1.34,6.5,5.75v4C6.5,14.16,5.16,15.5.75,15.5Z" transform="translate(440.25 192.25)" fill="#292d32"/>
      <path id="Vector-5" data-name="Vector" d="M0,0H24V24H0Z" transform="translate(428 188)" fill="none" opacity="0"/>
    </g>
  </g>
</svg>
