<svg xmlns="http://www.w3.org/2000/svg" width="24" height="24" viewBox="0 0 24 24">
  <g id="vuesax_outline_box-2" data-name="vuesax/outline/box-2" transform="translate(-300 -572)">
    <g id="box-2">
      <path id="Vector" d="M9.64,21.512a.881.881,0,0,1-.17-.02.67.67,0,0,1-.18-.07l-2.21-1.1a.754.754,0,1,1,.67-1.35l1.14.57v-1.56a.75.75,0,1,1,1.5,0v1.56l1.14-.57a.763.763,0,0,1,1.01.34.745.745,0,0,1-.34,1.01l-2.21,1.1a1.335,1.335,0,0,1-.18.07A.985.985,0,0,1,9.64,21.512Zm6.67-3.33a.748.748,0,0,1-.33-1.42l1.81-.9v-2.31a.75.75,0,0,1,1.5,0v2.78a.76.76,0,0,1-.41.67l-2.22,1.11A1.206,1.206,0,0,1,16.31,18.182Zm-13.34,0a.764.764,0,0,1-.33-.08L.42,16.992a.76.76,0,0,1-.41-.67v-2.78a.755.755,0,0,1,.75-.75.755.755,0,0,1,.75.75v2.31l1.81.9a.763.763,0,0,1,.34,1.01A.8.8,0,0,1,2.97,18.182Zm6.67-5a.755.755,0,0,1-.75-.75v-2.31l-1.81-.9a.754.754,0,1,1,.67-1.35l1.89.94,1.89-.94a.754.754,0,0,1,1.01.34.743.743,0,0,1-.34,1.01l-1.81.9v2.31A.755.755,0,0,1,9.64,13.182Zm8.89-4.45a.755.755,0,0,1-.75-.75V6.422l-1.14.57a.754.754,0,1,1-.67-1.35l.88-.44-.88-.44a.754.754,0,0,1,.67-1.35l2.21,1.1a.251.251,0,0,1,.07.04.653.653,0,0,1,.16.13l.09.12a.849.849,0,0,1,.09.22,1.113,1.113,0,0,1,.02.17v2.77A.754.754,0,0,1,18.53,8.732Zm-17.78,0A.755.755,0,0,1,0,7.982V5.212a.881.881,0,0,1,.02-.17.849.849,0,0,1,.09-.22.642.642,0,0,1,.1-.13.755.755,0,0,1,.14-.11c.02-.01.05-.03.07-.04l2.21-1.1a.754.754,0,0,1,1.01.34.743.743,0,0,1-.34,1.01l-.88.44.88.44a.754.754,0,1,1-.67,1.35l-1.14-.57v1.56A.722.722,0,0,1,.75,8.732Zm11.11-6.11a.764.764,0,0,1-.33-.08L9.64,1.6l-1.89.94a.754.754,0,1,1-.67-1.35L9.3.082a.721.721,0,0,1,.67,0l2.22,1.11a.763.763,0,0,1,.34,1.01A.733.733,0,0,1,11.86,2.622Z" transform="translate(302.36 573.237)" fill="#292d32"/>
      <path id="Vector-2" data-name="Vector" d="M0,0H24V24H0Z" transform="translate(300 572)" fill="none" opacity="0"/>
    </g>
  </g>
</svg>
