<svg xmlns="http://www.w3.org/2000/svg" width="24" height="24" viewBox="0 0 24 24">
  <g id="vuesax_outline_broom" data-name="vuesax/outline/broom" transform="translate(-236 -700)">
    <g id="broom">
      <path id="Vector" d="M2.6,7.1a1.1,1.1,0,0,1-.18-.02.755.755,0,0,1-.46-.34L.4,4.182A2.7,2.7,0,0,1,.082,2.1,2.741,2.741,0,0,1,3.4.082a2.687,2.687,0,0,1,1.7,1.24l1.56,2.56a.75.75,0,0,1-.25,1.03l-3.42,2.08A.765.765,0,0,1,2.6,7.1Zm.14-5.6a1.19,1.19,0,0,0-.64.18,1.256,1.256,0,0,0-.56.77,1.23,1.23,0,0,0,.14.94l1.17,1.92,2.14-1.3-1.17-1.92a1.256,1.256,0,0,0-.77-.56A1.709,1.709,0,0,0,2.742,1.5Z" transform="translate(239.848 701.398)" fill="#292d32"/>
      <path id="Vector-2" data-name="Vector" d="M5.433,14.793a3,3,0,0,1-.89-.13,3.2,3.2,0,0,1-2-1.71L.493,8.773a4.729,4.729,0,0,1,1.79-6.15L5.443.7a4.724,4.724,0,0,1,6.29,1.23l2.77,3.74a3.251,3.251,0,0,1,.6,2.56,3.208,3.208,0,0,1-1.52,2.15l-6.43,3.91A3.294,3.294,0,0,1,5.433,14.793ZM7.913,1.5a3.321,3.321,0,0,0-1.7.48L3.053,3.9a3.238,3.238,0,0,0-1.23,4.21l2.05,4.18a1.771,1.771,0,0,0,1.08.93,1.735,1.735,0,0,0,1.4-.2l6.43-3.91a1.775,1.775,0,0,0,.83-1.16,1.732,1.732,0,0,0-.33-1.38l-2.77-3.74A3.191,3.191,0,0,0,7.913,1.5Z" transform="translate(241.987 707.817)" fill="#292d32"/>
      <path id="Vector-3" data-name="Vector" d="M2.831,8.036a1.1,1.1,0,0,1-.18-.02.755.755,0,0,1-.46-.34L.111,4.256a.75.75,0,0,1,.25-1.03L5.481.106a.757.757,0,0,1,1.03.25l2.08,3.42a.744.744,0,0,1-.25,1.03l-5.12,3.12A.7.7,0,0,1,2.831,8.036Zm-1.05-3.91,1.3,2.14,3.84-2.34-1.3-2.14Z" transform="translate(240.849 704.394)" fill="#292d32"/>
      <path id="Vector-4" data-name="Vector" d="M2.4,4.206a.754.754,0,0,1-.64-.36L.111,1.136A.75.75,0,0,1,.361.106a.757.757,0,0,1,1.03.25l1.65,2.71a.75.75,0,0,1-.25,1.03A.794.794,0,0,1,2.4,4.206Z" transform="translate(249.559 716.064)" fill="#292d32"/>
      <path id="Vector-5" data-name="Vector" d="M2.4,4.206a.754.754,0,0,1-.64-.36L.111,1.136A.75.75,0,0,1,.361.106a.757.757,0,0,1,1.03.25l1.65,2.71a.75.75,0,0,1-.25,1.03A.794.794,0,0,1,2.4,4.206Z" transform="translate(246.999 717.624)" fill="#292d32"/>
      <path id="Vector-6" data-name="Vector" d="M2.4,4.206a.754.754,0,0,1-.64-.36L.111,1.136A.75.75,0,0,1,.361.106a.757.757,0,0,1,1.03.25l1.65,2.71a.75.75,0,0,1-.25,1.03A.766.766,0,0,1,2.4,4.206Z" transform="translate(252.119 714.504)" fill="#292d32"/>
      <path id="Vector-7" data-name="Vector" d="M0,0H24V24H0Z" transform="translate(236 700)" fill="none" opacity="0"/>
    </g>
  </g>
</svg>
