<svg xmlns="http://www.w3.org/2000/svg" width="24" height="24" viewBox="0 0 24 24">
  <g id="vuesax_outline_bubble" data-name="vuesax/outline/bubble" transform="translate(-172 -636)">
    <g id="bubble">
      <path id="Vector" d="M5.88,11.76a5.88,5.88,0,1,1,5.88-5.88A5.89,5.89,0,0,1,5.88,11.76Zm0-10.26a4.38,4.38,0,1,0,4.38,4.38A4.385,4.385,0,0,0,5.88,1.5Z" transform="translate(181.71 637.25)" fill="#292d32"/>
      <path id="Vector-2" data-name="Vector" d="M3.83,7.66A3.83,3.83,0,1,1,7.66,3.83,3.837,3.837,0,0,1,3.83,7.66Zm0-6.16A2.33,2.33,0,1,0,6.16,3.83,2.332,2.332,0,0,0,3.83,1.5Z" transform="translate(174.53 648.53)" fill="#292d32"/>
      <path id="Vector-3" data-name="Vector" d="M3.31,6.62A3.31,3.31,0,1,1,6.62,3.31,3.314,3.314,0,0,1,3.31,6.62Zm0-5.13A1.81,1.81,0,1,0,5.12,3.3,1.81,1.81,0,0,0,3.31,1.49Z" transform="translate(185.31 652.13)" fill="#292d32"/>
      <path id="Vector-4" data-name="Vector" d="M0,0H24V24H0Z" transform="translate(172 636)" fill="none" opacity="0"/>
      <path id="Vector-5" data-name="Vector" d="M0,0H24V24H0Z" transform="translate(172 636)" fill="none" opacity="0"/>
    </g>
  </g>
</svg>
