<svg xmlns="http://www.w3.org/2000/svg" width="24" height="24" viewBox="0 0 24 24">
  <g id="vuesax_outline_cake" data-name="vuesax/outline/cake" transform="translate(-684 -316)">
    <g id="cake">
      <path id="Vector" d="M20.75,1.5H.75A.755.755,0,0,1,0,.75.755.755,0,0,1,.75,0h20a.755.755,0,0,1,.75.75A.755.755,0,0,1,20.75,1.5Z" transform="translate(685.25 337.25)" fill="#292d32"/>
      <path id="Vector-2" data-name="Vector" d="M18.53,13.5a.755.755,0,0,1-.75-.75v-9A2.437,2.437,0,0,0,15.2,1.5H4.08A2.437,2.437,0,0,0,1.5,3.75v9a.755.755,0,0,1-.75.75A.755.755,0,0,1,0,12.75v-9A3.928,3.928,0,0,1,4.08,0H15.19a3.928,3.928,0,0,1,4.08,3.75v9A.741.741,0,0,1,18.53,13.5Z" transform="translate(686.36 325.25)" fill="#292d32"/>
      <path id="Vector-3" data-name="Vector" d="M13.63,6.5a.755.755,0,0,1-.75-.75V2.92A1.561,1.561,0,0,0,11.22,1.5H3.17A1.555,1.555,0,0,0,1.51,2.92V5.75a.755.755,0,0,1-.75.75A.764.764,0,0,1,0,5.75V2.92A3.052,3.052,0,0,1,3.16,0h8.05a3.052,3.052,0,0,1,3.16,2.92V5.75A.741.741,0,0,1,13.63,6.5Z" transform="translate(688.81 320.25)" fill="#292d32"/>
      <path id="Vector-4" data-name="Vector" d="M14.6,4.53a2.1,2.1,0,0,1-2.1-2.1V2.12a.6.6,0,1,0-1.2,0v.31a2.1,2.1,0,1,1-4.2,0V2.12a.6.6,0,1,0-1.2,0v.31a2.1,2.1,0,1,1-4.2,0V2.1a.606.606,0,0,0-.59-.6H.74A.755.755,0,0,1,0,.74.753.753,0,0,1,.75,0h.38A2.113,2.113,0,0,1,3.2,2.1v.33a.6.6,0,1,0,1.2,0V2.12a2.1,2.1,0,1,1,4.2,0v.31a.6.6,0,1,0,1.2,0V2.12a2.1,2.1,0,1,1,4.2,0v.31a.6.6,0,1,0,1.2,0V2.12A2.1,2.1,0,0,1,17.3.02h.45a.755.755,0,0,1,.75.75.755.755,0,0,1-.75.75H17.3a.6.6,0,0,0-.6.6v.31A2.1,2.1,0,0,1,14.6,4.53Z" transform="translate(686.73 329.22)" fill="#292d32"/>
      <path id="Vector-5" data-name="Vector" d="M.75,3.5A.755.755,0,0,1,0,2.75v-2A.755.755,0,0,1,.75,0,.755.755,0,0,1,1.5.75v2A.755.755,0,0,1,.75,3.5Z" transform="translate(691.25 318.25)" fill="#292d32"/>
      <path id="Vector-6" data-name="Vector" d="M.75,3.5A.755.755,0,0,1,0,2.75v-2A.755.755,0,0,1,.75,0,.755.755,0,0,1,1.5.75v2A.755.755,0,0,1,.75,3.5Z" transform="translate(699.25 318.25)" fill="#292d32"/>
      <path id="Vector-7" data-name="Vector" d="M.75,4.5A.755.755,0,0,1,0,3.75v-3A.755.755,0,0,1,.75,0,.755.755,0,0,1,1.5.75v3A.755.755,0,0,1,.75,4.5Z" transform="translate(695.25 317.25)" fill="#292d32"/>
      <path id="Vector-8" data-name="Vector" d="M0,0H24V24H0Z" transform="translate(684 316)" fill="none" opacity="0"/>
    </g>
  </g>
</svg>
