<svg xmlns="http://www.w3.org/2000/svg" width="24" height="24" viewBox="0 0 24 24">
  <g id="vuesax_outline_cards" data-name="vuesax/outline/cards" transform="translate(-236 -380)">
    <g id="cards">
      <path id="Vector" d="M17.75,1.5H.75A.755.755,0,0,1,0,.75.755.755,0,0,1,.75,0h17a.755.755,0,0,1,.75.75A.755.755,0,0,1,17.75,1.5Z" transform="translate(237.25 391.86)" fill="#292d32"/>
      <path id="Vector-2" data-name="Vector" d="M13.97,15.95H4.53C1.1,15.95,0,14.86,0,11.47V4.48C0,1.79.61.2,3.71.02,3.97.01,4.24,0,4.53,0h9.44C17.4,0,18.5,1.09,18.5,4.48v7.15C18.46,14.9,17.36,15.95,13.97,15.95ZM4.53,1.5c-.27,0-.52.01-.75.02-1.79.11-2.28.49-2.28,2.96v6.99c0,2.56.42,2.98,3.03,2.98h9.44c2.58,0,3-.4,3.03-2.83V4.48c0-2.56-.42-2.98-3.03-2.98Z" transform="translate(237.25 385.8)" fill="#292d32"/>
      <path id="Vector-3" data-name="Vector" d="M14.75,15.93a.727.727,0,0,1-.51-.2.756.756,0,0,1-.24-.55V8.03c0-2.56-.42-2.98-3.03-2.98H1.53c-.27,0-.52.01-.75.02a.761.761,0,0,1-.55-.21A.747.747,0,0,1,0,4.31C.04,1.05,1.14,0,4.53,0h9.44C17.4,0,18.5,1.09,18.5,4.48v6.99c0,2.69-.61,4.28-3.71,4.46ZM1.53,3.55h9.44c3.43,0,4.53,1.09,4.53,4.48v6.32c1.16-.21,1.5-.81,1.5-2.88V4.48c0-2.56-.42-2.98-3.03-2.98H4.53C2.25,1.5,1.66,1.81,1.53,3.55Z" transform="translate(240.25 382.25)" fill="#292d32"/>
      <path id="Vector-4" data-name="Vector" d="M2.47,1.5H.75A.755.755,0,0,1,0,.75.755.755,0,0,1,.75,0H2.47a.75.75,0,0,1,0,1.5Z" transform="translate(240.49 397.06)" fill="#292d32"/>
      <path id="Vector-5" data-name="Vector" d="M4.19,1.5H.75A.755.755,0,0,1,0,.75.755.755,0,0,1,.75,0H4.19a.75.75,0,0,1,0,1.5Z" transform="translate(244.36 397.06)" fill="#292d32"/>
      <path id="Vector-6" data-name="Vector" d="M0,0H24V24H0Z" transform="translate(236 380)" fill="none" opacity="0"/>
    </g>
  </g>
</svg>
