<svg xmlns="http://www.w3.org/2000/svg" width="24" height="24" viewBox="0 0 24 24">
  <g id="vuesax_outline_card-pos" data-name="vuesax/outline/card-pos" transform="translate(-428 -508)">
    <g id="card-pos">
      <path id="Vector" d="M.747,13.447a.742.742,0,0,1-.53-.22.754.754,0,0,1,0-1.06L12.168.218a.75.75,0,0,1,1.06,1.06L1.277,13.238A.757.757,0,0,1,.747,13.447Z" transform="translate(431.182 511.182)" fill="#292d32"/>
      <path id="Vector-2" data-name="Vector" d="M.748,2.7a.742.742,0,0,1-.53-.22.754.754,0,0,1,0-1.06l1.2-1.2a.75.75,0,0,1,1.06,1.06l-1.2,1.2A.749.749,0,0,1,.748,2.7Z" transform="translate(438.353 524.333)" fill="#292d32"/>
      <path id="Vector-3" data-name="Vector" d="M.747,3.888a.742.742,0,0,1-.53-.22.754.754,0,0,1,0-1.06L2.607.218a.75.75,0,1,1,1.06,1.06l-2.39,2.39A.767.767,0,0,1,.747,3.888Z" transform="translate(441.043 520.453)" fill="#292d32"/>
      <path id="Vector-4" data-name="Vector" d="M9.845,21.5c-.98,0-1.96-.6-3.15-1.79L1.785,14.8c-2.39-2.39-2.38-3.93.03-6.34l6.64-6.64c2.41-2.41,3.95-2.42,6.34-.03l4.91,4.91c2.39,2.39,2.38,3.93-.03,6.34l-6.64,6.64C11.825,20.885,10.835,21.5,9.845,21.5Zm1.8-20c-.52,0-1.18.43-2.13,1.38l-6.64,6.64c-.95.95-1.38,1.61-1.38,2.12s.4,1.15,1.35,2.1l4.91,4.91c.95.95,1.57,1.35,2.09,1.35h.01c.52,0,1.17-.43,2.12-1.38l6.64-6.64c.95-.95,1.38-1.61,1.38-2.12s-.4-1.15-1.35-2.1l-4.91-4.91C12.8,1.9,12.165,1.5,11.645,1.5Z" transform="translate(429.255 509.255)" fill="#292d32"/>
      <path id="Vector-5" data-name="Vector" d="M20.75,1.5H.75A.755.755,0,0,1,0,.75.755.755,0,0,1,.75,0h20a.755.755,0,0,1,.75.75A.755.755,0,0,1,20.75,1.5Z" transform="translate(429.25 529.25)" fill="#292d32"/>
      <path id="Vector-6" data-name="Vector" d="M0,0H24V24H0Z" transform="translate(428 508)" fill="none" opacity="0"/>
    </g>
  </g>
</svg>
