<svg xmlns="http://www.w3.org/2000/svg" width="24" height="24" viewBox="0 0 24 24">
  <g id="vuesax_outline_card-edit" data-name="vuesax/outline/card-edit" transform="translate(-684 -508)">
    <g id="card-edit">
      <path id="Vector" d="M10.25,1.5H.75A.755.755,0,0,1,0,.75.755.755,0,0,1,.75,0h9.5A.755.755,0,0,1,11,.75.755.755,0,0,1,10.25,1.5Z" transform="translate(685.25 515.75)" fill="#292d32"/>
      <path id="Vector-2" data-name="Vector" d="M2.75,1.5h-2A.755.755,0,0,1,0,.75.755.755,0,0,1,.75,0h2A.755.755,0,0,1,3.5.75.755.755,0,0,1,2.75,1.5Z" transform="translate(689.25 523.75)" fill="#292d32"/>
      <path id="Vector-3" data-name="Vector" d="M4.75,1.5h-4A.755.755,0,0,1,0,.75.755.755,0,0,1,.75,0h4A.755.755,0,0,1,5.5.75.755.755,0,0,1,4.75,1.5Z" transform="translate(693.75 523.75)" fill="#292d32"/>
      <path id="Vector-4" data-name="Vector" d="M16.31,18.5H5.19C1.21,18.5,0,17.3,0,13.36V5.14C0,1.2,1.21,0,5.19,0h8.06A.755.755,0,0,1,14,.75a.755.755,0,0,1-.75.75H5.19c-3.14,0-3.69.54-3.69,3.64v8.21c0,3.1.55,3.64,3.69,3.64H16.3c3.14,0,3.69-.54,3.69-3.64V9.27a.75.75,0,0,1,1.5,0v4.08C21.5,17.3,20.29,18.5,16.31,18.5Z" transform="translate(685.25 510.75)" fill="#292d32"/>
      <path id="Vector-5" data-name="Vector" d="M1.428,8.657a1.4,1.4,0,0,1-1.02-.41,1.459,1.459,0,0,1-.39-1.26l.2-1.42a2.019,2.019,0,0,1,.52-1.04L4.448.817a2.179,2.179,0,0,1,3.39,0,2.177,2.177,0,0,1,0,3.39l-3.71,3.71a2.019,2.019,0,0,1-1.04.52l-1.42.2A1.942,1.942,0,0,1,1.428,8.657ZM6.138,1.5c-.2,0-.38.14-.63.38l-3.7,3.71a.75.75,0,0,0-.1.2l-.2,1.35,1.36-.19a.75.75,0,0,0,.2-.1l3.71-3.71c.47-.47.54-.73,0-1.26C6.518,1.617,6.328,1.5,6.138,1.5Z" transform="translate(698.092 510.783)" fill="#292d32"/>
      <path id="Vector-6" data-name="Vector" d="M3.067,3.827a.645.645,0,0,1-.2-.03A4.121,4.121,0,0,1,.027.957a.76.76,0,0,1,.52-.93.76.76,0,0,1,.93.52,2.655,2.655,0,0,0,1.81,1.81.749.749,0,0,1,.52.92A.79.79,0,0,1,3.067,3.827Z" transform="translate(701.803 511.913)" fill="#292d32"/>
      <path id="Vector-7" data-name="Vector" d="M0,0H24V24H0Z" transform="translate(684 508)" fill="none" opacity="0"/>
    </g>
  </g>
</svg>
