<svg xmlns="http://www.w3.org/2000/svg" width="24" height="24" viewBox="0 0 24 24">
  <g id="vuesax_outline_card" data-name="vuesax/outline/card" transform="translate(-492 -508)">
    <g id="card">
      <path id="Vector" d="M20.75,1.5H.75A.755.755,0,0,1,0,.75.755.755,0,0,1,.75,0h20a.755.755,0,0,1,.75.75A.755.755,0,0,1,20.75,1.5Z" transform="translate(493.25 515.75)" fill="#292d32"/>
      <path id="Vector-2" data-name="Vector" d="M2.75,1.5h-2A.755.755,0,0,1,0,.75.755.755,0,0,1,.75,0h2A.755.755,0,0,1,3.5.75.755.755,0,0,1,2.75,1.5Z" transform="translate(497.25 523.75)" fill="#292d32"/>
      <path id="Vector-3" data-name="Vector" d="M4.75,1.5h-4A.755.755,0,0,1,0,.75.755.755,0,0,1,.75,0h4A.755.755,0,0,1,5.5.75.755.755,0,0,1,4.75,1.5Z" transform="translate(501.75 523.75)" fill="#292d32"/>
      <path id="Vector-4" data-name="Vector" d="M16.31,18.5H5.19C1.21,18.5,0,17.3,0,13.36V5.14C0,1.2,1.21,0,5.19,0H16.3c3.98,0,5.19,1.2,5.19,5.14v8.21C21.5,17.3,20.29,18.5,16.31,18.5ZM5.19,1.5c-3.14,0-3.69.54-3.69,3.64v8.21c0,3.1.55,3.64,3.69,3.64H16.3c3.14,0,3.69-.54,3.69-3.64V5.14c0-3.1-.55-3.64-3.69-3.64Z" transform="translate(493.25 510.75)" fill="#292d32"/>
      <path id="Vector-5" data-name="Vector" d="M0,0H24V24H0Z" transform="translate(492 508)" fill="none" opacity="0"/>
    </g>
  </g>
</svg>
