<svg xmlns="http://www.w3.org/2000/svg" width="24" height="24" viewBox="0 0 24 24">
  <g id="vuesax_outline_check" data-name="vuesax/outline/check" transform="translate(-108 -252)">
    <g id="check">
      <path id="Vector" d="M9.27,16.5H5.75a12.077,12.077,0,0,1-1.77-.1C.65,16.03,0,14.05,0,10.75v-5C0,2.45.66.46,4.01.09A13.109,13.109,0,0,1,5.75,0H9.21a.755.755,0,0,1,.75.75.755.755,0,0,1-.75.75H5.75a12.15,12.15,0,0,0-1.55.08c-2.03.22-2.7.86-2.7,4.17v5c0,3.31.67,3.94,2.67,4.17A11.262,11.262,0,0,0,5.75,15H9.27a.75.75,0,1,1,0,1.5Z" transform="translate(109.75 255.75)" fill="#292d32"/>
      <path id="Vector-2" data-name="Vector" d="M2.23,16.5H.75a.75.75,0,0,1,0-1.5H2.23a12.15,12.15,0,0,0,1.55-.08c2.03-.22,2.7-.86,2.7-4.17v-5c0-3.31-.67-3.94-2.67-4.17A11.262,11.262,0,0,0,2.23,1.5H.75A.755.755,0,0,1,0,.75.755.755,0,0,1,.75,0H2.23A12.077,12.077,0,0,1,4,.1C7.33.47,7.98,2.45,7.98,5.75v5c0,3.3-.66,5.29-4.01,5.66A13.109,13.109,0,0,1,2.23,16.5Z" transform="translate(122.27 255.75)" fill="#292d32"/>
      <path id="Vector-3" data-name="Vector" d="M.75,21.5A.755.755,0,0,1,0,20.75V.75A.755.755,0,0,1,.75,0,.755.755,0,0,1,1.5.75v20A.755.755,0,0,1,.75,21.5Z" transform="translate(122.25 253.25)" fill="#292d32"/>
      <path id="Vector-4" data-name="Vector" d="M.75,8.5A.755.755,0,0,1,0,7.75v-7A.755.755,0,0,1,.75,0,.755.755,0,0,1,1.5.75v7A.755.755,0,0,1,.75,8.5Z" transform="translate(115.25 259.75)" fill="#292d32"/>
      <path id="Vector-5" data-name="Vector" d="M0,0H24V24H0Z" transform="translate(108 252)" fill="none" opacity="0"/>
    </g>
  </g>
</svg>
