<svg xmlns="http://www.w3.org/2000/svg" width="24" height="24" viewBox="0 0 24 24">
  <g id="vuesax_outline_code" data-name="vuesax/outline/code" transform="translate(-556 -252)">
    <g id="code">
      <path id="Vector" d="M2.54,5.5a.764.764,0,0,1-.33-.08A5.017,5.017,0,0,1,.3,3.73a1.767,1.767,0,0,1,0-1.97A4.911,4.911,0,0,1,2.21.08.754.754,0,0,1,3.22.42a.745.745,0,0,1-.34,1.01A3.442,3.442,0,0,0,1.55,2.61a.289.289,0,0,0,0,.31A3.442,3.442,0,0,0,2.88,4.1a.763.763,0,0,1,.34,1.01A.8.8,0,0,1,2.54,5.5Z" transform="translate(562.46 264.25)" fill="#292d32"/>
      <path id="Vector-2" data-name="Vector" d="M.752,5.516A.748.748,0,0,1,.422,4.1a3.442,3.442,0,0,0,1.33-1.18.289.289,0,0,0,0-.31,3.442,3.442,0,0,0-1.33-1.18A.763.763,0,0,1,.082.416a.763.763,0,0,1,1.01-.34A5.017,5.017,0,0,1,3,1.766a1.767,1.767,0,0,1,0,1.97,4.911,4.911,0,0,1-1.91,1.68A.66.66,0,0,1,.752,5.516Z" transform="translate(570.458 264.234)" fill="#292d32"/>
      <path id="Vector-3" data-name="Vector" d="M13.75,21.5h-6C2.32,21.5,0,19.18,0,13.75v-6C0,2.32,2.32,0,7.75,0h6c5.43,0,7.75,2.32,7.75,7.75v6C21.5,19.18,19.18,21.5,13.75,21.5Zm-6-20C3.14,1.5,1.5,3.14,1.5,7.75v6C1.5,18.36,3.14,20,7.75,20h6C18.36,20,20,18.36,20,13.75v-6c0-4.61-1.64-6.25-6.25-6.25Z" transform="translate(557.25 253.25)" fill="#292d32"/>
      <path id="Vector-4" data-name="Vector" d="M.75,1.51a.75.75,0,0,1,0-1.5L19.97,0a.75.75,0,0,1,0,1.5Z" transform="translate(557.48 259.25)" fill="#292d32"/>
      <path id="Vector-5" data-name="Vector" d="M0,0H24V24H0Z" transform="translate(556 252)" fill="none" opacity="0"/>
    </g>
  </g>
</svg>
