<svg xmlns="http://www.w3.org/2000/svg" width="24" height="24" viewBox="0 0 24 24">
  <g id="vuesax_outline_code" data-name="vuesax/outline/code" transform="translate(-492 -252)">
    <g id="code">
      <path id="Vector" d="M.752,7.5a.748.748,0,0,1-.33-1.42,5.5,5.5,0,0,0,2.14-1.89.785.785,0,0,0,0-.88,5.647,5.647,0,0,0-2.14-1.89A.74.74,0,0,1,.082.412a.736.736,0,0,1,1-.33,7.077,7.077,0,0,1,2.72,2.4,2.3,2.3,0,0,1,0,2.54,7.077,7.077,0,0,1-2.72,2.4A.764.764,0,0,1,.752,7.5Z" transform="translate(498.138 260.248)" fill="#292d32"/>
      <path id="Vector-2" data-name="Vector" d="M4.75,1.5h-4A.755.755,0,0,1,0,.75.755.755,0,0,1,.75,0h4A.755.755,0,0,1,5.5.75.755.755,0,0,1,4.75,1.5Z" transform="translate(504.25 266.25)" fill="#292d32"/>
      <path id="Vector-3" data-name="Vector" d="M13.75,21.5h-6C2.32,21.5,0,19.18,0,13.75v-6C0,2.32,2.32,0,7.75,0h6c5.43,0,7.75,2.32,7.75,7.75v6C21.5,19.18,19.18,21.5,13.75,21.5Zm-6-20C3.14,1.5,1.5,3.14,1.5,7.75v6C1.5,18.36,3.14,20,7.75,20h6C18.36,20,20,18.36,20,13.75v-6c0-4.61-1.64-6.25-6.25-6.25Z" transform="translate(493.25 253.25)" fill="#292d32"/>
      <path id="Vector-4" data-name="Vector" d="M0,0H24V24H0Z" transform="translate(492 252)" fill="none" opacity="0"/>
    </g>
  </g>
</svg>
