<svg xmlns="http://www.w3.org/2000/svg" width="24" height="24" viewBox="0 0 24 24">
  <g id="vuesax_outline_coin" data-name="vuesax/outline/coin" transform="translate(-172 -316)">
    <g id="coin">
      <path id="Vector" d="M7.25,10.85c-4,0-7.25-2.87-7.25-6.4V.75A.755.755,0,0,1,.75,0,.755.755,0,0,1,1.5.75c0,2.62,2.47,4.6,5.75,4.6S13,3.37,13,.75a.75.75,0,0,1,1.5,0v3.7C14.5,7.98,11.25,10.85,7.25,10.85ZM1.5,4.56c.07,2.65,2.62,4.79,5.75,4.79S12.93,7.21,13,4.56A7.75,7.75,0,0,1,7.25,6.85,7.766,7.766,0,0,1,1.5,4.56Z" transform="translate(176.75 327.9)" fill="#292d32"/>
      <path id="Vector-2" data-name="Vector" d="M7.25,12.5A7.444,7.444,0,0,1,.8,9.26,5.481,5.481,0,0,1,0,6.4,6.045,6.045,0,0,1,2.16,1.84,7.7,7.7,0,0,1,7.25,0a7.763,7.763,0,0,1,5.09,1.83A6.081,6.081,0,0,1,14.5,6.4a5.507,5.507,0,0,1-.8,2.86A7.444,7.444,0,0,1,7.25,12.5Zm0-11A6.184,6.184,0,0,0,3.14,2.98,4.52,4.52,0,0,0,1.5,6.4a3.977,3.977,0,0,0,.58,2.08A5.954,5.954,0,0,0,7.25,11a5.978,5.978,0,0,0,5.17-2.52A3.887,3.887,0,0,0,13,6.4a4.569,4.569,0,0,0-1.65-3.44A6.245,6.245,0,0,0,7.25,1.5Z" transform="translate(176.75 317.25)" fill="#292d32"/>
      <path id="Vector-3" data-name="Vector" d="M7.25,17.5C3.12,17.5,0,14.88,0,11.4v-5C0,2.87,3.25,0,7.25,0a7.763,7.763,0,0,1,5.09,1.83A6.081,6.081,0,0,1,14.5,6.4v5C14.5,14.88,11.38,17.5,7.25,17.5Zm0-16C4.08,1.5,1.5,3.7,1.5,6.4v5c0,2.62,2.47,4.6,5.75,4.6S13,14.02,13,11.4v-5a4.569,4.569,0,0,0-1.65-3.44A6.245,6.245,0,0,0,7.25,1.5Z" transform="translate(176.75 317.25)" fill="#292d32"/>
      <path id="Vector-4" data-name="Vector" d="M0,0H24V24H0Z" transform="translate(172 316)" fill="none" opacity="0"/>
    </g>
  </g>
</svg>
