<svg xmlns="http://www.w3.org/2000/svg" width="24" height="24" viewBox="0 0 24 24">
  <g id="vuesax_outline_coin" data-name="vuesax/outline/coin" transform="translate(-684 -444)">
    <g id="coin">
      <path id="Vector" d="M3.59,7.09H2.09A2.113,2.113,0,0,1,.01,4.94a.755.755,0,0,1,.75-.75.755.755,0,0,1,.75.75.618.618,0,0,0,.58.65h1.5A.44.44,0,0,0,4,5.12c0-.35-.06-.37-.29-.45L1.3,3.83A1.785,1.785,0,0,1,0,1.97,1.949,1.949,0,0,1,1.91,0h1.5A2.113,2.113,0,0,1,5.49,2.15a.75.75,0,0,1-1.5,0,.618.618,0,0,0-.58-.65H1.91a.44.44,0,0,0-.41.47c0,.35.06.37.29.45l2.41.84A1.792,1.792,0,0,1,5.49,5.12,1.928,1.928,0,0,1,3.59,7.09Z" transform="translate(691.25 450.45)" fill="#292d32"/>
      <path id="Vector-2" data-name="Vector" d="M.75,2.24A.755.755,0,0,1,0,1.49V.75A.755.755,0,0,1,.75,0,.755.755,0,0,1,1.5.75v.74A.749.749,0,0,1,.75,2.24Z" transform="translate(693.25 456.1)" fill="#292d32"/>
      <path id="Vector-3" data-name="Vector" d="M.75,2.28A.755.755,0,0,1,0,1.53V.75A.755.755,0,0,1,.75,0,.755.755,0,0,1,1.5.75v.78A.755.755,0,0,1,.75,2.28Z" transform="translate(693.25 449.66)" fill="#292d32"/>
      <path id="Vector-4" data-name="Vector" d="M8.74,17.48a8.74,8.74,0,1,1,8.74-8.74A8.749,8.749,0,0,1,8.74,17.48Zm0-15.97a7.235,7.235,0,1,0,7.24,7.23A7.251,7.251,0,0,0,8.74,1.51Z" transform="translate(685.25 445.24)" fill="#292d32"/>
      <path id="Vector-5" data-name="Vector" d="M4.8,10.492a5.7,5.7,0,0,1-4.66-2.42.753.753,0,0,1,1.23-.87,4.2,4.2,0,1,0,5.87-5.84.752.752,0,0,1,.88-1.22A5.711,5.711,0,0,1,4.8,10.492Z" transform="translate(696.222 456.228)" fill="#292d32"/>
      <path id="Vector-6" data-name="Vector" d="M0,0H24V24H0Z" transform="translate(684 444)" fill="none" opacity="0"/>
    </g>
  </g>
</svg>
