<svg xmlns="http://www.w3.org/2000/svg" width="24" height="24" viewBox="0 0 24 24">
  <g id="vuesax_outline_computing" data-name="vuesax/outline/computing" transform="translate(-684 -444)">
    <g id="computing">
      <path id="Vector" d="M13.75,21.5h-6C2.32,21.5,0,19.18,0,13.75v-6C0,2.32,2.32,0,7.75,0h6c5.43,0,7.75,2.32,7.75,7.75v6C21.5,19.18,19.19,21.5,13.75,21.5Zm-6-20C3.14,1.5,1.5,3.14,1.5,7.75v6C1.5,18.36,3.14,20,7.75,20h6C18.36,20,20,18.36,20,13.75v-6c0-4.61-1.64-6.25-6.25-6.25Z" transform="translate(685.22 445.25)" fill="#292d32"/>
      <path id="Vector-2" data-name="Vector" d="M.747,17.948a.742.742,0,0,1-.53-.22.754.754,0,0,1,0-1.06L16.668.218a.75.75,0,1,1,1.06,1.06L1.277,17.727A.71.71,0,0,1,.747,17.948Z" transform="translate(686.523 446.503)" fill="#292d32"/>
      <path id="Vector-3" data-name="Vector" d="M.75,6.5A.755.755,0,0,1,0,5.75v-5A.755.755,0,0,1,.75,0,.755.755,0,0,1,1.5.75v5A.755.755,0,0,1,.75,6.5Z" transform="translate(699.31 456.25)" fill="#292d32"/>
      <path id="Vector-4" data-name="Vector" d="M5.75,1.5h-5A.755.755,0,0,1,0,.75.755.755,0,0,1,.75,0h5A.755.755,0,0,1,6.5.75.755.755,0,0,1,5.75,1.5Z" transform="translate(696.75 458.75)" fill="#292d32"/>
      <path id="Vector-5" data-name="Vector" d="M5.75,1.5h-5A.755.755,0,0,1,0,.75.755.755,0,0,1,.75,0h5A.755.755,0,0,1,6.5.75.755.755,0,0,1,5.75,1.5Z" transform="translate(688.75 450.75)" fill="#292d32"/>
      <path id="Vector-6" data-name="Vector" d="M0,0H24V24H0Z" transform="translate(684 444)" fill="none" opacity="0"/>
    </g>
  </g>
</svg>
