<svg xmlns="http://www.w3.org/2000/svg" width="24" height="24" viewBox="0 0 24 24">
  <g id="vuesax_outline_convert-card" data-name="vuesax/outline/convert-card" transform="translate(-556 -316)">
    <g id="convert-card">
      <path id="Vector" d="M10.75,1.5H.75A.755.755,0,0,1,0,.75.755.755,0,0,1,.75,0h10a.75.75,0,0,1,0,1.5Z" transform="translate(567.25 320.81)" fill="#292d32"/>
      <path id="Vector-2" data-name="Vector" d="M8.52,10H2.97C.78,10,0,9.23,0,7.05V2.95C0,.77.78,0,2.97,0H8.52c2.19,0,2.97.77,2.97,2.95V7.06C11.49,9.23,10.71,10,8.52,10ZM2.96,1.5c-1.36,0-1.47.11-1.47,1.45V7.06c0,1.34.11,1.45,1.47,1.45H8.51c1.36,0,1.47-.11,1.47-1.45V2.95c0-1.34-.11-1.45-1.47-1.45Z" transform="translate(567.26 317.25)" fill="#292d32"/>
      <path id="Vector-3" data-name="Vector" d="M10.75,1.5H.75A.755.755,0,0,1,0,.75.755.755,0,0,1,.75,0h10a.75.75,0,0,1,0,1.5Z" transform="translate(557.25 332.31)" fill="#292d32"/>
      <path id="Vector-4" data-name="Vector" d="M8.52,10H2.97C.78,10,0,9.23,0,7.05V2.95C0,.77.78,0,2.97,0H8.52c2.19,0,2.97.77,2.97,2.95V7.06C11.49,9.23,10.71,10,8.52,10ZM2.96,1.5c-1.36,0-1.47.11-1.47,1.45V7.06c0,1.34.11,1.45,1.47,1.45H8.51c1.36,0,1.47-.11,1.47-1.45V2.95c0-1.34-.11-1.45-1.47-1.45Z" transform="translate(557.26 328.75)" fill="#292d32"/>
      <path id="Vector-5" data-name="Vector" d="M.746,8.51A.752.752,0,0,1,.1,8.13a.764.764,0,0,1,.01-.76l1.05-1.75a.758.758,0,0,1,1.03-.26.749.749,0,0,1,.26,1.03l-.27.45A6.272,6.272,0,0,0,7.006.75a.75.75,0,1,1,1.5,0A7.78,7.78,0,0,1,.746,8.51Z" transform="translate(570.254 330.24)" fill="#292d32"/>
      <path id="Vector-6" data-name="Vector" d="M.75,8.5A.755.755,0,0,1,0,7.75,7.763,7.763,0,0,1,7.75,0,.752.752,0,0,1,8.4.38a.764.764,0,0,1-.01.76L7.34,2.89a.758.758,0,0,1-1.03.26.749.749,0,0,1-.26-1.03l.27-.45A6.272,6.272,0,0,0,1.49,7.76.738.738,0,0,1,.75,8.5Z" transform="translate(557.25 317.25)" fill="#292d32"/>
      <path id="Vector-7" data-name="Vector" d="M0,0H24V24H0Z" transform="translate(556 316)" fill="none" opacity="0"/>
    </g>
  </g>
</svg>
