<svg xmlns="http://www.w3.org/2000/svg" width="24" height="24" viewBox="0 0 24 24">
  <g id="vuesax_outline_creative-commons" data-name="vuesax/outline/creative-commons" transform="translate(-108 -316)">
    <g id="creative-commons">
      <path id="Vector" d="M10.75,21.5A10.75,10.75,0,1,1,21.5,10.75,10.759,10.759,0,0,1,10.75,21.5Zm0-20A9.25,9.25,0,1,0,20,10.75,9.261,9.261,0,0,0,10.75,1.5Z" transform="translate(109.25 317.25)" fill="#292d32"/>
      <path id="Vector-2" data-name="Vector" d="M3.62,7.24A3.62,3.62,0,1,1,6.01.9a.751.751,0,1,1-.99,1.13,2.12,2.12,0,1,0,0,3.18.751.751,0,1,1,.99,1.13A3.66,3.66,0,0,1,3.62,7.24Z" transform="translate(113.37 324.38)" fill="#292d32"/>
      <path id="Vector-3" data-name="Vector" d="M3.62,7.24A3.62,3.62,0,1,1,6.01.9a.751.751,0,1,1-.99,1.13,2.12,2.12,0,1,0,0,3.18.751.751,0,1,1,.99,1.13A3.66,3.66,0,0,1,3.62,7.24Z" transform="translate(120.37 324.38)" fill="#292d32"/>
      <path id="Vector-4" data-name="Vector" d="M0,0H24V24H0Z" transform="translate(108 316)" fill="none" opacity="0"/>
    </g>
  </g>
</svg>
