<svg xmlns="http://www.w3.org/2000/svg" width="24" height="24" viewBox="0 0 24 24">
  <g id="vuesax_outline_crown" data-name="vuesax/outline/crown" transform="translate(-108 -380)">
    <g id="crown">
      <path id="Vector" d="M15.75,18.065h-10A5.757,5.757,0,0,1,0,12.315V2.735c0-1.3.6-1.75.96-1.9s1.1-.26,2.02.66l2.59,2.59a.242.242,0,0,0,.35,0L9.51.5a1.788,1.788,0,0,1,2.47,0l3.59,3.59a.242.242,0,0,0,.35,0l2.59-2.59c.92-.92,1.66-.8,2.02-.66s.96.59.96,1.9v9.59A5.427,5.427,0,0,1,15.75,18.065ZM1.56,2.265a1.417,1.417,0,0,0-.06.47v9.59a4.259,4.259,0,0,0,4.25,4.25h10A3.984,3.984,0,0,0,20,12.325V2.735a1.344,1.344,0,0,0-.06-.46,1.493,1.493,0,0,0-.37.29l-2.59,2.59a1.788,1.788,0,0,1-2.47,0l-3.59-3.59a.242.242,0,0,0-.35,0L6.99,5.145a1.788,1.788,0,0,1-2.47,0L1.93,2.555A1.705,1.705,0,0,0,1.56,2.265Z" transform="translate(109.25 382.975)" fill="#292d32"/>
      <path id="Vector-2" data-name="Vector" d="M0,0H24V24H0Z" transform="translate(108 380)" fill="none" opacity="0"/>
    </g>
  </g>
</svg>
