<svg xmlns="http://www.w3.org/2000/svg" width="24" height="24" viewBox="0 0 24 24">
  <g id="vuesax_outline_crown" data-name="vuesax/outline/crown" transform="translate(-172 -380)">
    <g id="crown">
      <path id="Vector" d="M15.529,18.5h-9.4a1.937,1.937,0,0,1-1.74-1.22L.249,5.69c-.51-1.46-.14-2.13.26-2.43s1.15-.48,2.41.42l3.9,2.79a.449.449,0,0,0,.31.08.364.364,0,0,0,.21-.25L9.1,1.61C9.629.21,10.409,0,10.829,0s1.2.21,1.73,1.61l1.76,4.69a.387.387,0,0,0,.21.25.333.333,0,0,0,.31-.09L18.5,3.85c1.34-.96,2.12-.77,2.55-.46s.81,1.03.26,2.58l-4.04,11.31A1.937,1.937,0,0,1,15.529,18.5ZM1.509,4.58a2.705,2.705,0,0,0,.16.6l4.14,11.59a.467.467,0,0,0,.32.23h9.4a.429.429,0,0,0,.32-.23l4.04-11.3a2.879,2.879,0,0,0,.19-.79,2.732,2.732,0,0,0-.71.4l-3.66,2.61a1.792,1.792,0,0,1-2.8-.85l-1.76-4.69a1.916,1.916,0,0,0-.32-.6,1.95,1.95,0,0,0-.32.59L8.749,6.83a1.825,1.825,0,0,1-1.18,1.15,1.873,1.873,0,0,1-1.62-.3l-3.9-2.79A2.76,2.76,0,0,0,1.509,4.58Z" transform="translate(173.171 381.23)" fill="#292d32"/>
      <path id="Vector-2" data-name="Vector" d="M11.75,1.5H.75A.755.755,0,0,1,0,.75.755.755,0,0,1,.75,0h11a.755.755,0,0,1,.75.75A.755.755,0,0,1,11.75,1.5Z" transform="translate(177.75 401.25)" fill="#292d32"/>
      <path id="Vector-3" data-name="Vector" d="M5.75,1.5h-5A.755.755,0,0,1,0,.75.755.755,0,0,1,.75,0h5A.755.755,0,0,1,6.5.75.755.755,0,0,1,5.75,1.5Z" transform="translate(180.75 393.25)" fill="#292d32"/>
      <path id="Vector-4" data-name="Vector" d="M0,0H24V24H0Z" transform="translate(172 380)" fill="none" opacity="0"/>
    </g>
  </g>
</svg>
