<svg xmlns="http://www.w3.org/2000/svg" width="24" height="24" viewBox="0 0 24 24">
  <g id="vuesax_outline_data-2" data-name="vuesax/outline/data-2" transform="translate(-684 -188)">
    <g id="data-2">
      <path id="Vector" d="M5.75,7.5h-3A2.748,2.748,0,0,1,0,4.75v-2A2.748,2.748,0,0,1,2.75,0h3A2.748,2.748,0,0,1,8.5,2.75v2A2.748,2.748,0,0,1,5.75,7.5Zm-3-6A1.25,1.25,0,0,0,1.5,2.75v2A1.25,1.25,0,0,0,2.75,6h3A1.25,1.25,0,0,0,7,4.75v-2A1.25,1.25,0,0,0,5.75,1.5Z" transform="translate(685.25 189.25)" fill="#292d32"/>
      <path id="Vector-2" data-name="Vector" d="M5.55,5.5H1.95A1.953,1.953,0,0,1,0,3.55V1.95A1.953,1.953,0,0,1,1.95,0h3.6A1.953,1.953,0,0,1,7.5,1.95v1.6A1.946,1.946,0,0,1,5.55,5.5Zm-3.6-4a.461.461,0,0,0-.45.45v1.6A.461.461,0,0,0,1.95,4h3.6A.461.461,0,0,0,6,3.55V1.95a.461.461,0,0,0-.45-.45Z" transform="translate(699.25 190.25)" fill="#292d32"/>
      <path id="Vector-3" data-name="Vector" d="M5.55,5.5H1.95A1.953,1.953,0,0,1,0,3.55V1.95A1.953,1.953,0,0,1,1.95,0h3.6A1.953,1.953,0,0,1,7.5,1.95v1.6A1.946,1.946,0,0,1,5.55,5.5Zm-3.6-4a.461.461,0,0,0-.45.45v1.6A.461.461,0,0,0,1.95,4h3.6A.461.461,0,0,0,6,3.55V1.95a.461.461,0,0,0-.45-.45Z" transform="translate(699.25 197.75)" fill="#292d32"/>
      <path id="Vector-4" data-name="Vector" d="M7.75,1.5h-7A.755.755,0,0,1,0,.75.755.755,0,0,1,.75,0h7A.755.755,0,0,1,8.5.75.755.755,0,0,1,7.75,1.5Z" transform="translate(692.25 192.25)" fill="#292d32"/>
      <path id="Vector-5" data-name="Vector" d="M0,0V13a2.006,2.006,0,0,0,2,2H3.5" transform="translate(696.5 193)" fill="#fff"/>
      <path id="Vector-6" data-name="Vector" d="M4.25,16.5H2.75A2.748,2.748,0,0,1,0,13.75V.75A.755.755,0,0,1,.75,0,.755.755,0,0,1,1.5.75v13A1.25,1.25,0,0,0,2.75,15h1.5a.75.75,0,0,1,0,1.5Z" transform="translate(695.75 192.25)" fill="#292d32"/>
      <path id="Vector-7" data-name="Vector" d="M0,0H3.5" transform="translate(696.5 200.5)" fill="#fff"/>
      <path id="Vector-8" data-name="Vector" d="M4.25,1.5H.75A.755.755,0,0,1,0,.75.755.755,0,0,1,.75,0h3.5A.755.755,0,0,1,5,.75.755.755,0,0,1,4.25,1.5Z" transform="translate(695.75 199.75)" fill="#292d32"/>
      <path id="Vector-9" data-name="Vector" d="M5.55,5.5H1.95A1.953,1.953,0,0,1,0,3.55V1.95A1.953,1.953,0,0,1,1.95,0h3.6A1.953,1.953,0,0,1,7.5,1.95v1.6A1.946,1.946,0,0,1,5.55,5.5Zm-3.6-4a.461.461,0,0,0-.45.45v1.6A.461.461,0,0,0,1.95,4h3.6A.461.461,0,0,0,6,3.55V1.95a.461.461,0,0,0-.45-.45Z" transform="translate(699.25 205.25)" fill="#292d32"/>
      <path id="Vector-10" data-name="Vector" d="M0,0H24V24H0Z" transform="translate(684 188)" fill="none" opacity="0"/>
    </g>
  </g>
</svg>
