<svg xmlns="http://www.w3.org/2000/svg" width="24" height="24" viewBox="0 0 24 24">
  <g id="vuesax_outline_data" data-name="vuesax/outline/data" transform="translate(-620 -188)">
    <g id="data">
      <path id="Vector" d="M2.75,5.5A2.75,2.75,0,1,1,5.5,2.75,2.748,2.748,0,0,1,2.75,5.5Zm0-4A1.25,1.25,0,1,0,4,2.75,1.25,1.25,0,0,0,2.75,1.5Z" transform="translate(637.25 197.25)" fill="#292d32"/>
      <path id="Vector-2" data-name="Vector" d="M2.75,5.5A2.75,2.75,0,1,1,5.5,2.75,2.748,2.748,0,0,1,2.75,5.5Zm0-4A1.25,1.25,0,1,0,4,2.75,1.25,1.25,0,0,0,2.75,1.5Z" transform="translate(637.25 189.25)" fill="#292d32"/>
      <path id="Vector-3" data-name="Vector" d="M2.75,5.5A2.75,2.75,0,1,1,5.5,2.75,2.748,2.748,0,0,1,2.75,5.5Zm0-4A1.25,1.25,0,1,0,4,2.75,1.25,1.25,0,0,0,2.75,1.5Z" transform="translate(637.25 205.25)" fill="#292d32"/>
      <path id="Vector-4" data-name="Vector" d="M2.75,5.5A2.75,2.75,0,1,1,5.5,2.75,2.748,2.748,0,0,1,2.75,5.5Zm0-4A1.25,1.25,0,1,0,4,2.75,1.25,1.25,0,0,0,2.75,1.5Z" transform="translate(621.25 197.25)" fill="#292d32"/>
      <path id="Vector-5" data-name="Vector" d="M12.75,1.5H.75A.755.755,0,0,1,0,.75.755.755,0,0,1,.75,0h12a.755.755,0,0,1,.75.75A.755.755,0,0,1,12.75,1.5Z" transform="translate(625.25 199.25)" fill="#292d32"/>
      <path id="Vector-6" data-name="Vector" d="M7.75,17.5h-4A3.381,3.381,0,0,1,0,13.75v-10A3.381,3.381,0,0,1,3.75,0h4A.755.755,0,0,1,8.5.75a.755.755,0,0,1-.75.75h-4c-1.58,0-2.25.67-2.25,2.25v10c0,1.58.67,2.25,2.25,2.25h4a.75.75,0,0,1,0,1.5Z" transform="translate(630.25 191.25)" fill="#292d32"/>
      <path id="Vector-7" data-name="Vector" d="M0,0H24V24H0Z" transform="translate(620 188)" fill="none" opacity="0"/>
    </g>
  </g>
</svg>
