<svg xmlns="http://www.w3.org/2000/svg" width="24" height="24" viewBox="0 0 24 24">
  <g id="vuesax_outline_diamonds" data-name="vuesax/outline/diamonds" transform="translate(-556 -572)">
    <g id="diamonds">
      <path id="Vector" d="M10.755,21.19a3.918,3.918,0,0,1-2.91-1.31L.985,12.34A4.212,4.212,0,0,1,.295,8.1l2.56-5.76A3.621,3.621,0,0,1,6.445,0h8.59V0a3.612,3.612,0,0,1,3.59,2.33l2.56,5.76a4.209,4.209,0,0,1-.68,4.24l-6.85,7.55A3.865,3.865,0,0,1,10.755,21.19Zm4.29-19.7H6.455a2.116,2.116,0,0,0-2.22,1.45L1.675,8.7a2.743,2.743,0,0,0,.42,2.62l6.86,7.54a2.386,2.386,0,0,0,3.6,0l6.85-7.55a2.7,2.7,0,0,0,.42-2.62l-2.56-5.76A2.12,2.12,0,0,0,15.045,1.49Z" transform="translate(557.245 573.41)" fill="#292d32"/>
      <path id="Vector-2" data-name="Vector" d="M.75,1.51A.755.755,0,0,1,0,.76.755.755,0,0,1,.75.01l17-.01a.755.755,0,0,1,.75.75.755.755,0,0,1-.75.75Z" transform="translate(558.75 579.24)" fill="#292d32"/>
      <path id="Vector-3" data-name="Vector" d="M0,0H24V24H0Z" transform="translate(556 572)" fill="none" opacity="0"/>
    </g>
  </g>
</svg>
