<svg xmlns="http://www.w3.org/2000/svg" width="24" height="24" viewBox="0 0 24 24">
  <g id="vuesax_outline_discount-shape" data-name="vuesax/outline/discount-shape" transform="translate(-364 -316)">
    <g id="discount-shape">
      <path id="Vector" d="M10.75,21.47a2.3,2.3,0,0,1-1.66-.69L7.57,19.26a1.14,1.14,0,0,0-.6-.25H4.81a2.347,2.347,0,0,1-2.35-2.35V14.5a1.14,1.14,0,0,0-.25-.6L.69,12.38A2.338,2.338,0,0,1,0,10.72,2.3,2.3,0,0,1,.69,9.06L2.21,7.54a1.14,1.14,0,0,0,.25-.6V4.78A2.347,2.347,0,0,1,4.81,2.43H6.97a1.14,1.14,0,0,0,.6-.25L9.09.66a2.418,2.418,0,0,1,3.32,0l1.52,1.52a1.14,1.14,0,0,0,.6.25h2.16a2.347,2.347,0,0,1,2.35,2.35V6.94a1.14,1.14,0,0,0,.25.6l1.52,1.52a2.338,2.338,0,0,1,.69,1.66,2.3,2.3,0,0,1-.69,1.66L19.29,13.9a1.14,1.14,0,0,0-.25.6v2.16a2.347,2.347,0,0,1-2.35,2.35H14.53a1.14,1.14,0,0,0-.6.25l-1.52,1.52A2.3,2.3,0,0,1,10.75,21.47ZM3.27,12.84a2.582,2.582,0,0,1,.69,1.66v2.16a.849.849,0,0,0,.85.85H6.97a2.581,2.581,0,0,1,1.66.69l1.52,1.52a.87.87,0,0,0,1.2,0l1.52-1.52a2.581,2.581,0,0,1,1.66-.69h2.16a.849.849,0,0,0,.85-.85V14.5a2.582,2.582,0,0,1,.69-1.66l1.52-1.52a.845.845,0,0,0,0-1.2L18.23,8.6a2.582,2.582,0,0,1-.69-1.66V4.78a.849.849,0,0,0-.85-.85H14.53a2.581,2.581,0,0,1-1.66-.69L11.35,1.72a.87.87,0,0,0-1.2,0L8.63,3.24a2.581,2.581,0,0,1-1.66.69H4.81a.849.849,0,0,0-.85.85V6.94A2.582,2.582,0,0,1,3.27,8.6L1.75,10.12a.845.845,0,0,0,0,1.2Z" transform="translate(365.25 317.28)" fill="#292d32"/>
      <path id="Vector-2" data-name="Vector" d="M1.01,2A1,1,0,1,1,2,1,.994.994,0,0,1,1.01,2Z" transform="translate(377.99 330)" fill="#292d32"/>
      <path id="Vector-3" data-name="Vector" d="M1.01,2A1,1,0,1,1,2,1,.994.994,0,0,1,1.01,2Z" transform="translate(372 324)" fill="#292d32"/>
      <path id="Vector-4" data-name="Vector" d="M.747,7.5a.742.742,0,0,1-.53-.22.755.755,0,0,1,0-1.06l6-6a.75.75,0,0,1,1.06,1.06l-6,6A.742.742,0,0,1,.747,7.5Z" transform="translate(372.252 324.252)" fill="#292d32"/>
      <path id="Vector-5" data-name="Vector" d="M0,0H24V24H0Z" transform="translate(364 316)" fill="none" opacity="0"/>
    </g>
  </g>
</svg>
