<svg xmlns="http://www.w3.org/2000/svg" width="24" height="24" viewBox="0 0 24 24">
  <g id="vuesax_outline_document-filter" data-name="vuesax/outline/document-filter" transform="translate(-620 -316)">
    <g id="document-filter">
      <path id="Vector" d="M5.83,14.86a2.124,2.124,0,0,1-2.12-2.1V9.19a1.789,1.789,0,0,0-.38-.95L.81,5.59A2.911,2.911,0,0,1,0,3.72V2.17A2.116,2.116,0,0,1,2.1,0H11a2.1,2.1,0,0,1,2.1,2.1V3.58a3.264,3.264,0,0,1-.89,2.08L9.28,8.25a1.475,1.475,0,0,0-.42.99v2.9a2.231,2.231,0,0,1-.97,1.79l-.92.6A2.178,2.178,0,0,1,5.83,14.86ZM2.1,1.51a.626.626,0,0,0-.6.67V3.73a1.565,1.565,0,0,0,.39.82L4.47,7.26a3.373,3.373,0,0,1,.75,1.93v3.57a.551.551,0,0,0,.31.51.634.634,0,0,0,.64,0l.93-.6a.768.768,0,0,0,.26-.52V9.25A2.974,2.974,0,0,1,8.3,7.12l2.88-2.55a1.788,1.788,0,0,0,.42-.99V2.1a.6.6,0,0,0-.6-.6H2.1Z" transform="translate(621.25 317.24)" fill="#292d32"/>
      <path id="Vector-2" data-name="Vector" d="M13.75,21.261h-6c-5.43,0-7.75-2.32-7.75-7.75v-3a.755.755,0,0,1,.75-.75.755.755,0,0,1,.75.75v3c0,4.61,1.64,6.25,6.25,6.25h6c4.61,0,6.25-1.64,6.25-6.25v-6c0-2.9-.68-4.58-2.21-5.45a7.217,7.217,0,0,0-2.21-.57.742.742,0,0,1-.62-.86.753.753,0,0,1,.86-.62,8.829,8.829,0,0,1,2.71.74c2.02,1.15,2.97,3.3,2.97,6.76v6C21.5,18.941,19.18,21.261,13.75,21.261Z" transform="translate(621.25 317.489)" fill="#292d32"/>
      <path id="Vector-3" data-name="Vector" d="M5.75,1.5h-5A.755.755,0,0,1,0,.75.755.755,0,0,1,.75,0h5A.755.755,0,0,1,6.5.75.755.755,0,0,1,5.75,1.5Z" transform="translate(632.25 328.25)" fill="#292d32"/>
      <path id="Vector-4" data-name="Vector" d="M7.75,1.5h-7A.755.755,0,0,1,0,.75.755.755,0,0,1,.75,0h7A.755.755,0,0,1,8.5.75.755.755,0,0,1,7.75,1.5Z" transform="translate(630.25 332.25)" fill="#292d32"/>
      <path id="Vector-5" data-name="Vector" d="M0,0H24V24H0Z" transform="translate(644 340) rotate(180)" fill="none" opacity="0"/>
    </g>
  </g>
</svg>
