<svg xmlns="http://www.w3.org/2000/svg" width="24" height="24" viewBox="0 0 24 24">
  <g id="vuesax_outline_document-like" data-name="vuesax/outline/document-like" transform="translate(-556 -252)">
    <g id="document-like">
      <path id="Vector" d="M13.75,21.5h-8C2.1,21.5,0,19.4,0,15.75v-10C0,2.1,2.1,0,5.75,0h8C17.4,0,19.5,2.1,19.5,5.75v10C19.5,19.4,17.4,21.5,13.75,21.5Zm-8-20C2.89,1.5,1.5,2.89,1.5,5.75v10C1.5,18.61,2.89,20,5.75,20h8C16.61,20,18,18.61,18,15.75v-10c0-2.86-1.39-4.25-4.25-4.25Z" transform="translate(558.25 253.25)" fill="#292d32"/>
      <path id="Vector-2" data-name="Vector" d="M4.75,5.5h-2A2.748,2.748,0,0,1,0,2.75v-2A.755.755,0,0,1,.75,0,.755.755,0,0,1,1.5.75v2A1.25,1.25,0,0,0,2.75,4h2a.75.75,0,0,1,0,1.5Z" transform="translate(569.75 255.75)" fill="#292d32"/>
      <path id="Vector-3" data-name="Vector" d="M3.648,6.7a4.593,4.593,0,0,1-3.5-3A2.815,2.815,0,0,1,1.758.113a2.236,2.236,0,0,1,1.88.22,2.276,2.276,0,0,1,1.9-.22A2.839,2.839,0,0,1,7.168,3.7,4.606,4.606,0,0,1,3.648,6.7Zm-2.07-3.46A3.349,3.349,0,0,0,3.688,5.2a3.328,3.328,0,0,0,2.05-1.96,1.35,1.35,0,0,0-.66-1.71.718.718,0,0,0-.8.22.73.73,0,0,1-.61.34.71.71,0,0,1-.63-.32.739.739,0,0,0-.82-.24A1.346,1.346,0,0,0,1.578,3.243Z" transform="translate(562.622 264.018)" fill="#292d32"/>
      <path id="Vector-4" data-name="Vector" d="M0,0H24V24H0Z" transform="translate(556 252)" fill="none" opacity="0"/>
      <path id="Vector-5" data-name="Vector" d="M0,0H24V24H0Z" transform="translate(556 252)" fill="none" opacity="0"/>
    </g>
  </g>
</svg>
