<svg xmlns="http://www.w3.org/2000/svg" width="24" height="24" viewBox="0 0 24 24">
  <g id="vuesax_outline_document" data-name="vuesax/outline/document" transform="translate(-748 -444)">
    <g id="document">
      <path id="Vector" d="M13.75,21.5h-6C2.32,21.5,0,19.18,0,13.75v-6C0,2.32,2.32,0,7.75,0h6c5.43,0,7.75,2.32,7.75,7.75v6C21.5,19.18,19.18,21.5,13.75,21.5Zm-6-20C3.14,1.5,1.5,3.14,1.5,7.75v6C1.5,18.36,3.14,20,7.75,20h6C18.36,20,20,18.36,20,13.75v-6c0-4.61-1.64-6.25-6.25-6.25Z" transform="translate(749.25 445.25)" fill="#292d32"/>
      <path id="Vector-2" data-name="Vector" d="M8.25,1.5H.75A.755.755,0,0,1,0,.75.755.755,0,0,1,.75,0h7.5A.755.755,0,0,1,9,.75.755.755,0,0,1,8.25,1.5Z" transform="translate(755.5 452.25)" fill="#292d32"/>
      <path id="Vector-3" data-name="Vector" d="M8.25,1.5H.75A.755.755,0,0,1,0,.75.755.755,0,0,1,.75,0h7.5A.755.755,0,0,1,9,.75.755.755,0,0,1,8.25,1.5Z" transform="translate(755.5 458.25)" fill="#292d32"/>
      <path id="Vector-4" data-name="Vector" d="M0,0H24V24H0Z" transform="translate(748 444)" fill="none" opacity="0"/>
    </g>
  </g>
</svg>
