<svg xmlns="http://www.w3.org/2000/svg" width="24" height="24" viewBox="0 0 24 24">
  <g id="vuesax_outline_document-favorite" data-name="vuesax/outline/document-favorite" transform="translate(-236 -188)">
    <g id="document-favorite">
      <path id="Vector" d="M13.75,21.5h-6C2.32,21.5,0,19.18,0,13.75v-6C0,2.32,2.32,0,7.75,0h5a.755.755,0,0,1,.75.75.755.755,0,0,1-.75.75h-5C3.14,1.5,1.5,3.14,1.5,7.75v6C1.5,18.36,3.14,20,7.75,20h6C18.36,20,20,18.36,20,13.75v-5a.75.75,0,0,1,1.5,0v5C21.5,19.18,19.18,21.5,13.75,21.5Z" transform="translate(237.25 189.25)" fill="#292d32"/>
      <path id="Vector-2" data-name="Vector" d="M8.75,9.5h-4C1.33,9.5,0,8.169,0,4.749v-4A.741.741,0,0,1,.46.059a.757.757,0,0,1,.82.16l8,8A.751.751,0,0,1,8.75,9.5ZM1.5,2.559v2.19C1.5,7.329,2.17,8,4.75,8H6.94Z" transform="translate(249.25 189.251)" fill="#292d32"/>
      <path id="Vector-3" data-name="Vector" d="M3.658,6.7a4.534,4.534,0,0,1-3.51-3A2.808,2.808,0,0,1,1.768.112a2.267,2.267,0,0,1,1.89.22,2.281,2.281,0,0,1,1.9-.22A2.808,2.808,0,0,1,7.178,3.7,4.621,4.621,0,0,1,3.658,6.7Zm-2.09-3.45a3.229,3.229,0,0,0,2.1,1.95,3.353,3.353,0,0,0,2.07-1.95,1.336,1.336,0,0,0-.65-1.71.713.713,0,0,0-.81.22.755.755,0,0,1-.61.34.72.72,0,0,1-.62-.31.726.726,0,0,0-.83-.24A1.33,1.33,0,0,0,1.568,3.252Z" transform="translate(241.762 200.248)" fill="#292d32"/>
      <path id="Vector-4" data-name="Vector" d="M0,0H24V24H0Z" transform="translate(236 188)" fill="none" opacity="0"/>
    </g>
  </g>
</svg>
