<svg xmlns="http://www.w3.org/2000/svg" width="24" height="24" viewBox="0 0 24 24">
  <g id="vuesax_outline_document-sketch" data-name="vuesax/outline/document-sketch" transform="translate(-556 -188)">
    <g id="document-sketch">
      <path id="Vector" d="M13.75,21.5h-6C2.32,21.5,0,19.18,0,13.75v-6C0,2.32,2.32,0,7.75,0h5a.755.755,0,0,1,.75.75.755.755,0,0,1-.75.75h-5C3.14,1.5,1.5,3.14,1.5,7.75v6C1.5,18.36,3.14,20,7.75,20h6C18.36,20,20,18.36,20,13.75v-5a.75.75,0,0,1,1.5,0v5C21.5,19.18,19.18,21.5,13.75,21.5Z" transform="translate(557.25 189.25)" fill="#292d32"/>
      <path id="Vector-2" data-name="Vector" d="M8.75,9.5h-4C1.33,9.5,0,8.169,0,4.749v-4A.741.741,0,0,1,.46.059a.757.757,0,0,1,.82.16l8,8a.753.753,0,0,1,.16.82A.741.741,0,0,1,8.75,9.5ZM1.5,2.559v2.19C1.5,7.329,2.17,8,4.75,8H6.94Z" transform="translate(569.25 189.251)" fill="#292d32"/>
      <path id="Vector-3" data-name="Vector" d="M4.1,7.47a1.649,1.649,0,0,1-1.17-.48L.474,4.53a1.7,1.7,0,0,1-.21-2.09L1.394.74A1.752,1.752,0,0,1,2.774,0h2.65A1.783,1.783,0,0,1,6.8.74l1.13,1.69a1.706,1.706,0,0,1-.21,2.09L5.264,6.98A1.579,1.579,0,0,1,4.1,7.47ZM2.784,1.51a.322.322,0,0,0-.14.08L1.524,3.28a.206.206,0,0,0,.02.2L4,5.94a.18.18,0,0,0,.22,0l2.46-2.46a.2.2,0,0,0,.02-.2L5.574,1.59a.458.458,0,0,0-.14-.07Z" transform="translate(561.546 199.24)" fill="#292d32"/>
      <path id="Vector-4" data-name="Vector" d="M0,0H24V24H0Z" transform="translate(556 188)" fill="none" opacity="0"/>
    </g>
  </g>
</svg>
