<svg xmlns="http://www.w3.org/2000/svg" width="24" height="24" viewBox="0 0 24 24">
  <g id="vuesax_outline_document-forward" data-name="vuesax/outline/document-forward" transform="translate(-428 -188)">
    <g id="document-forward">
      <path id="Vector" d="M4.75,5.5a.742.742,0,0,1-.53-.22.754.754,0,0,1,0-1.06l.72-.72H.75A.75.75,0,0,1,.75,2H4.94l-.72-.72a.748.748,0,0,1,0-1.06.754.754,0,0,1,1.06,0l2,2a.723.723,0,0,1,.21.46v.16a.774.774,0,0,1-.18.39l-.04.04-2,2A.678.678,0,0,1,4.75,5.5Z" transform="translate(434.25 200.253)" fill="#292d32"/>
      <path id="Vector-2" data-name="Vector" d="M13.75,21.5h-6C2.32,21.5,0,19.18,0,13.75v-6C0,2.32,2.32,0,7.75,0h5a.755.755,0,0,1,.75.75.755.755,0,0,1-.75.75h-5C3.14,1.5,1.5,3.14,1.5,7.75v6C1.5,18.36,3.14,20,7.75,20h6C18.36,20,20,18.36,20,13.75v-5a.75.75,0,0,1,1.5,0v5C21.5,19.18,19.18,21.5,13.75,21.5Z" transform="translate(429.25 189.25)" fill="#292d32"/>
      <path id="Vector-3" data-name="Vector" d="M8.75,9.5h-4C1.33,9.5,0,8.169,0,4.749v-4A.741.741,0,0,1,.46.059a.757.757,0,0,1,.82.16l8,8A.751.751,0,0,1,8.75,9.5ZM1.5,2.559v2.19C1.5,7.329,2.17,8,4.75,8H6.94Z" transform="translate(441.25 189.251)" fill="#292d32"/>
      <path id="Vector-4" data-name="Vector" d="M0,0H24V24H0Z" transform="translate(428 188)" fill="none" opacity="0"/>
    </g>
  </g>
</svg>
