<svg xmlns="http://www.w3.org/2000/svg" width="24" height="24" viewBox="0 0 24 24">
  <g id="vuesax_outline_document-code-2" data-name="vuesax/outline/document-code-2" transform="translate(-300 -252)">
    <g id="document-code-2">
      <path id="Vector" d="M13.75,21.5h-5a.75.75,0,0,1,0-1.5h5C16.61,20,18,18.61,18,15.75v-10c0-2.86-1.39-4.25-4.25-4.25h-8C2.89,1.5,1.5,2.89,1.5,5.75v7a.755.755,0,0,1-.75.75A.755.755,0,0,1,0,12.75v-7C0,2.1,2.1,0,5.75,0h8C17.4,0,19.5,2.1,19.5,5.75v10C19.5,19.4,17.4,21.5,13.75,21.5Z" transform="translate(302.25 253.25)" fill="#292d32"/>
      <path id="Vector-2" data-name="Vector" d="M4.75,5.5h-2A2.748,2.748,0,0,1,0,2.75v-2A.755.755,0,0,1,.75,0,.755.755,0,0,1,1.5.75v2A1.25,1.25,0,0,0,2.75,4h2a.75.75,0,0,1,0,1.5Z" transform="translate(313.75 255.75)" fill="#292d32"/>
      <path id="Vector-3" data-name="Vector" d="M2.747,5.5a.742.742,0,0,1-.53-.22l-2-2a.755.755,0,0,1,0-1.06l2-2a.75.75,0,0,1,1.06,1.06l-1.47,1.47,1.47,1.47a.755.755,0,0,1,0,1.06A.742.742,0,0,1,2.747,5.5Z" transform="translate(301.252 268.252)" fill="#292d32"/>
      <path id="Vector-4" data-name="Vector" d="M.747,5.5a.742.742,0,0,1-.53-.22.755.755,0,0,1,0-1.06l1.47-1.47L.218,1.278A.75.75,0,0,1,1.277.218l2,2a.755.755,0,0,1,0,1.06l-2,2A.742.742,0,0,1,.747,5.5Z" transform="translate(306.252 268.252)" fill="#292d32"/>
      <path id="Vector-5" data-name="Vector" d="M0,0H24V24H0Z" transform="translate(300 252)" fill="none" opacity="0"/>
    </g>
  </g>
</svg>
