<svg xmlns="http://www.w3.org/2000/svg" width="24" height="24" viewBox="0 0 24 24">
  <g id="vuesax_outline_document-copy" data-name="vuesax/outline/document-copy" transform="translate(-684 -188)">
    <g id="document-copy">
      <path id="Vector" d="M10.15,16.5H6.35C1.96,16.5,0,14.54,0,10.15V6.35C0,1.96,1.96,0,6.35,0h3a.755.755,0,0,1,.75.75.755.755,0,0,1-.75.75h-3C2.77,1.5,1.5,2.77,1.5,6.35v3.8C1.5,13.73,2.77,15,6.35,15h3.8C13.73,15,15,13.73,15,10.15v-3a.75.75,0,0,1,1.5,0v3C16.5,14.54,14.54,16.5,10.15,16.5Z" transform="translate(685.25 194.25)" fill="#292d32"/>
      <path id="Vector-2" data-name="Vector" d="M7.15,7.9H3.95C1.14,7.9,0,6.759,0,3.949V.749A.741.741,0,0,1,.46.059a.757.757,0,0,1,.82.16l6.4,6.4a.753.753,0,0,1,.16.82A.741.741,0,0,1,7.15,7.9ZM1.5,2.559v1.39c0,1.99.46,2.45,2.45,2.45H5.34Z" transform="translate(693.85 194.251)" fill="#292d32"/>
      <path id="Vector-3" data-name="Vector" d="M4.75,1.5h-4A.755.755,0,0,1,0,.75.755.755,0,0,1,.75,0h4A.755.755,0,0,1,5.5.75.755.755,0,0,1,4.75,1.5Z" transform="translate(694.85 189.25)" fill="#292d32"/>
      <path id="Vector-4" data-name="Vector" d="M.75,4.5A.755.755,0,0,1,0,3.75,3.751,3.751,0,0,1,3.75,0H6.37a.755.755,0,0,1,.75.75.755.755,0,0,1-.75.75H3.75A2.253,2.253,0,0,0,1.5,3.75.755.755,0,0,1,.75,4.5Z" transform="translate(690.25 189.25)" fill="#292d32"/>
      <path id="Vector-5" data-name="Vector" d="M.75,10.5A.75.75,0,0,1,.75,9,2.063,2.063,0,0,0,2.81,6.94V.75a.75.75,0,0,1,1.5,0V6.94A3.568,3.568,0,0,1,.75,10.5Z" transform="translate(702.44 195.25)" fill="#292d32"/>
      <path id="Vector-6" data-name="Vector" d="M6.75,7.5h-3C1.09,7.5,0,6.409,0,3.749v-3A.741.741,0,0,1,.46.059a.757.757,0,0,1,.82.16l6,6a.753.753,0,0,1,.16.82A.741.741,0,0,1,6.75,7.5ZM1.5,2.559v1.19C1.5,5.579,1.92,6,3.75,6H4.94Z" transform="translate(699.25 189.251)" fill="#292d32"/>
      <path id="Vector-7" data-name="Vector" d="M0,0H24V24H0Z" transform="translate(684 188)" fill="none" opacity="0"/>
    </g>
  </g>
</svg>
