<svg xmlns="http://www.w3.org/2000/svg" width="24" height="24" viewBox="0 0 24 24">
  <g id="vuesax_outline_document-previous" data-name="vuesax/outline/document-previous" transform="translate(-492 -188)">
    <g id="document-previous">
      <path id="Vector" d="M2.749,3.5a.742.742,0,0,1-.53-.22l-2-2A.751.751,0,0,1,.749,0h6A.755.755,0,0,1,7.5.75a.755.755,0,0,1-.75.75H2.559l.72.72a.754.754,0,0,1,0,1.06A.742.742,0,0,1,2.749,3.5Z" transform="translate(498.251 202.25)" fill="#292d32"/>
      <path id="Vector-2" data-name="Vector" d="M.748,3.5a.742.742,0,0,1-.53-.22.754.754,0,0,1,0-1.06l2-2a.75.75,0,1,1,1.06,1.06l-2,2A.742.742,0,0,1,.748,3.5Z" transform="translate(498.253 200.253)" fill="#292d32"/>
      <path id="Vector-3" data-name="Vector" d="M13.75,21.5h-6C2.32,21.5,0,19.18,0,13.75v-6C0,2.32,2.32,0,7.75,0h5a.755.755,0,0,1,.75.75.755.755,0,0,1-.75.75h-5C3.14,1.5,1.5,3.14,1.5,7.75v6C1.5,18.36,3.14,20,7.75,20h6C18.36,20,20,18.36,20,13.75v-5a.75.75,0,0,1,1.5,0v5C21.5,19.18,19.18,21.5,13.75,21.5Z" transform="translate(493.25 189.25)" fill="#292d32"/>
      <path id="Vector-4" data-name="Vector" d="M8.75,9.5h-4C1.33,9.5,0,8.169,0,4.749v-4A.741.741,0,0,1,.46.059a.757.757,0,0,1,.82.16l8,8A.751.751,0,0,1,8.75,9.5ZM1.5,2.559v2.19C1.5,7.329,2.17,8,4.75,8H6.94Z" transform="translate(505.25 189.251)" fill="#292d32"/>
      <path id="Vector-5" data-name="Vector" d="M0,0H24V24H0Z" transform="translate(492 188)" fill="none" opacity="0"/>
    </g>
  </g>
</svg>
