<svg xmlns="http://www.w3.org/2000/svg" width="24" height="24" viewBox="0 0 24 24">
  <g id="vuesax_outline_document-cloud" data-name="vuesax/outline/document-cloud" transform="translate(-620 -188)">
    <g id="document-cloud">
      <path id="Vector" d="M7.75,21.5C2.32,21.5,0,19.18,0,13.75v-6C0,2.32,2.32,0,7.75,0h5a.755.755,0,0,1,.75.75.755.755,0,0,1-.75.75h-5C3.14,1.5,1.5,3.14,1.5,7.75v6C1.5,18.36,3.14,20,7.75,20a.75.75,0,0,1,0,1.5Z" transform="translate(621.25 189.25)" fill="#292d32"/>
      <path id="Vector-2" data-name="Vector" d="M.75,4.5A.755.755,0,0,1,0,3.75v-3A.755.755,0,0,1,.75,0,.755.755,0,0,1,1.5.75v3A.755.755,0,0,1,.75,4.5Z" transform="translate(641.25 197.25)" fill="#292d32"/>
      <path id="Vector-3" data-name="Vector" d="M8.75,9.5h-4C1.33,9.5,0,8.169,0,4.749v-4A.741.741,0,0,1,.46.059a.757.757,0,0,1,.82.16l8,8A.751.751,0,0,1,8.75,9.5ZM1.5,2.559v2.19C1.5,7.329,2.17,8,4.75,8H6.94Z" transform="translate(633.25 189.251)" fill="#292d32"/>
      <path id="Vector-4" data-name="Vector" d="M8.09,9.561H2.51a2.629,2.629,0,0,1-.9-5.05,3.686,3.686,0,0,1,.93-3.28A4.085,4.085,0,0,1,6.62.171a3.732,3.732,0,0,1,2.5,2.72,3.344,3.344,0,0,1,2.22,2.28,3.3,3.3,0,0,1-.96,3.51A3.39,3.39,0,0,1,8.09,9.561ZM2.54,5.821A1.081,1.081,0,0,0,1.5,6.941a1.079,1.079,0,0,0,1.06,1.12H8.07a2.108,2.108,0,0,0,1.32-.5A1.846,1.846,0,0,0,9.91,5.6,1.862,1.862,0,0,0,8.4,4.261a.753.753,0,0,1-.65-.62,2.29,2.29,0,0,0-1.57-2.03,2.57,2.57,0,0,0-2.55.67,2.3,2.3,0,0,0-.38,2.55.749.749,0,0,1-.45.96A1.222,1.222,0,0,1,2.54,5.821Z" transform="translate(631.25 201.189)" fill="#292d32"/>
      <path id="Vector-5" data-name="Vector" d="M0,0H24V24H0Z" transform="translate(620 188)" fill="none" opacity="0"/>
    </g>
  </g>
</svg>
