<svg xmlns="http://www.w3.org/2000/svg" width="24" height="24" viewBox="0 0 24 24">
  <g id="vuesax_outline_dollar-circle" data-name="vuesax/outline/dollar-circle" transform="translate(-236 -572)">
    <g id="dollar-circle">
      <path id="Vector" d="M5.49,10.84H2.98A3.027,3.027,0,0,1,.01,7.76a.755.755,0,0,1,.75-.75.755.755,0,0,1,.75.75A1.531,1.531,0,0,0,2.98,9.34H5.49A1.247,1.247,0,0,0,6.68,8.06c0-.87-.31-1.04-.82-1.22L1.83,5.42A2.5,2.5,0,0,1,0,2.78,2.737,2.737,0,0,1,2.69,0H5.2A3.027,3.027,0,0,1,8.17,3.08a.75.75,0,0,1-1.5,0A1.531,1.531,0,0,0,5.2,1.5H2.69A1.247,1.247,0,0,0,1.5,2.78c0,.87.31,1.04.82,1.22L6.35,5.42A2.5,2.5,0,0,1,8.18,8.06,2.75,2.75,0,0,1,5.49,10.84Z" transform="translate(243.91 578.58)" fill="#292d32"/>
      <path id="Vector-2" data-name="Vector" d="M.75,13.5A.755.755,0,0,1,0,12.75V.75A.755.755,0,0,1,.75,0,.755.755,0,0,1,1.5.75v12A.755.755,0,0,1,.75,13.5Z" transform="translate(247.25 577.25)" fill="#292d32"/>
      <path id="Vector-3" data-name="Vector" d="M10.75,21.5A10.75,10.75,0,1,1,21.5,10.75,10.759,10.759,0,0,1,10.75,21.5Zm0-20A9.25,9.25,0,1,0,20,10.75,9.261,9.261,0,0,0,10.75,1.5Z" transform="translate(237.25 573.25)" fill="#292d32"/>
      <path id="Vector-4" data-name="Vector" d="M0,0H24V24H0Z" transform="translate(236 572)" fill="none" opacity="0"/>
    </g>
  </g>
</svg>
