<svg xmlns="http://www.w3.org/2000/svg" width="24" height="24" viewBox="0 0 24 24">
  <g id="vuesax_outline_empty-wallet-remove" data-name="vuesax/outline/empty-wallet-remove" transform="translate(-428 -188)">
    <g id="empty-wallet-remove">
      <path id="Vector" d="M15.99,15.74H5.88a.76.76,0,0,1-.71-.49.744.744,0,0,1,.22-.83,2.778,2.778,0,0,0,.62-.74A3.148,3.148,0,0,0,6.49,12,3.243,3.243,0,0,0,1.21,9.47a.756.756,0,0,1-.79.09A.744.744,0,0,1,0,8.88V4.51A4.511,4.511,0,0,1,4.51,0H15.99A4.511,4.511,0,0,1,20.5,4.51V5.95a.755.755,0,0,1-.75.75H17.73a1.229,1.229,0,0,0-.9.37l-.01.01a1.262,1.262,0,0,0-.38,1.02,1.394,1.394,0,0,0,1.41,1.19h1.9a.755.755,0,0,1,.75.75v1.19A4.511,4.511,0,0,1,15.99,15.74Zm-8.56-1.5h8.56A3.013,3.013,0,0,0,19,11.23v-.44H17.85a2.879,2.879,0,0,1-2.91-2.56,2.815,2.815,0,0,1,2.79-3.04H19V4.5a3.013,3.013,0,0,0-3.01-3.01H4.51A3.013,3.013,0,0,0,1.5,4.5V7.58A4.738,4.738,0,0,1,8,11.99,4.728,4.728,0,0,1,7.43,14.24Z" transform="translate(429.75 195.01)" fill="#292d32"/>
      <path id="Vector-2" data-name="Vector" d="M.75,11.863a.755.755,0,0,1-.75-.75V6.543a3.629,3.629,0,0,1,2.33-3.37l7.94-3a2.618,2.618,0,0,1,2.44.3,2.644,2.644,0,0,1,1.14,2.18v3.8a.75.75,0,0,1-1.5,0v-3.8a1.141,1.141,0,0,0-.5-.95,1.118,1.118,0,0,0-1.06-.13l-7.94,3a2.124,2.124,0,0,0-1.36,1.97v4.57A.734.734,0,0,1,.75,11.863Z" transform="translate(429.75 189.297)" fill="#292d32"/>
      <path id="Vector-3" data-name="Vector" d="M2.923,5.6A2.879,2.879,0,0,1,.013,3.04,2.745,2.745,0,0,1,.833.81,2.727,2.727,0,0,1,2.793,0h2.08a1.775,1.775,0,0,1,1.75,1.77V3.83A1.77,1.77,0,0,1,4.9,5.6Zm1.93-4.1H2.8a1.229,1.229,0,0,0-.9.37,1.259,1.259,0,0,0-.39,1.04A1.394,1.394,0,0,0,2.923,4.1h1.96a.265.265,0,0,0,.25-.27V1.77A.278.278,0,0,0,4.853,1.5Z" transform="translate(444.677 200.2)" fill="#292d32"/>
      <path id="Vector-4" data-name="Vector" d="M7.75,1.5h-7A.755.755,0,0,1,0,.75.755.755,0,0,1,.75,0h7A.755.755,0,0,1,8.5.75.755.755,0,0,1,7.75,1.5Z" transform="translate(434.25 199.25)" fill="#292d32"/>
      <path id="Vector-5" data-name="Vector" d="M4.75,9.5A4.721,4.721,0,0,1,.69,7.19,4.612,4.612,0,0,1,0,4.75,4.712,4.712,0,0,1,1.78,1.04,4.753,4.753,0,0,1,9.5,4.75,4.672,4.672,0,0,1,8.81,7.2a4.225,4.225,0,0,1-.95,1.12A4.593,4.593,0,0,1,4.75,9.5Zm0-8A3.266,3.266,0,0,0,1.5,4.75a3.169,3.169,0,0,0,.47,1.67,3.224,3.224,0,0,0,4.91.77,2.879,2.879,0,0,0,.64-.76A3.148,3.148,0,0,0,8,4.75,3.256,3.256,0,0,0,4.75,1.5Z" transform="translate(428.25 202.25)" fill="#292d32"/>
      <path id="Vector-6" data-name="Vector" d="M2.857,3.607a.742.742,0,0,1-.53-.22L.218,1.277A.75.75,0,0,1,1.278.218l2.11,2.11a.754.754,0,0,1,0,1.06A.742.742,0,0,1,2.857,3.607Z" transform="translate(431.212 205.182)" fill="#292d32"/>
      <path id="Vector-7" data-name="Vector" d="M.747,3.608a.742.742,0,0,1-.53-.22.754.754,0,0,1,0-1.06L2.327.218a.75.75,0,1,1,1.06,1.06l-2.11,2.11A.742.742,0,0,1,.747,3.608Z" transform="translate(431.183 205.212)" fill="#292d32"/>
      <path id="Vector-8" data-name="Vector" d="M0,0H24V24H0Z" transform="translate(428 188)" fill="none" opacity="0"/>
    </g>
  </g>
</svg>
