<svg xmlns="http://www.w3.org/2000/svg" width="24" height="24" viewBox="0 0 24 24">
  <g id="vuesax_outline_empty-wallet-time" data-name="vuesax/outline/empty-wallet-time" transform="translate(-236 -252)">
    <g id="empty-wallet-time">
      <path id="Vector" d="M15.97,15.76H5.87a.753.753,0,0,1-.49-1.32A3.246,3.246,0,0,0,3.24,8.75a3.229,3.229,0,0,0-2.03.72.756.756,0,0,1-.79.09A.744.744,0,0,1,0,8.88V4.51A4.511,4.511,0,0,1,4.51,0H15.99A4.511,4.511,0,0,1,20.5,4.51V5.95a.755.755,0,0,1-.75.75H17.73a1.229,1.229,0,0,0-.9.37l-.01.01a1.262,1.262,0,0,0-.38,1.02,1.394,1.394,0,0,0,1.41,1.19h1.9a.755.755,0,0,1,.75.75v1.19A4.545,4.545,0,0,1,15.97,15.76Zm-8.56-1.5h8.56a3.013,3.013,0,0,0,3.01-3.01v-.44H17.83a2.879,2.879,0,0,1-2.91-2.56,2.815,2.815,0,0,1,2.79-3.04h1.27V4.52a3.013,3.013,0,0,0-3.01-3.01H4.49A3.013,3.013,0,0,0,1.48,4.52V7.6a4.738,4.738,0,0,1,6.5,4.41A4.728,4.728,0,0,1,7.41,14.26Z" transform="translate(237.77 258.99)" fill="#292d32"/>
      <path id="Vector-2" data-name="Vector" d="M.75,10.956a.755.755,0,0,1-.75-.75V6.536a3.61,3.61,0,0,1,2.32-3.37l7.94-3a2.661,2.661,0,0,1,3.59,2.48v3.8a.75.75,0,0,1-1.5,0v-3.8a1.139,1.139,0,0,0-.49-.94,1.168,1.168,0,0,0-1.07-.14l-7.94,3A2.081,2.081,0,0,0,1.5,6.536v3.67A.755.755,0,0,1,.75,10.956Z" transform="translate(237.75 253.304)" fill="#292d32"/>
      <path id="Vector-3" data-name="Vector" d="M2.923,5.6A2.879,2.879,0,0,1,.013,3.04,2.745,2.745,0,0,1,.833.81,2.727,2.727,0,0,1,2.793,0h2.08a1.775,1.775,0,0,1,1.75,1.77V3.83A1.77,1.77,0,0,1,4.9,5.6Zm1.93-4.1H2.8a1.229,1.229,0,0,0-.9.37,1.259,1.259,0,0,0-.39,1.04A1.394,1.394,0,0,0,2.923,4.1h1.96a.265.265,0,0,0,.25-.27V1.77A.278.278,0,0,0,4.853,1.5Z" transform="translate(252.677 264.2)" fill="#292d32"/>
      <path id="Vector-4" data-name="Vector" d="M7.75,1.5h-7A.755.755,0,0,1,0,.75.755.755,0,0,1,.75,0h7A.755.755,0,0,1,8.5.75.755.755,0,0,1,7.75,1.5Z" transform="translate(242.25 263.25)" fill="#292d32"/>
      <path id="Vector-5" data-name="Vector" d="M4.75,9.5A4.758,4.758,0,1,1,7.89,8.31,4.754,4.754,0,0,1,4.75,9.5Zm0-8a3.25,3.25,0,0,0,0,6.5A3.322,3.322,0,0,0,6.9,7.19,3.252,3.252,0,0,0,4.75,1.5Z" transform="translate(236.25 266.25)" fill="#292d32"/>
      <path id="Vector-6" data-name="Vector" d="M.746,3.75a.747.747,0,0,1-.38-1.39l.89-.53V.75a.75.75,0,1,1,1.5,0v1.5a.751.751,0,0,1-.36.64l-1.25.75A.757.757,0,0,1,.746,3.75Z" transform="translate(239.254 269)" fill="#292d32"/>
      <path id="Vector-7" data-name="Vector" d="M0,0H24V24H0Z" transform="translate(236 252)" fill="none" opacity="0"/>
    </g>
  </g>
</svg>
