<svg xmlns="http://www.w3.org/2000/svg" width="24" height="24" viewBox="0 0 24 24">
  <g id="vuesax_outline_empty-wallet" data-name="vuesax/outline/empty-wallet" transform="translate(-236 -188)">
    <g id="empty-wallet">
      <path id="Vector" d="M15.99,15.75H4.51A4.511,4.511,0,0,1,0,11.24V4.51A4.511,4.511,0,0,1,4.51,0H15.99A4.511,4.511,0,0,1,20.5,4.51V5.95a.755.755,0,0,1-.75.75H17.73a1.229,1.229,0,0,0-.9.37l-.01.01a1.262,1.262,0,0,0-.38,1.02,1.394,1.394,0,0,0,1.41,1.19h1.9a.755.755,0,0,1,.75.75v1.19A4.513,4.513,0,0,1,15.99,15.75ZM4.51,1.5A3.013,3.013,0,0,0,1.5,4.51v6.73a3.013,3.013,0,0,0,3.01,3.01H15.99A3.013,3.013,0,0,0,19,11.24V10.8H17.85a2.879,2.879,0,0,1-2.91-2.56A2.815,2.815,0,0,1,17.73,5.2H19V4.51A3.013,3.013,0,0,0,15.99,1.5Z" transform="translate(237.75 195)" fill="#292d32"/>
      <path id="Vector-2" data-name="Vector" d="M.75,11.863a.755.755,0,0,1-.75-.75V6.543a3.629,3.629,0,0,1,2.33-3.37l7.94-3a2.618,2.618,0,0,1,2.44.3,2.644,2.644,0,0,1,1.14,2.18v3.8a.75.75,0,0,1-1.5,0v-3.8a1.141,1.141,0,0,0-.5-.95,1.118,1.118,0,0,0-1.06-.13l-7.94,3a2.124,2.124,0,0,0-1.36,1.97v4.57A.734.734,0,0,1,.75,11.863Z" transform="translate(237.75 189.297)" fill="#292d32"/>
      <path id="Vector-3" data-name="Vector" d="M2.923,5.6A2.879,2.879,0,0,1,.013,3.04,2.745,2.745,0,0,1,.833.81,2.727,2.727,0,0,1,2.793,0h2.08a1.775,1.775,0,0,1,1.75,1.77V3.83A1.77,1.77,0,0,1,4.9,5.6Zm1.93-4.1H2.8a1.229,1.229,0,0,0-.9.37,1.259,1.259,0,0,0-.39,1.04A1.394,1.394,0,0,0,2.923,4.1h1.96a.265.265,0,0,0,.25-.27V1.77A.278.278,0,0,0,4.853,1.5Z" transform="translate(252.677 200.2)" fill="#292d32"/>
      <path id="Vector-4" data-name="Vector" d="M7.75,1.5h-7A.755.755,0,0,1,0,.75.755.755,0,0,1,.75,0h7A.755.755,0,0,1,8.5.75.755.755,0,0,1,7.75,1.5Z" transform="translate(242.25 199.25)" fill="#292d32"/>
      <path id="Vector-5" data-name="Vector" d="M0,0H24V24H0Z" transform="translate(236 188)" fill="none" opacity="0"/>
    </g>
  </g>
</svg>
