<svg xmlns="http://www.w3.org/2000/svg" width="24" height="24" viewBox="0 0 24 24">
  <g id="vuesax_outline_empty-wallet-change" data-name="vuesax/outline/empty-wallet-change" transform="translate(-428 -252)">
    <g id="empty-wallet-change">
      <path id="Vector" d="M16,15.75H10.52a.75.75,0,1,1,0-1.5H16a3.013,3.013,0,0,0,3.01-3.01V10.8H17.86a2.879,2.879,0,0,1-2.91-2.56A2.8,2.8,0,0,1,17.73,5.2H19V4.51A3.013,3.013,0,0,0,15.99,1.5H4.51A3.013,3.013,0,0,0,1.5,4.51V6.24a.755.755,0,0,1-.75.75A.755.755,0,0,1,0,6.24V4.51A4.511,4.511,0,0,1,4.51,0H15.99A4.511,4.511,0,0,1,20.5,4.51V5.95a.755.755,0,0,1-.75.75H17.73a1.229,1.229,0,0,0-.9.37,1.259,1.259,0,0,0-.39,1.04A1.394,1.394,0,0,0,17.85,9.3h1.9a.755.755,0,0,1,.75.75v1.19A4.5,4.5,0,0,1,16,15.75Z" transform="translate(429.74 259)" fill="#292d32"/>
      <path id="Vector-2" data-name="Vector" d="M.75,11.863a.755.755,0,0,1-.75-.75V6.543a3.629,3.629,0,0,1,2.33-3.37l7.94-3a2.618,2.618,0,0,1,2.44.3,2.644,2.644,0,0,1,1.14,2.18v3.8a.75.75,0,0,1-1.5,0v-3.8a1.141,1.141,0,0,0-.5-.95,1.118,1.118,0,0,0-1.06-.13l-7.94,3a2.124,2.124,0,0,0-1.36,1.97v4.57A.734.734,0,0,1,.75,11.863Z" transform="translate(429.75 253.297)" fill="#292d32"/>
      <path id="Vector-3" data-name="Vector" d="M2.923,5.6A2.879,2.879,0,0,1,.013,3.04,2.745,2.745,0,0,1,.833.81,2.727,2.727,0,0,1,2.793,0h2.08a1.775,1.775,0,0,1,1.75,1.77V3.83A1.77,1.77,0,0,1,4.9,5.6Zm1.93-4.1H2.8a1.229,1.229,0,0,0-.9.37,1.259,1.259,0,0,0-.39,1.04A1.394,1.394,0,0,0,2.923,4.1h1.96a.265.265,0,0,0,.25-.27V1.77A.278.278,0,0,0,4.853,1.5Z" transform="translate(444.677 264.2)" fill="#292d32"/>
      <path id="Vector-4" data-name="Vector" d="M7.75,1.5h-7A.755.755,0,0,1,0,.75.755.755,0,0,1,.75,0h7A.755.755,0,0,1,8.5.75.755.755,0,0,1,7.75,1.5Z" transform="translate(434.25 263.25)" fill="#292d32"/>
      <path id="Vector-5" data-name="Vector" d="M7.25,3.94a.755.755,0,0,1-.75-.75V1.91a.412.412,0,0,0-.41-.41H.75A.755.755,0,0,1,0,.75.755.755,0,0,1,.75,0H6.09A1.916,1.916,0,0,1,8,1.91V3.19A.755.755,0,0,1,7.25,3.94Z" transform="translate(430.25 267.75)" fill="#292d32"/>
      <path id="Vector-6" data-name="Vector" d="M1.967,3.937a.742.742,0,0,1-.53-.22L.218,2.5a.755.755,0,0,1,0-1.06L1.438.218A.75.75,0,0,1,2.5,1.277l-.69.69.69.69a.754.754,0,0,1,0,1.06A.742.742,0,0,1,1.967,3.937Z" transform="translate(430.252 266.532)" fill="#292d32"/>
      <path id="Vector-7" data-name="Vector" d="M7.25,3.94H1.91A1.916,1.916,0,0,1,0,2.03V.75A.755.755,0,0,1,.75,0,.755.755,0,0,1,1.5.75V2.03a.412.412,0,0,0,.41.41H7.25a.75.75,0,0,1,0,1.5Z" transform="translate(430.25 270.59)" fill="#292d32"/>
      <path id="Vector-8" data-name="Vector" d="M.747,3.937a.742.742,0,0,1-.53-.22.755.755,0,0,1,0-1.06l.69-.69-.69-.69A.75.75,0,0,1,1.277.218L2.5,1.437a.754.754,0,0,1,0,1.06l-1.22,1.22A.725.725,0,0,1,.747,3.937Z" transform="translate(435.533 271.813)" fill="#292d32"/>
      <path id="Vector-9" data-name="Vector" d="M0,0H24V24H0Z" transform="translate(428 252)" fill="none" opacity="0"/>
    </g>
  </g>
</svg>
