<svg xmlns="http://www.w3.org/2000/svg" width="24" height="24" viewBox="0 0 24 24">
  <g id="vuesax_outline_filter-search" data-name="vuesax/outline/filter-search" transform="translate(-492 -700)">
    <g id="filter-search">
      <path id="Vector" d="M8.38,21.48a2.918,2.918,0,0,1-1.4-.36,2.72,2.72,0,0,1-1.42-2.4V13.37a3.2,3.2,0,0,0-.64-1.65L1.12,7.73A4.077,4.077,0,0,1,0,5.19V2.87A2.793,2.793,0,0,1,2.77,0H16.11a2.77,2.77,0,0,1,2.77,2.77V4.99a4.51,4.51,0,0,1-1.23,2.85.75.75,0,0,1-1.06-1.06,3.065,3.065,0,0,0,.79-1.79V2.77A1.272,1.272,0,0,0,16.11,1.5H2.77A1.309,1.309,0,0,0,1.5,2.87V5.19a2.649,2.649,0,0,0,.69,1.49l3.85,4.05a4.615,4.615,0,0,1,1.01,2.64v5.35a1.22,1.22,0,0,0,.65,1.09,1.336,1.336,0,0,0,1.34-.01l1.4-.9a1.507,1.507,0,0,0,.57-1.09.75.75,0,0,1,1.5,0,2.981,2.981,0,0,1-1.27,2.36l-1.39.9A2.863,2.863,0,0,1,8.38,21.48Z" transform="translate(494.55 701.27)" fill="#292d32"/>
      <path id="Vector-2" data-name="Vector" d="M3.95,7.9A3.95,3.95,0,1,1,7.9,3.95,3.952,3.952,0,0,1,3.95,7.9Zm0-6.4A2.45,2.45,0,1,0,6.4,3.95,2.454,2.454,0,0,0,3.95,1.5Z" transform="translate(504.12 709.37)" fill="#292d32"/>
      <path id="Vector-3" data-name="Vector" d="M1.747,2.5a.742.742,0,0,1-.53-.22l-1-1A.75.75,0,0,1,1.277.218l1,1a.754.754,0,0,1,0,1.06A.767.767,0,0,1,1.747,2.5Z" transform="translate(510.123 715.372)" fill="#292d32"/>
      <path id="Vector-4" data-name="Vector" d="M0,0H24V24H0Z" transform="translate(516 724) rotate(180)" fill="none" opacity="0"/>
    </g>
  </g>
</svg>
