<svg xmlns="http://www.w3.org/2000/svg" width="24" height="24" viewBox="0 0 24 24">
  <g id="vuesax_outline_filter-add" data-name="vuesax/outline/filter-add" transform="translate(-428 -700)">
    <g id="filter-add">
      <path id="Vector" d="M5.5,11A5.5,5.5,0,0,1,.79,8.33,5.367,5.367,0,0,1,0,5.5a5.5,5.5,0,1,1,11,0,5.437,5.437,0,0,1-.8,2.84A5.473,5.473,0,0,1,5.5,11Zm0-9.5a4,4,0,0,0-4,4,3.873,3.873,0,0,0,.58,2.05A4,4,0,0,0,5.5,9.5,3.928,3.928,0,0,0,8.92,7.56,3.933,3.933,0,0,0,9.5,5.5,4,4,0,0,0,5.5,1.5Z" transform="translate(439.38 709.25)" fill="#292d32"/>
      <path id="Vector-2" data-name="Vector" d="M4.3,1.5H.75A.755.755,0,0,1,0,.75.755.755,0,0,1,.75,0H4.3a.755.755,0,0,1,.75.75A.755.755,0,0,1,4.3,1.5Z" transform="translate(442.36 713.98)" fill="#292d32"/>
      <path id="Vector-3" data-name="Vector" d="M.75,5.04A.755.755,0,0,1,0,4.29V.75A.755.755,0,0,1,.75,0,.755.755,0,0,1,1.5.75V4.3A.741.741,0,0,1,.75,5.04Z" transform="translate(444.13 712.25)" fill="#292d32"/>
      <path id="Vector-4" data-name="Vector" d="M0,0H24V24H0Z" transform="translate(452 724) rotate(180)" fill="none" opacity="0"/>
      <path id="Vector-5" data-name="Vector" d="M8.38,21.5a2.852,2.852,0,0,1-1.39-.36,2.735,2.735,0,0,1-1.42-2.41V13.38a3.164,3.164,0,0,0-.65-1.65L1.12,7.74A4.148,4.148,0,0,1,0,5.2V2.87A2.793,2.793,0,0,1,2.77,0H16.11a2.77,2.77,0,0,1,2.77,2.77V4.99a4.574,4.574,0,0,1-1.22,2.85l-1.8,1.59a.77.77,0,0,1-.67.17,3.436,3.436,0,0,0-.86-.1,4,4,0,0,0-4,4,3.933,3.933,0,0,0,.58,2.06,3.829,3.829,0,0,0,1.25,1.28.764.764,0,0,1,.36.64v.34a2.984,2.984,0,0,1-1.28,2.37l-1.38.89A2.814,2.814,0,0,1,8.38,21.5Zm-5.6-20A1.309,1.309,0,0,0,1.51,2.87V5.2a2.686,2.686,0,0,0,.7,1.5l3.85,4.05a4.652,4.652,0,0,1,1.02,2.64v5.35a1.258,1.258,0,0,0,.65,1.1,1.317,1.317,0,0,0,1.33-.01l1.4-.9a1.511,1.511,0,0,0,.56-1.03,5.519,5.519,0,0,1-2.19-4.37,5.509,5.509,0,0,1,6.32-5.44l1.48-1.31a3.111,3.111,0,0,0,.76-1.77V2.79a1.272,1.272,0,0,0-1.27-1.27H2.78Z" transform="translate(430.55 701.25)" fill="#292d32"/>
    </g>
  </g>
</svg>
