<svg xmlns="http://www.w3.org/2000/svg" width="24" height="24" viewBox="0 0 24 24">
  <g id="vuesax_outline_flash-circle" data-name="vuesax/outline/flash-circle" transform="translate(-556 -316)">
    <g id="flash-circle">
      <path id="Vector" d="M3.8,12.334a1.468,1.468,0,0,1-.5-.09,1.394,1.394,0,0,1-.91-1.31v-3.3h-.98a1.4,1.4,0,0,1-1.28-.82,1.379,1.379,0,0,1,.23-1.5L4.616.474a1.378,1.378,0,0,1,1.54-.38,1.394,1.394,0,0,1,.91,1.31V4.7h.99a1.4,1.4,0,0,1,1.28.82,1.379,1.379,0,0,1-.23,1.5l-4.26,4.84A1.443,1.443,0,0,1,3.8,12.334Zm-2.17-6.2h1.51a.755.755,0,0,1,.75.75v3.78l3.94-4.47H6.316a.755.755,0,0,1-.75-.75V1.664Z" transform="translate(563.274 321.836)" fill="#292d32"/>
      <path id="Vector-2" data-name="Vector" d="M10.75,21.5A10.75,10.75,0,1,1,21.5,10.75,10.765,10.765,0,0,1,10.75,21.5Zm0-20A9.25,9.25,0,1,0,20,10.75,9.261,9.261,0,0,0,10.75,1.5Z" transform="translate(557.22 317.25)" fill="#292d32"/>
      <path id="Vector-3" data-name="Vector" d="M0,0H24V24H0Z" transform="translate(556 316)" fill="none" opacity="0"/>
    </g>
  </g>
</svg>
