<svg xmlns="http://www.w3.org/2000/svg" width="24" height="24" viewBox="0 0 24 24">
  <g id="vuesax_outline_flash-slash" data-name="vuesax/outline/flash-slash" transform="translate(-492 -316)">
    <g id="flash-slash">
      <path id="Vector" d="M1.56,12.79a1.242,1.242,0,0,1-.48-.09C.68,12.55,0,12.06,0,10.51V8.07a.755.755,0,0,1,.75-.75.755.755,0,0,1,.75.75v2.44a1.587,1.587,0,0,0,.13.78,3.286,3.286,0,0,0,.57-.52l7.57-8.6a1.1,1.1,0,0,0,.32-.56,1.319,1.319,0,0,0-.62-.11H8.54A.755.755,0,0,1,7.79.75.755.755,0,0,1,8.54,0h.93a1.951,1.951,0,0,1,1.99,1,1.956,1.956,0,0,1-.56,2.16l-7.57,8.6A2.423,2.423,0,0,1,1.56,12.79Z" transform="translate(500.43 325.96)" fill="#292d32"/>
      <path id="Vector-2" data-name="Vector" d="M5.21,13.955a.755.755,0,0,1-.75-.75v-.43H2.12a1.951,1.951,0,0,1-1.99-1,1.956,1.956,0,0,1,.56-2.16l7.57-8.6c1.02-1.16,1.85-1.08,2.25-.93s1.08.64,1.08,2.19v5.31a.75.75,0,1,1-1.5,0V2.255a1.587,1.587,0,0,0-.13-.78,3.286,3.286,0,0,0-.57.52l-7.57,8.6a1.1,1.1,0,0,0-.32.56,1.319,1.319,0,0,0,.62.11H5.21a.755.755,0,0,1,.75.75v1.18A.758.758,0,0,1,5.21,13.955Z" transform="translate(495.97 317.265)" fill="#292d32"/>
      <path id="Vector-3" data-name="Vector" d="M.747,21.5a.742.742,0,0,1-.53-.22.754.754,0,0,1,0-1.06l20-20a.75.75,0,0,1,1.06,1.06l-20,20A.742.742,0,0,1,.747,21.5Z" transform="translate(493.253 317.253)" fill="#292d32"/>
      <path id="Vector-4" data-name="Vector" d="M0,0H24V24H0Z" transform="translate(492 316)" fill="none" opacity="0"/>
    </g>
  </g>
</svg>
