<svg xmlns="http://www.w3.org/2000/svg" width="24" height="24" viewBox="0 0 24 24">
  <g id="vuesax_outline_forbidden-2" data-name="vuesax/outline/forbidden-2" transform="translate(-108 -700)">
    <g id="forbidden-2">
      <path id="Vector" d="M13.65,21.5H7.85A4.132,4.132,0,0,1,5.2,20.4L1.1,16.3A4.176,4.176,0,0,1,0,13.65V7.85A4.132,4.132,0,0,1,1.1,5.2L5.2,1.1A4.176,4.176,0,0,1,7.85,0h5.8A4.132,4.132,0,0,1,16.3,1.1l4.1,4.1a4.176,4.176,0,0,1,1.1,2.65v5.8a4.132,4.132,0,0,1-1.1,2.65l-4.1,4.1A4.154,4.154,0,0,1,13.65,21.5Zm-5.8-20a2.666,2.666,0,0,0-1.59.66l-4.1,4.1A2.756,2.756,0,0,0,1.5,7.85v5.8a2.666,2.666,0,0,0,.66,1.59l4.1,4.1A2.756,2.756,0,0,0,7.85,20h5.8a2.666,2.666,0,0,0,1.59-.66l4.1-4.1A2.756,2.756,0,0,0,20,13.65V7.85a2.666,2.666,0,0,0-.66-1.59l-4.1-4.1a2.756,2.756,0,0,0-1.59-.66Z" transform="translate(109.25 701.25)" fill="#292d32"/>
      <path id="Vector-2" data-name="Vector" d="M.747,8.5a.742.742,0,0,1-.53-.22.754.754,0,0,1,0-1.06l7-7a.75.75,0,0,1,1.06,1.06l-7,7A.742.742,0,0,1,.747,8.5Z" transform="translate(115.752 707.753)" fill="#292d32"/>
      <path id="Vector-3" data-name="Vector" d="M7.747,8.5a.742.742,0,0,1-.53-.22l-7-7A.75.75,0,0,1,1.277.218l7,7a.754.754,0,0,1,0,1.06A.742.742,0,0,1,7.747,8.5Z" transform="translate(115.752 707.753)" fill="#292d32"/>
      <path id="Vector-4" data-name="Vector" d="M0,0H24V24H0Z" transform="translate(108 700)" fill="none" opacity="0"/>
    </g>
  </g>
</svg>
