<svg xmlns="http://www.w3.org/2000/svg" width="24" height="24" viewBox="0 0 24 24">
  <g id="vuesax_outline_ghost" data-name="vuesax/outline/ghost" transform="translate(-428 -636)">
    <g id="ghost">
      <path id="Vector" d="M14.09,21.5a1.76,1.76,0,0,1-1.18-.45l-2-1.83a.285.285,0,0,0-.33,0L8.59,21.05a1.748,1.748,0,0,1-2.35,0l-2-1.83a.285.285,0,0,0-.33,0l-.99.91a1.766,1.766,0,0,1-1.98.54A1.8,1.8,0,0,1,0,18.82V10.93A10.85,10.85,0,0,1,10.75,0,10.85,10.85,0,0,1,21.5,10.93v7.89c0,1.25-.59,1.7-.94,1.85a1.784,1.784,0,0,1-1.98-.54l-1-.91a.27.27,0,0,0-.32,0l-2,1.83A1.7,1.7,0,0,1,14.09,21.5Zm-3.33-3.84a1.717,1.717,0,0,1,1.17.45l2,1.83a.27.27,0,0,0,.32,0l2-1.83a1.759,1.759,0,0,1,2.35,0l1,.91a1.106,1.106,0,0,0,.35.24,1.23,1.23,0,0,0,.06-.45V10.92a9.352,9.352,0,0,0-9.25-9.43,9.352,9.352,0,0,0-9.25,9.43v7.89a1.512,1.512,0,0,0,.06.45,1.181,1.181,0,0,0,.35-.24l1-.91a1.759,1.759,0,0,1,2.35,0l2,1.83a.27.27,0,0,0,.32,0l2-1.83A1.717,1.717,0,0,1,10.76,17.66Z" transform="translate(429.24 637.25)" fill="#292d32"/>
      <path id="Vector-2" data-name="Vector" d="M4.75,2.82A7.423,7.423,0,0,1,.3,1.35.75.75,0,0,1,1.2.15a5.94,5.94,0,0,0,7.1,0,.75.75,0,0,1,.9,1.2A7.423,7.423,0,0,1,4.75,2.82Z" transform="translate(435.25 649.25)" fill="#292d32"/>
      <path id="Vector-3" data-name="Vector" d="M2.75,5.5A2.75,2.75,0,1,1,5.5,2.75,2.748,2.748,0,0,1,2.75,5.5Zm0-4A1.25,1.25,0,1,0,4,2.75,1.25,1.25,0,0,0,2.75,1.5Z" transform="translate(437.25 642.25)" fill="#292d32"/>
      <path id="Vector-4" data-name="Vector" d="M0,0H24V24H0Z" transform="translate(428 636)" fill="none" opacity="0"/>
    </g>
  </g>
</svg>
