<svg xmlns="http://www.w3.org/2000/svg" width="24" height="24" viewBox="0 0 24 24">
  <g id="vuesax_outline_glass" data-name="vuesax/outline/glass" transform="translate(-364 -508)">
    <g id="glass">
      <path id="Vector" d="M4.75,1.5h-4A.755.755,0,0,1,0,.75.755.755,0,0,1,.75,0h4A.755.755,0,0,1,5.5.75.755.755,0,0,1,4.75,1.5Z" transform="translate(373.25 524.75)" fill="#292d32"/>
      <path id="Vector-2" data-name="Vector" d="M.75,16.5A.755.755,0,0,1,0,15.75v-10C0,1.34,1.34,0,5.75,0A.755.755,0,0,1,6.5.75a.755.755,0,0,1-.75.75c-3.57,0-4.25.67-4.25,4.25v10A.755.755,0,0,1,.75,16.5Z" transform="translate(365.25 509.75)" fill="#292d32"/>
      <path id="Vector-3" data-name="Vector" d="M5.75,16.5A.755.755,0,0,1,5,15.75v-10C5,2.17,4.32,1.5.75,1.5A.755.755,0,0,1,0,.75.755.755,0,0,1,.75,0C5.16,0,6.5,1.34,6.5,5.75v10A.755.755,0,0,1,5.75,16.5Z" transform="translate(380.25 509.75)" fill="#292d32"/>
      <path id="Vector-4" data-name="Vector" d="M5.95,10.39H3.55C1.13,10.39,0,9.26,0,6.84V3.55C0,1.13,1.13,0,3.55,0h2.4C8.37,0,9.5,1.13,9.5,3.55V6.84C9.5,9.26,8.37,10.39,5.95,10.39ZM3.55,1.5c-1.59,0-2.05.46-2.05,2.05V6.84c0,1.59.46,2.05,2.05,2.05h2.4C7.54,8.89,8,8.43,8,6.84V3.55C8,1.96,7.54,1.5,5.95,1.5Z" transform="translate(365.25 520.36)" fill="#292d32"/>
      <path id="Vector-5" data-name="Vector" d="M5.95,10.39H3.55C1.13,10.39,0,9.26,0,6.84V3.55C0,1.13,1.13,0,3.55,0h2.4C8.37,0,9.5,1.13,9.5,3.55V6.84C9.5,9.26,8.37,10.39,5.95,10.39ZM3.55,1.5c-1.59,0-2.05.46-2.05,2.05V6.84c0,1.59.46,2.05,2.05,2.05h2.4C7.54,8.89,8,8.43,8,6.84V3.55C8,1.96,7.54,1.5,5.95,1.5Z" transform="translate(377.25 520.36)" fill="#292d32"/>
      <path id="Vector-6" data-name="Vector" d="M0,0H24V24H0Z" transform="translate(364 508)" fill="none" opacity="0"/>
    </g>
  </g>
</svg>
