<svg xmlns="http://www.w3.org/2000/svg" width="24" height="24" viewBox="0 0 24 24">
  <g id="vuesax_outline_hashtag" data-name="vuesax/outline/hashtag" transform="translate(-684 -252)">
    <g id="hashtag">
      <path id="Vector" d="M.745,19.494H.665a.751.751,0,0,1-.66-.83l2-18A.758.758,0,0,1,2.835,0a.751.751,0,0,1,.66.83l-2,18A.755.755,0,0,1,.745,19.494Z" transform="translate(691.255 254.256)" fill="#292d32"/>
      <path id="Vector-2" data-name="Vector" d="M.745,19.494H.665a.751.751,0,0,1-.66-.83l2-18A.75.75,0,1,1,3.5.834l-2,18A.755.755,0,0,1,.745,19.494Z" transform="translate(697.255 254.256)" fill="#292d32"/>
      <path id="Vector-3" data-name="Vector" d="M18.75,1.5H.75A.755.755,0,0,1,0,.75.755.755,0,0,1,.75,0h18a.755.755,0,0,1,.75.75A.755.755,0,0,1,18.75,1.5Z" transform="translate(686.75 260.25)" fill="#292d32"/>
      <path id="Vector-4" data-name="Vector" d="M18.75,1.5H.75A.755.755,0,0,1,0,.75.755.755,0,0,1,.75,0h18a.755.755,0,0,1,.75.75A.755.755,0,0,1,18.75,1.5Z" transform="translate(685.75 266.25)" fill="#292d32"/>
      <path id="Vector-5" data-name="Vector" d="M0,0H24V24H0Z" transform="translate(684 252)" fill="none" opacity="0"/>
    </g>
  </g>
</svg>
