<svg xmlns="http://www.w3.org/2000/svg" width="24" height="24" viewBox="0 0 24 24">
  <g id="vuesax_outline_hashtag-down" data-name="vuesax/outline/hashtag-down" transform="translate(-748 -252)">
    <g id="hashtag-down">
      <path id="Vector" d="M12.75,21.5h-5C2.32,21.5,0,19.18,0,13.75v-6C0,2.32,2.32,0,7.75,0h6c5.43,0,7.75,2.32,7.75,7.75v4a.75.75,0,0,1-1.5,0v-4c0-4.61-1.64-6.25-6.25-6.25h-6C3.14,1.5,1.5,3.14,1.5,7.75v6C1.5,18.36,3.14,20,7.75,20h5a.75.75,0,0,1,0,1.5Z" transform="translate(749.25 253.25)" fill="#292d32"/>
      <path id="Vector-2" data-name="Vector" d="M.75,7.5A.755.755,0,0,1,0,6.75v-6A.755.755,0,0,1,.75,0,.755.755,0,0,1,1.5.75V4.94l.72-.72A.75.75,0,0,1,3.28,5.28l-2,2A.767.767,0,0,1,.75,7.5Z" transform="translate(766.25 267.25)" fill="#292d32"/>
      <path id="Vector-3" data-name="Vector" d="M2.748,3.5a.742.742,0,0,1-.53-.22l-2-2A.75.75,0,0,1,1.278.218l2,2a.754.754,0,0,1,0,1.06A.742.742,0,0,1,2.748,3.5Z" transform="translate(764.253 271.253)" fill="#292d32"/>
      <path id="Vector-4" data-name="Vector" d="M.745,10.975H.665a.751.751,0,0,1-.66-.83L1.045.665a.75.75,0,0,1,1.49.17l-1.05,9.47A.754.754,0,0,1,.745,10.975Z" transform="translate(756.155 257.515)" fill="#292d32"/>
      <path id="Vector-5" data-name="Vector" d="M.745,10.965H.665a.751.751,0,0,1-.66-.83L1.055.665a.75.75,0,0,1,1.49.17L1.5,10.305A.756.756,0,0,1,.745,10.965Z" transform="translate(759.305 257.525)" fill="#292d32"/>
      <path id="Vector-6" data-name="Vector" d="M10.22,1.5H.75A.755.755,0,0,1,0,.75.755.755,0,0,1,.75,0h9.47a.755.755,0,0,1,.75.75A.755.755,0,0,1,10.22,1.5Z" transform="translate(753.78 260.67)" fill="#292d32"/>
      <path id="Vector-7" data-name="Vector" d="M10.22,1.5H.75A.755.755,0,0,1,0,.75.755.755,0,0,1,.75,0h9.47a.75.75,0,0,1,0,1.5Z" transform="translate(753.25 263.83)" fill="#292d32"/>
      <path id="Vector-8" data-name="Vector" d="M0,0H24V24H0Z" transform="translate(748 252)" fill="none" opacity="0"/>
    </g>
  </g>
</svg>
