<svg xmlns="http://www.w3.org/2000/svg" width="24" height="24" viewBox="0 0 24 24">
  <g id="vuesax_outline_hierarchy-2" data-name="vuesax/outline/hierarchy-2" transform="translate(-300 -188)">
    <g id="hierarchy-2">
      <path id="Vector" d="M.75,8.5A.755.755,0,0,1,0,7.75v-7A.755.755,0,0,1,.75,0,.755.755,0,0,1,1.5.75v7A.755.755,0,0,1,.75,8.5Z" transform="translate(304.25 195.25)" fill="#292d32"/>
      <path id="Vector-2" data-name="Vector" d="M4,8A4,4,0,1,1,8,4,4,4,0,0,1,4,8ZM4,1.5A2.5,2.5,0,1,0,6.5,4,2.5,2.5,0,0,0,4,1.5Z" transform="translate(301.25 202.75)" fill="#292d32"/>
      <path id="Vector-3" data-name="Vector" d="M3.75,7.5A3.75,3.75,0,1,1,7.5,3.75,3.751,3.751,0,0,1,3.75,7.5Zm0-6A2.25,2.25,0,1,0,6,3.75,2.253,2.253,0,0,0,3.75,1.5Z" transform="translate(301.25 189.25)" fill="#292d32"/>
      <path id="Vector-4" data-name="Vector" d="M3.75,7.5A3.75,3.75,0,1,1,7.5,3.75,3.751,3.751,0,0,1,3.75,7.5Zm0-6A2.25,2.25,0,1,0,6,3.75,2.253,2.253,0,0,0,3.75,1.5Z" transform="translate(315.25 189.25)" fill="#292d32"/>
      <path id="Vector-5" data-name="Vector" d="M.753,8.533a1.366,1.366,0,0,1-.19-.02.749.749,0,0,1-.54-.91A4.8,4.8,0,0,1,4.673,4h.02l3.43.01h.02A5.237,5.237,0,0,0,13.083.5a.746.746,0,0,1,1.41.49,6.809,6.809,0,0,1-6.38,4.52L4.683,5.5h-.01a3.305,3.305,0,0,0-3.2,2.48A.739.739,0,0,1,.753,8.533Z" transform="translate(304.377 195.217)" fill="#292d32"/>
      <path id="Vector-6" data-name="Vector" d="M0,0H24V24H0Z" transform="translate(300 188)" fill="none" opacity="0"/>
    </g>
  </g>
</svg>
