<svg xmlns="http://www.w3.org/2000/svg" width="24" height="24" viewBox="0 0 24 24">
  <g id="vuesax_outline_hierarchy-3" data-name="vuesax/outline/hierarchy-3" transform="translate(-172 -252)">
    <g id="hierarchy-3">
      <path id="Vector" d="M3.75,7.5A3.75,3.75,0,1,1,7.5,3.75,3.751,3.751,0,0,1,3.75,7.5Zm0-6A2.25,2.25,0,1,0,6,3.75,2.253,2.253,0,0,0,3.75,1.5Z" transform="translate(173.25 253.25)" fill="#292d32"/>
      <path id="Vector-2" data-name="Vector" d="M3.75,7.5A3.75,3.75,0,1,1,7.5,3.75,3.751,3.751,0,0,1,3.75,7.5Zm0-6A2.25,2.25,0,1,0,6,3.75,2.253,2.253,0,0,0,3.75,1.5Z" transform="translate(187.25 260.25)" fill="#292d32"/>
      <path id="Vector-3" data-name="Vector" d="M3.75,7.5A3.75,3.75,0,1,1,7.5,3.75,3.751,3.751,0,0,1,3.75,7.5Zm0-6A2.25,2.25,0,1,0,6,3.75,2.253,2.253,0,0,0,3.75,1.5Z" transform="translate(173.25 267.25)" fill="#292d32"/>
      <path id="Vector-4" data-name="Vector" d="M.75,9.5A.755.755,0,0,1,0,8.75v-8A.755.755,0,0,1,.75,0,.755.755,0,0,1,1.5.75C1.5,2.94,2.56,4,4.75,4h7a.75.75,0,0,1,0,1.5h-7A4.971,4.971,0,0,1,1.5,4.49V8.75A.755.755,0,0,1,.75,9.5Z" transform="translate(176.25 259.25)" fill="#292d32"/>
      <path id="Vector-5" data-name="Vector" d="M0,0H24V24H0Z" transform="translate(172 252)" fill="none" opacity="0"/>
    </g>
  </g>
</svg>
