<svg xmlns="http://www.w3.org/2000/svg" width="24" height="24" viewBox="0 0 24 24">
  <g id="vuesax_outline_hierarchy" data-name="vuesax/outline/hierarchy" transform="translate(-236 -188)">
    <g id="hierarchy">
      <path id="Vector" d="M.75,8.5A.755.755,0,0,1,0,7.75v-7A.755.755,0,0,1,.75,0,.755.755,0,0,1,1.5.75v7A.755.755,0,0,1,.75,8.5Z" transform="translate(240.25 196.25)" fill="#292d32"/>
      <path id="Vector-2" data-name="Vector" d="M4,8A4,4,0,1,1,8,4,4,4,0,0,1,4,8ZM4,1.5A2.5,2.5,0,1,0,6.5,4,2.5,2.5,0,0,0,4,1.5Z" transform="translate(237.25 189.25)" fill="#292d32"/>
      <path id="Vector-3" data-name="Vector" d="M3.75,7.5A3.75,3.75,0,1,1,7.5,3.75,3.751,3.751,0,0,1,3.75,7.5Zm0-6A2.25,2.25,0,1,0,6,3.75,2.253,2.253,0,0,0,3.75,1.5Z" transform="translate(237.25 203.25)" fill="#292d32"/>
      <path id="Vector-4" data-name="Vector" d="M3.75,7.5A3.75,3.75,0,1,1,7.5,3.75,3.751,3.751,0,0,1,3.75,7.5Zm0-6A2.25,2.25,0,1,0,6,3.75,2.253,2.253,0,0,0,3.75,1.5Z" transform="translate(251.25 203.25)" fill="#292d32"/>
      <path id="Vector-5" data-name="Vector" d="M13.793,8.533a.751.751,0,0,1-.71-.5,5.227,5.227,0,0,0-4.94-3.51h-.02l-3.43.01h-.02A4.8,4.8,0,0,1,.023.933a.748.748,0,1,1,1.45-.37,3.305,3.305,0,0,0,3.2,2.48h.01l3.43-.01h.03a6.72,6.72,0,0,1,6.35,4.52.74.74,0,0,1-.46.95A1.967,1.967,0,0,1,13.793,8.533Z" transform="translate(240.377 196.257)" fill="#292d32"/>
      <path id="Vector-6" data-name="Vector" d="M0,0H24V24H0Z" transform="translate(236 188)" fill="none" opacity="0"/>
    </g>
  </g>
</svg>
