<svg xmlns="http://www.w3.org/2000/svg" width="24" height="24" viewBox="0 0 24 24">
  <g id="vuesax_outline_instagram" data-name="vuesax/outline/instagram" transform="translate(-300 -444)">
    <g id="instagram">
      <path id="Vector" d="M13.75,21.5h-6C2.32,21.5,0,19.18,0,13.75v-6C0,2.32,2.32,0,7.75,0h6c5.43,0,7.75,2.32,7.75,7.75v6C21.5,19.18,19.18,21.5,13.75,21.5Zm-6-20C3.14,1.5,1.5,3.14,1.5,7.75v6C1.5,18.36,3.14,20,7.75,20h6C18.36,20,20,18.36,20,13.75v-6c0-4.61-1.64-6.25-6.25-6.25Z" transform="translate(301.25 445.25)" fill="#292d32"/>
      <path id="Vector-2" data-name="Vector" d="M4.25,8.5A4.25,4.25,0,1,1,8.5,4.25,4.259,4.259,0,0,1,4.25,8.5Zm0-7A2.75,2.75,0,1,0,7,4.25,2.748,2.748,0,0,0,4.25,1.5Z" transform="translate(307.75 451.75)" fill="#292d32"/>
      <path id="Vector-3" data-name="Vector" d="M1,2a1,1,0,0,1-.38-.08,1.155,1.155,0,0,1-.33-.21,1.19,1.19,0,0,1-.22-.33A.986.986,0,0,1,0,1,.986.986,0,0,1,.07.621,1.268,1.268,0,0,1,.29.291,1.576,1.576,0,0,1,.44.171.757.757,0,0,1,.62.081.6.6,0,0,1,.81.021a1.006,1.006,0,0,1,.9.27,1.032,1.032,0,0,1,.21.33A1,1,0,0,1,2,1a1,1,0,0,1-.08.38,1.155,1.155,0,0,1-.21.33,1.155,1.155,0,0,1-.33.21A1,1,0,0,1,1,2Z" transform="translate(316 449.499)" fill="#292d32"/>
      <path id="Vector-4" data-name="Vector" d="M0,0H24V24H0Z" transform="translate(300 444)" fill="none" opacity="0"/>
    </g>
  </g>
</svg>
