<svg xmlns="http://www.w3.org/2000/svg" width="24" height="24" viewBox="0 0 24 24">
  <g id="vuesax_outline_key-square" data-name="vuesax/outline/key-square" transform="translate(-748 -188)">
    <g id="key-square">
      <path id="Vector" d="M13.75,21.5h-6C2.32,21.5,0,19.18,0,13.75v-6C0,2.32,2.32,0,7.75,0h6c5.43,0,7.75,2.32,7.75,7.75v6C21.5,19.18,19.18,21.5,13.75,21.5Zm-6-20C3.14,1.5,1.5,3.14,1.5,7.75v6C1.5,18.36,3.14,20,7.75,20h6C18.36,20,20,18.36,20,13.75v-6c0-4.61-1.64-6.25-6.25-6.25Z" transform="translate(749.25 189.25)" fill="#292d32"/>
      <path id="Vector-2" data-name="Vector" d="M3.054,12.493a.82.82,0,0,1-.22-.02l-1.19-.16a1.773,1.773,0,0,1-1.46-1.46l-.17-1.21a1.863,1.863,0,0,1,.48-1.45l2.28-2.28a4.913,4.913,0,0,1,8.28-4.48A4.906,4.906,0,0,1,6.574,9.7l-2.29,2.28A1.765,1.765,0,0,1,3.054,12.493Zm4.53-11a3.375,3.375,0,0,0-2.41,1,3.424,3.424,0,0,0-.85,3.43.745.745,0,0,1-.19.75l-2.58,2.58a.546.546,0,0,0-.06.18l.17,1.2a.319.319,0,0,0,.18.18l1.2.17a.478.478,0,0,0,.18-.06l2.59-2.59a.746.746,0,0,1,.75-.18,3.4,3.4,0,0,0,3.42-5.66A3.377,3.377,0,0,0,7.584,1.492Z" transform="translate(753.756 193.758)" fill="#292d32"/>
      <path id="Vector-3" data-name="Vector" d="M1.607,2.358a.742.742,0,0,1-.53-.22l-.86-.86A.75.75,0,0,1,1.277.218l.86.86a.754.754,0,0,1,0,1.06A.71.71,0,0,1,1.607,2.358Z" transform="translate(756.843 202.673)" fill="#292d32"/>
      <path id="Vector-4" data-name="Vector" d="M1.01,2a1,1,0,0,1-.39-.07,1.016,1.016,0,0,1-.32-.22A1,1,0,0,1,0,1,.976.976,0,0,1,.3.3a.978.978,0,0,1,.9-.28,1.389,1.389,0,0,1,.19.06c.06.03.12.06.17.09A.934.934,0,0,1,1.71.3a.976.976,0,0,1,.3.7,1.046,1.046,0,0,1-.08.39.875.875,0,0,1-.22.32A.984.984,0,0,1,1.01,2Z" transform="translate(760.37 197.799)" fill="#292d32"/>
      <path id="Vector-5" data-name="Vector" d="M0,0H24V24H0Z" transform="translate(748 188)" fill="none" opacity="0"/>
    </g>
  </g>
</svg>
