<svg xmlns="http://www.w3.org/2000/svg" width="24" height="24" viewBox="0 0 24 24">
  <g id="vuesax_outline_key" data-name="vuesax/outline/key" transform="translate(-684 -188)">
    <g id="key">
      <path id="Vector" d="M4.929,21.486a2.832,2.832,0,0,1-.3-.02l-2.17-.3a2.626,2.626,0,0,1-2.14-2.13l-.3-2.19a2.758,2.758,0,0,1,.7-2.12l4.39-4.39a8.335,8.335,0,1,1,6.05,6.03l-4.4,4.39A2.692,2.692,0,0,1,4.929,21.486ZM13.179,1.5a6.821,6.821,0,0,0-6.52,8.84.745.745,0,0,1-.19.75l-4.7,4.7a1.291,1.291,0,0,0-.28.84l.3,2.19a1.147,1.147,0,0,0,.85.86l2.18.3a1.239,1.239,0,0,0,.85-.27L10.389,15a.746.746,0,0,1,.75-.18,6.819,6.819,0,0,0,6.84-11.33A6.727,6.727,0,0,0,13.179,1.5Z" transform="translate(685.251 189.264)" fill="#292d32"/>
      <path id="Vector-2" data-name="Vector" d="M3.047,3.8a.742.742,0,0,1-.53-.22l-2.3-2.3A.75.75,0,0,1,1.277.218l2.3,2.3a.754.754,0,0,1,0,1.06A.742.742,0,0,1,3.047,3.8Z" transform="translate(690.143 204.742)" fill="#292d32"/>
      <path id="Vector-3" data-name="Vector" d="M2.25,4.5A2.25,2.25,0,1,1,4.5,2.25,2.253,2.253,0,0,1,2.25,4.5Zm0-3A.75.75,0,1,0,3,2.25.755.755,0,0,0,2.25,1.5Z" transform="translate(696.25 195.25)" fill="#292d32"/>
      <path id="Vector-4" data-name="Vector" d="M0,0H24V24H0Z" transform="translate(684 188)" fill="none" opacity="0"/>
    </g>
  </g>
</svg>
