<svg xmlns="http://www.w3.org/2000/svg" width="24" height="24" viewBox="0 0 24 24">
  <g id="vuesax_outline_level" data-name="vuesax/outline/level" transform="translate(-620 -572)">
    <g id="level">
      <path id="Vector" d="M10.544,9.484A10.786,10.786,0,0,1,.014.9a.76.76,0,0,1,.58-.89.76.76,0,0,1,.89.58,9.286,9.286,0,0,0,9.06,7.39A9.287,9.287,0,0,0,19.6.634a.751.751,0,0,1,1.47.31A10.806,10.806,0,0,1,10.544,9.484Z" transform="translate(621.456 585.266)" fill="#292d32"/>
      <path id="Vector-2" data-name="Vector" d="M20.358,9.57a.747.747,0,0,1-.73-.61,9.252,9.252,0,0,0-18.14-.07.748.748,0,0,1-.89.58.74.74,0,0,1-.58-.89,10.753,10.753,0,0,1,21.08.09.752.752,0,0,1-.59.88A.389.389,0,0,1,20.358,9.57Z" transform="translate(621.452 573.24)" fill="#292d32"/>
      <path id="Vector-3" data-name="Vector" d="M2.25,4.5A2.25,2.25,0,1,1,4.5,2.25,2.253,2.253,0,0,1,2.25,4.5Zm0-3A.75.75,0,1,0,3,2.25.755.755,0,0,0,2.25,1.5Z" transform="translate(629.75 581.75)" fill="#292d32"/>
      <path id="Vector-4" data-name="Vector" d="M0,0H24V24H0Z" transform="translate(620 572)" fill="none" opacity="0"/>
    </g>
  </g>
</svg>
