<svg xmlns="http://www.w3.org/2000/svg" width="24" height="24" viewBox="0 0 24 24">
  <g id="vuesax_outline_lock-slash" data-name="vuesax/outline/lock-slash" transform="translate(-300 -252)">
    <g id="lock-slash">
      <path id="Vector" d="M2.734,5.514a3.221,3.221,0,0,1-2.58-1.27.749.749,0,0,1,1.19-.91,1.715,1.715,0,0,0,1.39.68,1.758,1.758,0,0,0,1.75-1.75,1.679,1.679,0,0,0-.36-1.06.749.749,0,0,1,1.19-.91,3.192,3.192,0,0,1,.67,1.97A3.256,3.256,0,0,1,2.734,5.514Z" transform="translate(309.266 265.736)" fill="#292d32"/>
      <path id="Vector-2" data-name="Vector" d="M15.75,13.5h-10q-.555,0-1.05-.03a.757.757,0,0,1-.71-.79.764.764,0,0,1,.79-.71c.3.02.62.02.96.02h10c3.57,0,4.25-.68,4.25-4.25v-2c0-3.51-.74-4.08-3.29-4.23-.3-.02-.62-.02-.96-.02H5.75c-3.57,0-4.25.68-4.25,4.25v2c0,1.74.2,2.77.66,3.33A.747.747,0,1,1,.99,12C.29,11.15,0,9.91,0,7.75v-2C0,1.34,1.34,0,5.75,0h10c.37,0,.72.01,1.04.03,3.96.22,4.71,2.18,4.71,5.72v2C21.5,12.16,20.16,13.5,15.75,13.5Z" transform="translate(301.25 261.25)" fill="#292d32"/>
      <path id="Vector-3" data-name="Vector" d="M.75,9.5A.755.755,0,0,1,0,8.75v-2C0,3.85.7,0,6.75,0c4.07,0,6.18,1.33,6.64,4.19a.75.75,0,1,1-1.48.24C11.66,2.91,10.87,1.5,6.75,1.5,2.39,1.5,1.5,3.6,1.5,6.75v2A.755.755,0,0,1,.75,9.5Z" transform="translate(305.25 253.25)" fill="#292d32"/>
      <path id="Vector-4" data-name="Vector" d="M.747,21.5a.742.742,0,0,1-.53-.22.754.754,0,0,1,0-1.06l20-20a.75.75,0,0,1,1.06,1.06l-20,20A.742.742,0,0,1,.747,21.5Z" transform="translate(301.253 253.253)" fill="#292d32"/>
      <path id="Vector-5" data-name="Vector" d="M0,0H24V24H0Z" transform="translate(300 252)" fill="none" opacity="0"/>
    </g>
  </g>
</svg>
