<svg xmlns="http://www.w3.org/2000/svg" width="24" height="24" viewBox="0 0 24 24">
  <g id="vuesax_outline_menu-board" data-name="vuesax/outline/menu-board" transform="translate(-172 -380)">
    <g id="menu-board">
      <path id="Vector" d="M16.139,19.55H3a3.007,3.007,0,0,1-2.86-3.9L4.349,2.12A2.982,2.982,0,0,1,7.209,0h12.3a2.974,2.974,0,0,1,2.76,1.84,3.039,3.039,0,0,1,.15,1.89l-3.37,13.53A2.976,2.976,0,0,1,16.139,19.55ZM7.219,1.51a1.5,1.5,0,0,0-1.43,1.06L1.579,16.1a1.511,1.511,0,0,0,.24,1.36,1.473,1.473,0,0,0,1.19.6h13.14a1.488,1.488,0,0,0,1.45-1.14l3.37-13.54a1.463,1.463,0,0,0-.07-.95,1.486,1.486,0,0,0-1.38-.93H7.219Z" transform="translate(172.241 383.2)" fill="#292d32"/>
      <path id="Vector-2" data-name="Vector" d="M5.53,17.5H.75a.75.75,0,0,1,0-1.5H5.53a1.472,1.472,0,0,0,1.46-1.58L6,.8A.749.749,0,0,1,6.69,0a.756.756,0,0,1,.8.69l.99,13.62a2.982,2.982,0,0,1-.79,2.24A2.907,2.907,0,0,1,5.53,17.5Z" transform="translate(187.25 385.249)" fill="#292d32"/>
      <path id="Vector-3" data-name="Vector" d="M.752,5.822a1.1,1.1,0,0,1-.18-.02.751.751,0,0,1-.55-.91L1.062.572a.752.752,0,1,1,1.46.36l-1.04,4.32A.748.748,0,0,1,.752,5.822Z" transform="translate(180.928 381.308)" fill="#292d32"/>
      <path id="Vector-4" data-name="Vector" d="M.754,5.845a.44.44,0,0,1-.16-.02.765.765,0,0,1-.58-.89L.954.595A.751.751,0,0,1,2.424.9l-.94,4.34A.738.738,0,0,1,.754,5.845Z" transform="translate(187.625 381.295)" fill="#292d32"/>
      <path id="Vector-5" data-name="Vector" d="M8.75,1.5h-8A.755.755,0,0,1,0,.75.755.755,0,0,1,.75,0h8A.755.755,0,0,1,9.5.75.755.755,0,0,1,8.75,1.5Z" transform="translate(178.95 391.25)" fill="#292d32"/>
      <path id="Vector-6" data-name="Vector" d="M8.75,1.5h-8A.755.755,0,0,1,0,.75.755.755,0,0,1,.75,0h8A.755.755,0,0,1,9.5.75.755.755,0,0,1,8.75,1.5Z" transform="translate(177.95 395.25)" fill="#292d32"/>
      <path id="Vector-7" data-name="Vector" d="M0,0H24V24H0Z" transform="translate(172 380)" fill="none" opacity="0"/>
    </g>
  </g>
</svg>
