<svg xmlns="http://www.w3.org/2000/svg" width="24" height="24" viewBox="0 0 24 24">
  <g id="vuesax_outline_message-programming" data-name="vuesax/outline/message-programming" transform="translate(-364 -252)">
    <g id="message-programming">
      <path id="Vector" d="M10.75,21.56a2.265,2.265,0,0,1-1.8-.96l-1.5-2a.473.473,0,0,0-.2-.1h-.5C2.58,18.5,0,17.37,0,11.75v-5C0,2.33,2.33,0,6.75,0h8c4.42,0,6.75,2.33,6.75,6.75v5c0,4.42-2.33,6.75-6.75,6.75h-.5a.261.261,0,0,0-.2.1l-1.5,2A2.265,2.265,0,0,1,10.75,21.56ZM6.75,1.5C3.17,1.5,1.5,3.17,1.5,6.75v5C1.5,16.27,3.05,17,6.75,17h.5a1.876,1.876,0,0,1,1.4.7l1.5,2a.694.694,0,0,0,1.2,0l1.5-2a1.752,1.752,0,0,1,1.4-.7h.5C18.33,17,20,15.33,20,11.75v-5c0-3.58-1.67-5.25-5.25-5.25Z" transform="translate(365.25 253.22)" fill="#292d32"/>
      <path id="Vector-2" data-name="Vector" d="M2.747,5.5a.742.742,0,0,1-.53-.22l-2-2a.754.754,0,0,1,0-1.06l2-2a.75.75,0,0,1,1.06,1.06l-1.47,1.47,1.47,1.47a.754.754,0,0,1,0,1.06A.742.742,0,0,1,2.747,5.5Z" transform="translate(369.252 259.952)" fill="#292d32"/>
      <path id="Vector-3" data-name="Vector" d="M.747,5.5a.742.742,0,0,1-.53-.22.754.754,0,0,1,0-1.06l1.47-1.47L.218,1.277A.75.75,0,0,1,1.277.218l2,2a.754.754,0,0,1,0,1.06l-2,2A.742.742,0,0,1,.747,5.5Z" transform="translate(379.252 259.952)" fill="#292d32"/>
      <path id="Vector-4" data-name="Vector" d="M.754,6.174a.8.8,0,0,1-.3-.06.745.745,0,0,1-.39-.99l2-4.67a.752.752,0,1,1,1.38.6l-2,4.67A.752.752,0,0,1,.754,6.174Z" transform="translate(374.246 259.606)" fill="#292d32"/>
      <path id="Vector-5" data-name="Vector" d="M0,0H24V24H0Z" transform="translate(364 252)" fill="none" opacity="0"/>
    </g>
  </g>
</svg>
