<svg xmlns="http://www.w3.org/2000/svg" width="24" height="24" viewBox="0 0 24 24">
  <g id="vuesax_outline_milk" data-name="vuesax/outline/milk" transform="translate(-364 -636)">
    <g id="milk">
      <path id="Vector" d="M9.75,9.52h-6A3.751,3.751,0,0,1,0,5.77V.75A.751.751,0,0,1,.75,0L4.64.02A5.474,5.474,0,0,1,7.08.6a3.959,3.959,0,0,0,1.79.42h3.88a.755.755,0,0,1,.75.75v4A3.751,3.751,0,0,1,9.75,9.52ZM1.5,1.5V5.77A2.253,2.253,0,0,0,3.75,8.02h6A2.253,2.253,0,0,0,12,5.77V2.52H8.87a5.4,5.4,0,0,1-2.46-.58,3.937,3.937,0,0,0-1.77-.42Z" transform="translate(369.25 649.23)" fill="#292d32"/>
      <path id="Vector-2" data-name="Vector" d="M12.75,11.5H8.87a5.4,5.4,0,0,1-2.46-.58,3.937,3.937,0,0,0-1.77-.42L.75,10.48A.755.755,0,0,1,0,9.73V6.58A3.027,3.027,0,0,1,.81,4.63L2.93,2.51A.261.261,0,0,0,3,2.34V.75A.755.755,0,0,1,3.75,0h6a.755.755,0,0,1,.75.75V2.34a.261.261,0,0,0,.07.17l2.12,2.12a3.027,3.027,0,0,1,.81,1.95v4.17A.755.755,0,0,1,12.75,11.5ZM1.5,8.98,4.64,9a5.474,5.474,0,0,1,2.44.58A3.959,3.959,0,0,0,8.87,10H12V6.58a1.568,1.568,0,0,0-.37-.89L9.51,3.57A1.758,1.758,0,0,1,9,2.34V1.5H4.5v.84a1.758,1.758,0,0,1-.51,1.23L1.87,5.69a1.568,1.568,0,0,0-.37.89Z" transform="translate(369.25 640.25)" fill="#292d32"/>
      <path id="Vector-3" data-name="Vector" d="M.75,2.5A.755.755,0,0,1,0,1.75v-1A.755.755,0,0,1,.75,0,.755.755,0,0,1,1.5.75v1A.755.755,0,0,1,.75,2.5Z" transform="translate(381.25 650.25)" fill="#292d32"/>
      <path id="Vector-4" data-name="Vector" d="M.75,2.5A.755.755,0,0,1,0,1.75v-1A.755.755,0,0,1,.75,0,.755.755,0,0,1,1.5.75v1A.755.755,0,0,1,.75,2.5Z" transform="translate(369.25 649.23)" fill="#292d32"/>
      <path id="Vector-5" data-name="Vector" d="M7.25,4.5h-5a2.25,2.25,0,0,1,0-4.5h5a2.25,2.25,0,0,1,0,4.5Zm-5-3a.75.75,0,0,0,0,1.5h5a.75.75,0,0,0,0-1.5Z" transform="translate(371.25 637.25)" fill="#292d32"/>
      <path id="Vector-6" data-name="Vector" d="M0,0H24V24H0Z" transform="translate(364 636)" fill="none" opacity="0"/>
    </g>
  </g>
</svg>
