<svg xmlns="http://www.w3.org/2000/svg" width="24" height="24" viewBox="0 0 24 24">
  <g id="vuesax_outline_mirror" data-name="vuesax/outline/mirror" transform="translate(-236 -636)">
    <g id="mirror">
      <path id="Vector" d="M8.75,17.5A8.75,8.75,0,1,1,17.5,8.75,8.76,8.76,0,0,1,8.75,17.5Zm0-16A7.25,7.25,0,1,0,16,8.75,7.255,7.255,0,0,0,8.75,1.5Z" transform="translate(239.25 637.25)" fill="#292d32"/>
      <path id="Vector-2" data-name="Vector" d="M12.75,1.5H.75A.755.755,0,0,1,0,.75.755.755,0,0,1,.75,0h12a.755.755,0,0,1,.75.75A.755.755,0,0,1,12.75,1.5Z" transform="translate(241.25 657.25)" fill="#292d32"/>
      <path id="Vector-3" data-name="Vector" d="M0,0H24V24H0Z" transform="translate(236 636)" fill="none" opacity="0"/>
    </g>
  </g>
</svg>
