<svg xmlns="http://www.w3.org/2000/svg" width="24" height="24" viewBox="0 0 24 24">
  <g id="vuesax_outline_mobile-programming" data-name="vuesax/outline/mobile-programming" transform="translate(-428 -252)">
    <g id="mobile-programming">
      <path id="Vector" d="M5.3,4.51H2.28A2.258,2.258,0,0,1,.03,2.3L0,.77A.756.756,0,0,1,.73,0H.75A.752.752,0,0,1,1.5.73l.03,1.53A.767.767,0,0,0,2.28,3H5.3a.749.749,0,0,0,.75-.75V.76a.75.75,0,0,1,1.5,0v1.5A2.253,2.253,0,0,1,5.3,4.51Z" transform="translate(436.2 253.24)" fill="#292d32"/>
      <path id="Vector-2" data-name="Vector" d="M2.747,5.5a.742.742,0,0,1-.53-.22l-2-2a.755.755,0,0,1,0-1.06l2-2a.75.75,0,0,1,1.06,1.06l-1.47,1.47,1.47,1.47a.755.755,0,0,1,0,1.06A.742.742,0,0,1,2.747,5.5Z" transform="translate(442.252 268.252)" fill="#292d32"/>
      <path id="Vector-3" data-name="Vector" d="M.747,5.5a.742.742,0,0,1-.53-.22.755.755,0,0,1,0-1.06l1.47-1.47L.218,1.278A.75.75,0,0,1,1.277.218l2,2a.755.755,0,0,1,0,1.06l-2,2A.742.742,0,0,1,.747,5.5Z" transform="translate(447.252 268.252)" fill="#292d32"/>
      <path id="Vector-4" data-name="Vector" d="M10.75,21.5h-5C2.1,21.5,0,19.4,0,15.75v-10C0,2.1,2.1,0,5.75,0h8C17.4,0,19.5,2.1,19.5,5.75v7a.75.75,0,0,1-1.5,0v-7c0-2.86-1.39-4.25-4.25-4.25h-8C2.89,1.5,1.5,2.89,1.5,5.75v10C1.5,18.61,2.89,20,5.75,20h5a.75.75,0,0,1,0,1.5Z" transform="translate(430.25 253.25)" fill="#292d32"/>
      <path id="Vector-5" data-name="Vector" d="M0,0H24V24H0Z" transform="translate(428 252)" fill="none" opacity="0"/>
    </g>
  </g>
</svg>
