<svg xmlns="http://www.w3.org/2000/svg" width="24" height="24" viewBox="0 0 24 24">
  <g id="vuesax_outline_money-recive" data-name="vuesax/outline/money-recive" transform="translate(-364 -444)">
    <g id="money-recive">
      <path id="Vector" d="M4.3,8.51H2.42A2.466,2.466,0,0,1,0,6.01a.755.755,0,0,1,.75-.75.755.755,0,0,1,.75.75.963.963,0,0,0,.92,1H4.3A.742.742,0,0,0,5,6.23c0-.54-.15-.62-.49-.74L1.5,4.44A2.042,2.042,0,0,1,0,2.28,2.25,2.25,0,0,1,2.2,0H4.08A2.466,2.466,0,0,1,6.5,2.5.75.75,0,0,1,5,2.5a.963.963,0,0,0-.92-1H2.2a.742.742,0,0,0-.7.78c0,.54.15.62.49.74L5,4.07A2.042,2.042,0,0,1,6.5,6.23,2.244,2.244,0,0,1,4.3,8.51Z" transform="translate(372.75 451.74)" fill="#292d32"/>
      <path id="Vector-2" data-name="Vector" d="M.75,10.5A.755.755,0,0,1,0,9.75v-9A.755.755,0,0,1,.75,0,.755.755,0,0,1,1.5.75v9A.755.755,0,0,1,.75,10.5Z" transform="translate(375.25 450.75)" fill="#292d32"/>
      <path id="Vector-3" data-name="Vector" d="M10.75,21.5a10.75,10.75,0,0,1,0-21.5.755.755,0,0,1,.75.75.755.755,0,0,1-.75.75A9.25,9.25,0,1,0,20,10.75a.75.75,0,0,1,1.5,0A10.759,10.759,0,0,1,10.75,21.5Z" transform="translate(365.25 445.25)" fill="#292d32"/>
      <path id="Vector-4" data-name="Vector" d="M4.75,5.5h-4A.755.755,0,0,1,0,4.75v-4A.755.755,0,0,1,.75,0,.755.755,0,0,1,1.5.75V4H4.75a.75.75,0,0,1,0,1.5Z" transform="translate(380.25 446.25)" fill="#292d32"/>
      <path id="Vector-5" data-name="Vector" d="M.747,6.5a.742.742,0,0,1-.53-.22.754.754,0,0,1,0-1.06l5-5a.75.75,0,0,1,1.06,1.06l-5,5A.742.742,0,0,1,.747,6.5Z" transform="translate(380.252 445.253)" fill="#292d32"/>
      <path id="Vector-6" data-name="Vector" d="M0,0H24V24H0Z" transform="translate(364 444)" fill="none" opacity="0"/>
    </g>
  </g>
</svg>
