<svg xmlns="http://www.w3.org/2000/svg" width="24" height="24" viewBox="0 0 24 24">
  <g id="vuesax_outline_money-remove" data-name="vuesax/outline/money-remove" transform="translate(-748 -316)">
    <g id="money-remove">
      <path id="Vector" d="M15.75,17.5H7.25a.75.75,0,0,1,0-1.5h8.5C18.61,16,20,14.61,20,11.75v-6c0-2.86-1.39-4.25-4.25-4.25h-10C2.89,1.5,1.5,2.89,1.5,5.75v6.3a.755.755,0,0,1-.75.75A.755.755,0,0,1,0,12.05V5.75C0,2.1,2.1,0,5.75,0h10C19.4,0,21.5,2.1,21.5,5.75v6C21.5,15.4,19.4,17.5,15.75,17.5Z" transform="translate(749.25 319.25)" fill="#292d32"/>
      <path id="Vector-2" data-name="Vector" d="M3.25,6.5A3.25,3.25,0,1,1,6.5,3.25,3.256,3.256,0,0,1,3.25,6.5Zm0-5A1.75,1.75,0,1,0,5,3.25,1.758,1.758,0,0,0,3.25,1.5Z" transform="translate(756.75 324.75)" fill="#292d32"/>
      <path id="Vector-3" data-name="Vector" d="M.75,6.5A.755.755,0,0,1,0,5.75v-5A.755.755,0,0,1,.75,0,.755.755,0,0,1,1.5.75v5A.755.755,0,0,1,.75,6.5Z" transform="translate(765.75 324.75)" fill="#292d32"/>
      <path id="Vector-4" data-name="Vector" d="M4.75,9.5A4.721,4.721,0,0,1,.69,7.19,4.612,4.612,0,0,1,0,4.75a4.75,4.75,0,0,1,9.5,0A4.672,4.672,0,0,1,8.81,7.2,4.734,4.734,0,0,1,4.75,9.5Zm0-8A3.256,3.256,0,0,0,1.5,4.75a3.169,3.169,0,0,0,.47,1.67,3.241,3.241,0,0,0,5.56.01A3.2,3.2,0,0,0,8,4.75,3.256,3.256,0,0,0,4.75,1.5Z" transform="translate(748.25 329.25)" fill="#292d32"/>
      <path id="Vector-5" data-name="Vector" d="M2.858,3.607a.742.742,0,0,1-.53-.22L.218,1.277A.75.75,0,0,1,1.277.218l2.11,2.11a.754.754,0,0,1,0,1.06A.742.742,0,0,1,2.858,3.607Z" transform="translate(751.212 332.182)" fill="#292d32"/>
      <path id="Vector-6" data-name="Vector" d="M.747,3.608a.742.742,0,0,1-.53-.22.754.754,0,0,1,0-1.06L2.327.218a.75.75,0,0,1,1.06,1.06l-2.11,2.11A.742.742,0,0,1,.747,3.608Z" transform="translate(751.183 332.212)" fill="#292d32"/>
      <path id="Vector-7" data-name="Vector" d="M0,0H24V24H0Z" transform="translate(748 316)" fill="none" opacity="0"/>
    </g>
  </g>
</svg>
