<svg xmlns="http://www.w3.org/2000/svg" width="24" height="24" viewBox="0 0 24 24">
  <g id="vuesax_outline_moneys" data-name="vuesax/outline/moneys" transform="translate(-108 -316)">
    <g id="moneys">
      <path id="Vector" d="M13.94,15.46H5.15a6.589,6.589,0,0,1-1.45-.15,3.74,3.74,0,0,1-.8-.22C1.57,14.59,0,13.36,0,10.3V5.15C0,1.88,1.88,0,5.15,0h8.79c2.76,0,4.54,1.32,5.02,3.72a7.1,7.1,0,0,1,.13,1.43V10.3C19.09,13.59,17.22,15.46,13.94,15.46ZM5.16,1.52c-2.46,0-3.65,1.19-3.65,3.65v5.15c0,1.79.63,2.89,1.92,3.38a3.448,3.448,0,0,0,.57.15,5.5,5.5,0,0,0,1.16.12h8.79c2.46,0,3.65-1.19,3.65-3.65V5.17a5.588,5.588,0,0,0-.1-1.13c-.34-1.7-1.5-2.52-3.55-2.52Z" transform="translate(108.95 318.76)" fill="#292d32"/>
      <path id="Vector-2" data-name="Vector" d="M13.825,15.33H5.035a6.3,6.3,0,0,1-2.26-.37,4.285,4.285,0,0,1-2.76-3.37.739.739,0,0,1,.21-.68.73.73,0,0,1,.69-.19,5.379,5.379,0,0,0,1.12.11h8.79c2.46,0,3.65-1.19,3.65-3.65V2.03a5.588,5.588,0,0,0-.1-1.13.769.769,0,0,1,.2-.68.717.717,0,0,1,.68-.2c2.4.49,3.72,2.27,3.72,5.01v5.15C18.975,13.46,17.1,15.33,13.825,15.33Zm-11.97-3a2.625,2.625,0,0,0,1.46,1.23,4.949,4.949,0,0,0,1.73.27h8.79c2.46,0,3.65-1.19,3.65-3.65V5.03c0-1.58-.49-2.63-1.5-3.18V7.18c0,3.27-1.88,5.15-5.15,5.15H1.855Z" transform="translate(112.065 321.89)" fill="#292d32"/>
      <path id="Vector-3" data-name="Vector" d="M3.39,6.78A3.39,3.39,0,1,1,6.78,3.39,3.393,3.393,0,0,1,3.39,6.78Zm0-5.28A1.89,1.89,0,1,0,5.28,3.39,1.895,1.895,0,0,0,3.39,1.5Z" transform="translate(115.11 323.11)" fill="#292d32"/>
      <path id="Vector-4" data-name="Vector" d="M.75,5.9A.755.755,0,0,1,0,5.15V.75A.755.755,0,0,1,.75,0,.755.755,0,0,1,1.5.75v4.4A.749.749,0,0,1,.75,5.9Z" transform="translate(112.03 323.55)" fill="#292d32"/>
      <path id="Vector-5" data-name="Vector" d="M.75,5.9A.755.755,0,0,1,0,5.15V.75A.755.755,0,0,1,.75,0,.755.755,0,0,1,1.5.75v4.4A.749.749,0,0,1,.75,5.9Z" transform="translate(123.46 323.55)" fill="#292d32"/>
      <path id="Vector-6" data-name="Vector" d="M0,0H24V24H0Z" transform="translate(108 316)" fill="none" opacity="0"/>
    </g>
  </g>
</svg>
