<svg xmlns="http://www.w3.org/2000/svg" width="24" height="24" viewBox="0 0 24 24">
  <g id="vuesax_outline_money" data-name="vuesax/outline/money" transform="translate(-172 -252)">
    <g id="money">
      <path id="Vector" d="M15.75,18.5h-10C2.1,18.5,0,16.4,0,12.75v-7C0,2.1,2.1,0,5.75,0h10C19.4,0,21.5,2.1,21.5,5.75v7C21.5,16.4,19.4,18.5,15.75,18.5Zm-10-17C2.89,1.5,1.5,2.89,1.5,5.75v7C1.5,15.61,2.89,17,5.75,17h10C18.61,17,20,15.61,20,12.75v-7c0-2.86-1.39-4.25-4.25-4.25Z" transform="translate(173.25 254.75)" fill="#292d32"/>
      <path id="Vector-2" data-name="Vector" d="M3.75,7.5A3.75,3.75,0,1,1,7.5,3.75,3.751,3.751,0,0,1,3.75,7.5Zm0-6A2.25,2.25,0,1,0,6,3.75,2.253,2.253,0,0,0,3.75,1.5Z" transform="translate(180.25 260.25)" fill="#292d32"/>
      <path id="Vector-3" data-name="Vector" d="M.75,6.5A.755.755,0,0,1,0,5.75v-5A.755.755,0,0,1,.75,0,.755.755,0,0,1,1.5.75v5A.755.755,0,0,1,.75,6.5Z" transform="translate(176.75 260.75)" fill="#292d32"/>
      <path id="Vector-4" data-name="Vector" d="M.75,6.5A.755.755,0,0,1,0,5.75v-5A.755.755,0,0,1,.75,0,.755.755,0,0,1,1.5.75v5A.755.755,0,0,1,.75,6.5Z" transform="translate(189.75 260.75)" fill="#292d32"/>
      <path id="Vector-5" data-name="Vector" d="M0,0H24V24H0Z" transform="translate(172 252)" fill="none" opacity="0"/>
    </g>
  </g>
</svg>
