<svg xmlns="http://www.w3.org/2000/svg" width="24" height="24" viewBox="0 0 24 24">
  <g id="vuesax_outline_money-change" data-name="vuesax/outline/money-change" transform="translate(-620 -380)">
    <g id="money-change">
      <path id="Vector" d="M15.75,17.5h-5a.75.75,0,0,1,0-1.5h5C18.61,16,20,14.61,20,11.75v-6c0-2.86-1.39-4.25-4.25-4.25h-10C2.89,1.5,1.5,2.89,1.5,5.75v2a.755.755,0,0,1-.75.75A.755.755,0,0,1,0,7.75v-2C0,2.1,2.1,0,5.75,0h10C19.4,0,21.5,2.1,21.5,5.75v6C21.5,15.4,19.4,17.5,15.75,17.5Z" transform="translate(621.25 383.25)" fill="#292d32"/>
      <path id="Vector-2" data-name="Vector" d="M3.25,6.5A3.25,3.25,0,1,1,6.5,3.25,3.256,3.256,0,0,1,3.25,6.5Zm0-5A1.75,1.75,0,1,0,5,3.25,1.758,1.758,0,0,0,3.25,1.5Z" transform="translate(628.75 388.75)" fill="#292d32"/>
      <path id="Vector-3" data-name="Vector" d="M.75,6.5A.755.755,0,0,1,0,5.75v-5A.755.755,0,0,1,.75,0,.755.755,0,0,1,1.5.75v5A.755.755,0,0,1,.75,6.5Z" transform="translate(637.75 388.75)" fill="#292d32"/>
      <path id="Vector-4" data-name="Vector" d="M7.25,3.94a.755.755,0,0,1-.75-.75V1.91a.412.412,0,0,0-.41-.41H.75A.755.755,0,0,1,0,.75.755.755,0,0,1,.75,0H6.09A1.916,1.916,0,0,1,8,1.91V3.19A.755.755,0,0,1,7.25,3.94Z" transform="translate(621.25 394.75)" fill="#292d32"/>
      <path id="Vector-5" data-name="Vector" d="M1.967,3.937a.742.742,0,0,1-.53-.22L.218,2.5a.755.755,0,0,1,0-1.06L1.438.218A.75.75,0,0,1,2.5,1.277l-.69.69.69.69a.754.754,0,0,1,0,1.06A.742.742,0,0,1,1.967,3.937Z" transform="translate(621.252 393.532)" fill="#292d32"/>
      <path id="Vector-6" data-name="Vector" d="M7.25,3.94H1.91A1.916,1.916,0,0,1,0,2.03V.75A.755.755,0,0,1,.75,0,.755.755,0,0,1,1.5.75V2.03a.412.412,0,0,0,.41.41H7.25a.75.75,0,0,1,0,1.5Z" transform="translate(621.25 397.59)" fill="#292d32"/>
      <path id="Vector-7" data-name="Vector" d="M.748,3.937a.742.742,0,0,1-.53-.22.755.755,0,0,1,0-1.06l.69-.69-.69-.69A.75.75,0,0,1,1.277.218L2.5,1.437a.754.754,0,0,1,0,1.06l-1.22,1.22A.725.725,0,0,1,.748,3.937Z" transform="translate(626.532 398.813)" fill="#292d32"/>
      <path id="Vector-8" data-name="Vector" d="M0,0H24V24H0Z" transform="translate(620 380)" fill="none" opacity="0"/>
    </g>
  </g>
</svg>
