<svg xmlns="http://www.w3.org/2000/svg" width="24" height="24" viewBox="0 0 24 24">
  <g id="vuesax_outline_mouse" data-name="vuesax/outline/mouse" transform="translate(-684 -636)">
    <g id="mouse">
      <path id="Vector" d="M4.307,11h-.02a2.328,2.328,0,0,1-2.23-1.65L.107,3.067A2.361,2.361,0,0,1,3.057.107l6.29,1.95a2.325,2.325,0,0,1,1.66,2.23A2.31,2.31,0,0,1,9.4,6.537l-1.72.58a.862.862,0,0,0-.54.53l-.59,1.73A2.328,2.328,0,0,1,4.307,11ZM2.337,1.5a.835.835,0,0,0-.59.25.85.85,0,0,0-.21.87L3.487,8.9a.827.827,0,0,0,.81.6.858.858,0,0,0,.81-.59l.59-1.73A2.367,2.367,0,0,1,7.177,5.7l1.72-.58h.01A.849.849,0,0,0,8.9,3.5l-6.29-1.95A.707.707,0,0,0,2.337,1.5Z" transform="translate(691.003 643.003)" fill="#292d32"/>
      <path id="Vector-2" data-name="Vector" d="M10.75,21.5A10.75,10.75,0,1,1,21.5,10.75,10.759,10.759,0,0,1,10.75,21.5Zm0-20A9.25,9.25,0,1,0,20,10.75,9.261,9.261,0,0,0,10.75,1.5Z" transform="translate(685.25 637.25)" fill="#292d32"/>
      <path id="Vector-3" data-name="Vector" d="M0,0H24V24H0Z" transform="translate(684 636)" fill="none" opacity="0"/>
    </g>
  </g>
</svg>
