<svg xmlns="http://www.w3.org/2000/svg" width="24" height="24" viewBox="0 0 24 24">
  <g id="vuesax_outline_mouse-square" data-name="vuesax/outline/mouse-square" transform="translate(-556 -636)">
    <g id="mouse-square">
      <path id="Vector" d="M10.75,21.5h-3C2.32,21.5,0,19.18,0,13.75v-6C0,2.32,2.32,0,7.75,0h6c5.43,0,7.75,2.32,7.75,7.75v3a.75.75,0,0,1-1.5,0v-3c0-4.61-1.64-6.25-6.25-6.25h-6C3.14,1.5,1.5,3.14,1.5,7.75v6C1.5,18.36,3.14,20,7.75,20h3a.75.75,0,0,1,0,1.5Z" transform="translate(557.25 637.25)" fill="#292d32"/>
      <path id="Vector-2" data-name="Vector" d="M4.123,10.5H4.1a2.229,2.229,0,0,1-2.15-1.6L.1,2.952A2.252,2.252,0,0,1,.673.662,2.272,2.272,0,0,1,2.943.1L8.9,1.952A2.241,2.241,0,0,1,10.5,4.1a2.232,2.232,0,0,1-1.56,2.17l-1.63.55a.742.742,0,0,0-.48.48l-.56,1.64A2.223,2.223,0,0,1,4.123,10.5Zm-1.86-9a.8.8,0,0,0-.53.22.767.767,0,0,0-.19.79l1.85,5.95a.736.736,0,0,0,.74.54.741.741,0,0,0,.73-.53l.56-1.64A2.284,2.284,0,0,1,6.853,5.4l1.63-.55a.734.734,0,0,0,.53-.73.747.747,0,0,0-.54-.73l-5.96-1.85A.855.855,0,0,0,2.263,1.5Z" transform="translate(568.247 648.268)" fill="#292d32"/>
      <path id="Vector-3" data-name="Vector" d="M0,0H24V24H0Z" transform="translate(556 636)" fill="none" opacity="0"/>
    </g>
  </g>
</svg>
