<svg xmlns="http://www.w3.org/2000/svg" width="24" height="24" viewBox="0 0 24 24">
  <g id="vuesax_outline_note-add" data-name="vuesax/outline/note-add" transform="translate(-364 -316)">
    <g id="note-add">
      <path id="Vector" d="M.75,6.5A.755.755,0,0,1,0,5.75v-5A.755.755,0,0,1,.75,0,.755.755,0,0,1,1.5.75v5A.755.755,0,0,1,.75,6.5Z" transform="translate(372.81 328.25)" fill="#292d32"/>
      <path id="Vector-2" data-name="Vector" d="M5.75,1.5h-5A.755.755,0,0,1,0,.75.755.755,0,0,1,.75,0h5A.755.755,0,0,1,6.5.75.755.755,0,0,1,5.75,1.5Z" transform="translate(370.25 330.75)" fill="#292d32"/>
      <path id="Vector-3" data-name="Vector" d="M.75,4.5A.755.755,0,0,1,0,3.75v-3A.755.755,0,0,1,.75,0,.755.755,0,0,1,1.5.75v3A.755.755,0,0,1,.75,4.5Z" transform="translate(371.25 317.25)" fill="#292d32"/>
      <path id="Vector-4" data-name="Vector" d="M.75,4.5A.755.755,0,0,1,0,3.75v-3A.755.755,0,0,1,.75,0,.755.755,0,0,1,1.5.75v3A.755.755,0,0,1,.75,4.5Z" transform="translate(379.25 317.25)" fill="#292d32"/>
      <path id="Vector-5" data-name="Vector" d="M6.664,20.13c-2.47,0-4.1-.54-5.12-1.7C.364,17.1.174,15.11.134,13.34L0,7.17C-.1,2.44,1.474.47,5.574.16L13.614,0h.04c4.11.14,5.75,2.04,5.85,6.78l.12,6.17c.04,1.77-.08,3.77-1.2,5.14-1.02,1.25-2.74,1.86-5.41,1.92l-6,.12Zm6.95-18.64-7.97.16c-2.8.22-4.23,1.12-4.14,5.49l.13,6.17c.04,2.12.35,3.36,1.03,4.13.76.86,2.13,1.24,4.33,1.19l6-.12c2.19-.04,3.55-.48,4.28-1.37.65-.79.91-2.04.86-4.16l-.12-6.17C17.914,2.45,16.454,1.59,13.614,1.49Z" transform="translate(366.186 318.68)" fill="#292d32"/>
      <path id="Vector-6" data-name="Vector" d="M0,0H24V24H0Z" transform="translate(364 316)" fill="none" opacity="0"/>
    </g>
  </g>
</svg>
