<svg xmlns="http://www.w3.org/2000/svg" width="24" height="24" viewBox="0 0 24 24">
  <g id="vuesax_outline_note-favorite" data-name="vuesax/outline/note-favorite" transform="translate(-108 -380)">
    <g id="note-favorite">
      <path id="Vector" d="M.75,4.5A.755.755,0,0,1,0,3.75v-3A.755.755,0,0,1,.75,0,.755.755,0,0,1,1.5.75v3A.755.755,0,0,1,.75,4.5Z" transform="translate(115.25 381.25)" fill="#292d32"/>
      <path id="Vector-2" data-name="Vector" d="M.75,4.5A.755.755,0,0,1,0,3.75v-3A.755.755,0,0,1,.75,0,.755.755,0,0,1,1.5.75v3A.755.755,0,0,1,.75,4.5Z" transform="translate(123.25 381.25)" fill="#292d32"/>
      <path id="Vector-3" data-name="Vector" d="M12.43,20H5.75C2.1,20,0,17.9,0,14.25V5.75C0,2.1,2.1,0,5.75,0h8C17.4,0,19.5,2.1,19.5,5.75v5.13a.773.773,0,0,1-.42.68.753.753,0,0,1-.79-.09,4.563,4.563,0,0,0-5.59.03,4.416,4.416,0,0,0-1.69,3.51,4.358,4.358,0,0,0,.65,2.31,4.463,4.463,0,0,0,1.22,1.33.76.76,0,0,1,.28.84A.791.791,0,0,1,12.43,20ZM5.75,1.5C2.89,1.5,1.5,2.89,1.5,5.75v8.5c0,2.86,1.39,4.25,4.25,4.25h4.89a3.622,3.622,0,0,1-.27-.41,5.956,5.956,0,0,1,1.39-7.77A6.1,6.1,0,0,1,18,9.55V5.75c0-2.86-1.39-4.25-4.25-4.25Z" transform="translate(110.25 382.75)" fill="#292d32"/>
      <path id="Vector-4" data-name="Vector" d="M6.75,1.5h-6A.755.755,0,0,1,0,.75.755.755,0,0,1,.75,0h6A.755.755,0,0,1,7.5.75.755.755,0,0,1,6.75,1.5Z" transform="translate(114.25 390.25)" fill="#292d32"/>
      <path id="Vector-5" data-name="Vector" d="M3.37,1.5H.75A.755.755,0,0,1,0,.75.755.755,0,0,1,.75,0H3.37a.75.75,0,0,1,0,1.5Z" transform="translate(114.25 395.25)" fill="#292d32"/>
      <path id="Vector-6" data-name="Vector" d="M6,11.955A5.981,5.981,0,0,1,.87,9.045a5.956,5.956,0,0,1,1.39-7.77,6.151,6.151,0,0,1,7.46-.03A5.956,5.956,0,0,1,12,5.955a5.861,5.861,0,0,1-.87,3.09,5.329,5.329,0,0,1-1.2,1.42A5.878,5.878,0,0,1,6,11.955Zm0-10.5a4.478,4.478,0,0,0-2.81.99A4.416,4.416,0,0,0,1.5,5.955a4.358,4.358,0,0,0,.65,2.31A4.517,4.517,0,0,0,6,10.455a4.373,4.373,0,0,0,2.95-1.12,3.957,3.957,0,0,0,.89-1.06,4.465,4.465,0,0,0-1.05-5.85A4.4,4.4,0,0,0,6,1.455Z" transform="translate(119.75 391.795)" fill="#292d32"/>
      <path id="Vector-7" data-name="Vector" d="M3.25,6.5a.755.755,0,0,1-.75-.75A1.758,1.758,0,0,0,.75,4a.75.75,0,0,1,0-1.5A1.758,1.758,0,0,0,2.5.75.75.75,0,0,1,4,.75,1.758,1.758,0,0,0,5.75,2.5a.75.75,0,0,1,0,1.5A1.758,1.758,0,0,0,4,5.75.755.755,0,0,1,3.25,6.5ZM2.82,3.25a3.493,3.493,0,0,1,.43.43,3.493,3.493,0,0,1,.43-.43,3.493,3.493,0,0,1-.43-.43A2.913,2.913,0,0,1,2.82,3.25Z" transform="translate(122.5 394.5)" fill="#292d32"/>
      <path id="Vector-8" data-name="Vector" d="M0,0H24V24H0Z" transform="translate(108 380)" fill="none" opacity="0"/>
    </g>
  </g>
</svg>
