<svg xmlns="http://www.w3.org/2000/svg" width="24" height="24" viewBox="0 0 24 24">
  <g id="vuesax_outline_note-text" data-name="vuesax/outline/note-text" transform="translate(-748 -316)">
    <g id="note-text">
      <path id="Vector" d="M.75,4.5A.755.755,0,0,1,0,3.75v-3A.755.755,0,0,1,.75,0,.755.755,0,0,1,1.5.75v3A.755.755,0,0,1,.75,4.5Z" transform="translate(755.25 317.25)" fill="#292d32"/>
      <path id="Vector-2" data-name="Vector" d="M.75,4.5A.755.755,0,0,1,0,3.75v-3A.755.755,0,0,1,.75,0,.755.755,0,0,1,1.5.75v3A.755.755,0,0,1,.75,4.5Z" transform="translate(763.25 317.25)" fill="#292d32"/>
      <path id="Vector-3" data-name="Vector" d="M13.75,20h-8C2.1,20,0,17.9,0,14.25V5.75C0,2.1,2.1,0,5.75,0h8C17.4,0,19.5,2.1,19.5,5.75v8.5C19.5,17.9,17.4,20,13.75,20Zm-8-18.5C2.89,1.5,1.5,2.89,1.5,5.75v8.5c0,2.86,1.39,4.25,4.25,4.25h8c2.86,0,4.25-1.39,4.25-4.25V5.75c0-2.86-1.39-4.25-4.25-4.25Z" transform="translate(750.25 318.75)" fill="#292d32"/>
      <path id="Vector-4" data-name="Vector" d="M8.75,1.5h-8A.755.755,0,0,1,0,.75.755.755,0,0,1,.75,0h8A.755.755,0,0,1,9.5.75.755.755,0,0,1,8.75,1.5Z" transform="translate(755.25 326.25)" fill="#292d32"/>
      <path id="Vector-5" data-name="Vector" d="M4.75,1.5h-4A.755.755,0,0,1,0,.75.755.755,0,0,1,.75,0h4A.755.755,0,0,1,5.5.75.755.755,0,0,1,4.75,1.5Z" transform="translate(755.25 331.25)" fill="#292d32"/>
      <path id="Vector-6" data-name="Vector" d="M0,0H24V24H0Z" transform="translate(748 316)" fill="none" opacity="0"/>
    </g>
  </g>
</svg>
