<svg xmlns="http://www.w3.org/2000/svg" width="24" height="24" viewBox="0 0 24 24">
  <g id="vuesax_outline_password-check" data-name="vuesax/outline/password-check" transform="translate(-556 -188)">
    <g id="password-check">
      <path id="Vector" d="M9.27,16.5H5.75a12.077,12.077,0,0,1-1.77-.1C.65,16.03,0,14.05,0,10.75v-5C0,2.45.66.46,4.01.09A13.109,13.109,0,0,1,5.75,0H9.21a.755.755,0,0,1,.75.75.755.755,0,0,1-.75.75H5.75a12.15,12.15,0,0,0-1.55.08c-2.03.22-2.7.86-2.7,4.17v5c0,3.31.67,3.94,2.67,4.17A11.262,11.262,0,0,0,5.75,15H9.27a.75.75,0,1,1,0,1.5Z" transform="translate(557.75 191.75)" fill="#292d32"/>
      <path id="Vector-2" data-name="Vector" d="M2.23,16.5H.75a.75.75,0,0,1,0-1.5H2.23a12.15,12.15,0,0,0,1.55-.08c2.03-.22,2.7-.86,2.7-4.17v-5c0-3.31-.67-3.94-2.67-4.17A11.262,11.262,0,0,0,2.23,1.5H.75A.755.755,0,0,1,0,.75.755.755,0,0,1,.75,0H2.23A12.077,12.077,0,0,1,4,.1C7.33.47,7.98,2.45,7.98,5.75v5c0,3.3-.66,5.29-4.01,5.66A13.109,13.109,0,0,1,2.23,16.5Z" transform="translate(570.27 191.75)" fill="#292d32"/>
      <path id="Vector-3" data-name="Vector" d="M.75,21.5A.755.755,0,0,1,0,20.75V.75A.755.755,0,0,1,.75,0,.755.755,0,0,1,1.5.75v20A.755.755,0,0,1,.75,21.5Z" transform="translate(570.25 189.25)" fill="#292d32"/>
      <path id="Vector-4" data-name="Vector" d="M1,1.988a1,1,0,0,1-.38-.08A1.155,1.155,0,0,1,.29,1.7a1.19,1.19,0,0,1-.22-.33A.986.986,0,0,1,0,.988,1.052,1.052,0,0,1,.29.278a1.047,1.047,0,0,1,1.42,0A1.052,1.052,0,0,1,2,.988a1,1,0,0,1-.08.38,1.155,1.155,0,0,1-.21.33,1.155,1.155,0,0,1-.33.21A1,1,0,0,1,1,1.988Z" transform="translate(561.7 199.012)" fill="#292d32"/>
      <path id="Vector-5" data-name="Vector" d="M1,1.988a1,1,0,0,1-.38-.08A1.155,1.155,0,0,1,.29,1.7a1.461,1.461,0,0,1-.22-.33A1.217,1.217,0,0,1,0,.988,1.052,1.052,0,0,1,.29.278a1.047,1.047,0,0,1,1.42,0A1.052,1.052,0,0,1,2,.988a1,1,0,0,1-.08.38,1.155,1.155,0,0,1-.21.33,1.155,1.155,0,0,1-.33.21A1,1,0,0,1,1,1.988Z" transform="translate(565.7 199.012)" fill="#292d32"/>
      <path id="Vector-6" data-name="Vector" d="M0,0H24V24H0Z" transform="translate(556 188)" fill="none" opacity="0"/>
    </g>
  </g>
</svg>
