<svg xmlns="http://www.w3.org/2000/svg" width="24" height="24" viewBox="0 0 24 24">
  <g id="vuesax_outline_percentage-square" data-name="vuesax/outline/percentage-square" transform="translate(-556 -252)">
    <g id="percentage-square">
      <path id="Vector" d="M13.75,21.5h-6C2.32,21.5,0,19.18,0,13.75v-6C0,2.32,2.32,0,7.75,0h6c5.43,0,7.75,2.32,7.75,7.75v6C21.5,19.18,19.18,21.5,13.75,21.5Zm-6-20C3.14,1.5,1.5,3.14,1.5,7.75v6C1.5,18.36,3.14,20,7.75,20h6C18.36,20,20,18.36,20,13.75v-6c0-4.61-1.64-6.25-6.25-6.25Z" transform="translate(557.25 253.25)" fill="#292d32"/>
      <path id="Vector-2" data-name="Vector" d="M.747,8.047a.742.742,0,0,1-.53-.22.754.754,0,0,1,0-1.06L6.767.218a.75.75,0,0,1,1.06,1.06l-6.55,6.55A.742.742,0,0,1,.747,8.047Z" transform="translate(563.822 259.973)" fill="#292d32"/>
      <path id="Vector-3" data-name="Vector" d="M1.98,3.96A1.98,1.98,0,1,1,3.96,1.98,1.985,1.985,0,0,1,1.98,3.96Zm0-2.45a.48.48,0,0,0-.48.48.48.48,0,0,0,.96,0A.48.48,0,0,0,1.98,1.51Z" transform="translate(563 259.15)" fill="#292d32"/>
      <path id="Vector-4" data-name="Vector" d="M1.98,3.96A1.98,1.98,0,1,1,3.96,1.98,1.985,1.985,0,0,1,1.98,3.96Zm0-2.45a.48.48,0,0,0-.48.48.48.48,0,1,0,.48-.48Z" transform="translate(569.54 264.88)" fill="#292d32"/>
      <path id="Vector-5" data-name="Vector" d="M0,0H24V24H0Z" transform="translate(556 252)" fill="none" opacity="0"/>
    </g>
  </g>
</svg>
