<svg xmlns="http://www.w3.org/2000/svg" width="24" height="24" viewBox="0 0 24 24">
  <g id="vuesax_outline_percentage-circle" data-name="vuesax/outline/percentage-circle" transform="translate(-684 -252)">
    <g id="percentage-circle">
      <path id="Vector" d="M.747,8.047a.742.742,0,0,1-.53-.22.754.754,0,0,1,0-1.06L6.767.218a.75.75,0,0,1,1.06,1.06l-6.55,6.55A.742.742,0,0,1,.747,8.047Z" transform="translate(691.822 259.973)" fill="#292d32"/>
      <path id="Vector-2" data-name="Vector" d="M1.98,3.96A1.98,1.98,0,1,1,3.96,1.98,1.985,1.985,0,0,1,1.98,3.96Zm0-2.45a.48.48,0,0,0-.48.48.48.48,0,0,0,.96,0A.48.48,0,0,0,1.98,1.51Z" transform="translate(691 259.15)" fill="#292d32"/>
      <path id="Vector-3" data-name="Vector" d="M1.98,3.96A1.98,1.98,0,1,1,3.96,1.98,1.985,1.985,0,0,1,1.98,3.96Zm0-2.45a.48.48,0,0,0-.48.48.48.48,0,1,0,.48-.48Z" transform="translate(697.54 264.88)" fill="#292d32"/>
      <path id="Vector-4" data-name="Vector" d="M10.75,21.5A10.75,10.75,0,1,1,21.5,10.75,10.759,10.759,0,0,1,10.75,21.5Zm0-20A9.25,9.25,0,1,0,20,10.75,9.261,9.261,0,0,0,10.75,1.5Z" transform="translate(685.25 253.25)" fill="#292d32"/>
      <path id="Vector-5" data-name="Vector" d="M0,0H24V24H0Z" transform="translate(684 252)" fill="none" opacity="0"/>
    </g>
  </g>
</svg>
