<svg xmlns="http://www.w3.org/2000/svg" width="24" height="24" viewBox="0 0 24 24">
  <g id="vuesax_outline_pet" data-name="vuesax/outline/pet" transform="translate(-428 -444)">
    <g id="pet">
      <path id="Vector" d="M10.393,13.5H5.6A5.531,5.531,0,0,1,.023,7.43,8.248,8.248,0,0,1,8.1,0a8.406,8.406,0,0,1,8,6.77,5.737,5.737,0,0,1-1.22,4.74A5.8,5.8,0,0,1,10.393,13.5Zm-2.3-12a6.73,6.73,0,0,0-6.58,6.06A4.024,4.024,0,0,0,5.593,12h4.79a4.284,4.284,0,0,0,3.33-1.45,4.291,4.291,0,0,0,.89-3.53A6.829,6.829,0,0,0,8.093,1.5Z" transform="translate(431.647 453.25)" fill="#292d32"/>
      <path id="Vector-2" data-name="Vector" d="M3.25,6.5A3.25,3.25,0,1,1,6.5,3.25,3.256,3.256,0,0,1,3.25,6.5Zm0-5A1.75,1.75,0,1,0,5,3.25,1.758,1.758,0,0,0,3.25,1.5Z" transform="translate(435.22 445.75)" fill="#292d32"/>
      <path id="Vector-3" data-name="Vector" d="M2.75,5.5A2.75,2.75,0,1,1,5.5,2.75,2.748,2.748,0,0,1,2.75,5.5Zm0-4A1.25,1.25,0,1,0,4,2.75,1.25,1.25,0,0,0,2.75,1.5Z" transform="translate(442.55 447.95)" fill="#292d32"/>
      <path id="Vector-4" data-name="Vector" d="M2.25,4.5A2.25,2.25,0,1,1,4.5,2.25,2.253,2.253,0,0,1,2.25,4.5Zm0-3A.75.75,0,1,0,3,2.25.755.755,0,0,0,2.25,1.5Z" transform="translate(446.75 452.95)" fill="#292d32"/>
      <path id="Vector-5" data-name="Vector" d="M2.75,5.5A2.75,2.75,0,1,1,5.5,2.75,2.748,2.748,0,0,1,2.75,5.5Zm0-4A1.25,1.25,0,1,0,4,2.75,1.25,1.25,0,0,0,2.75,1.5Z" transform="translate(429.22 449.95)" fill="#292d32"/>
      <path id="Vector-6" data-name="Vector" d="M0,0H24V24H0Z" transform="translate(428 444)" fill="none" opacity="0"/>
    </g>
  </g>
</svg>
