<svg xmlns="http://www.w3.org/2000/svg" width="24" height="24" viewBox="0 0 24 24">
  <g id="vuesax_outline_programming-arrows" data-name="vuesax/outline/programming-arrows" transform="translate(-236 -252)">
    <g id="programming-arrows">
      <path id="Vector" d="M8.25,13a.755.755,0,0,1-.75-.75V2.75A1.25,1.25,0,0,0,6.25,1.5H.75A.755.755,0,0,1,0,.75.755.755,0,0,1,.75,0h5.5A2.748,2.748,0,0,1,9,2.75v9.5A.755.755,0,0,1,8.25,13Z" transform="translate(246.75 255.75)" fill="#292d32"/>
      <path id="Vector-2" data-name="Vector" d="M3.75,6.5a.781.781,0,0,1-.48-.17l-3-2.5A.746.746,0,0,1,0,3.255a.761.761,0,0,1,.27-.58l3-2.5a.753.753,0,0,1,.96,1.16L1.92,3.255l2.31,1.92A.75.75,0,0,1,3.75,6.5Z" transform="translate(246.25 253.245)" fill="#292d32"/>
      <path id="Vector-3" data-name="Vector" d="M3.75,7.5A3.75,3.75,0,1,1,7.5,3.75,3.751,3.751,0,0,1,3.75,7.5Zm0-6A2.25,2.25,0,1,0,6,3.75,2.253,2.253,0,0,0,3.75,1.5Z" transform="translate(251.25 267.25)" fill="#292d32"/>
      <path id="Vector-4" data-name="Vector" d="M8.25,13H2.75A2.748,2.748,0,0,1,0,10.25V.75A.755.755,0,0,1,.75,0,.755.755,0,0,1,1.5.75v9.5A1.25,1.25,0,0,0,2.75,11.5h5.5a.75.75,0,0,1,0,1.5Z" transform="translate(240.25 259.25)" fill="#292d32"/>
      <path id="Vector-5" data-name="Vector" d="M.755,6.5a.759.759,0,0,1-.58-.27.749.749,0,0,1,.1-1.06l2.31-1.92L.275,1.331a.758.758,0,0,1-.1-1.06.758.758,0,0,1,1.06-.1l3,2.5a.746.746,0,0,1,.27.58.761.761,0,0,1-.27.58l-3,2.5A.781.781,0,0,1,.755,6.5Z" transform="translate(245.245 268.249)" fill="#292d32"/>
      <path id="Vector-6" data-name="Vector" d="M3.75,7.5A3.75,3.75,0,1,1,7.5,3.75,3.751,3.751,0,0,1,3.75,7.5Zm0-6A2.25,2.25,0,1,0,6,3.75,2.253,2.253,0,0,0,3.75,1.5Z" transform="translate(237.25 253.25)" fill="#292d32"/>
      <path id="Vector-7" data-name="Vector" d="M0,0H24V24H0Z" transform="translate(236 252)" fill="none" opacity="0"/>
    </g>
  </g>
</svg>
