<svg xmlns="http://www.w3.org/2000/svg" width="24" height="24" viewBox="0 0 24 24">
  <g id="vuesax_outline_programming-arrow" data-name="vuesax/outline/programming-arrow" transform="translate(-172 -188)">
    <g id="programming-arrow">
      <path id="Vector" d="M7.25,13a.755.755,0,0,1-.75-.75V2.75A1.25,1.25,0,0,0,5.25,1.5H.75A.755.755,0,0,1,0,.75.755.755,0,0,1,.75,0h4.5A2.748,2.748,0,0,1,8,2.75v9.5A.755.755,0,0,1,7.25,13Z" transform="translate(183.75 191.75)" fill="#292d32"/>
      <path id="Vector-2" data-name="Vector" d="M3.75,6.5a.781.781,0,0,1-.48-.17l-3-2.5A.746.746,0,0,1,0,3.255a.761.761,0,0,1,.27-.58l3-2.5a.753.753,0,1,1,.96,1.16L1.92,3.255l2.31,1.92A.75.75,0,0,1,3.75,6.5Z" transform="translate(183.25 189.245)" fill="#292d32"/>
      <path id="Vector-3" data-name="Vector" d="M.75,8.5A.755.755,0,0,1,0,7.75v-7A.755.755,0,0,1,.75,0,.755.755,0,0,1,1.5.75v7A.755.755,0,0,1,.75,8.5Z" transform="translate(176.25 196.25)" fill="#292d32"/>
      <path id="Vector-4" data-name="Vector" d="M4,8A4,4,0,1,1,8,4,4,4,0,0,1,4,8ZM4,1.5A2.5,2.5,0,1,0,6.5,4,2.5,2.5,0,0,0,4,1.5Z" transform="translate(173.25 189.25)" fill="#292d32"/>
      <path id="Vector-5" data-name="Vector" d="M3.75,7.5A3.75,3.75,0,1,1,7.5,3.75,3.751,3.751,0,0,1,3.75,7.5Zm0-6A2.25,2.25,0,1,0,6,3.75,2.253,2.253,0,0,0,3.75,1.5Z" transform="translate(173.25 203.25)" fill="#292d32"/>
      <path id="Vector-6" data-name="Vector" d="M3.75,7.5A3.75,3.75,0,1,1,7.5,3.75,3.751,3.751,0,0,1,3.75,7.5Zm0-6A2.25,2.25,0,1,0,6,3.75,2.253,2.253,0,0,0,3.75,1.5Z" transform="translate(187.25 203.25)" fill="#292d32"/>
      <path id="Vector-7" data-name="Vector" d="M0,0H24V24H0Z" transform="translate(172 188)" fill="none" opacity="0"/>
    </g>
  </g>
</svg>
