<svg xmlns="http://www.w3.org/2000/svg" width="24" height="24" viewBox="0 0 24 24">
  <g id="vuesax_outline_radar" data-name="vuesax/outline/radar" transform="translate(-300 -316)">
    <g id="radar">
      <path id="Vector" d="M2.75,5.5A2.75,2.75,0,1,1,5.5,2.75,2.748,2.748,0,0,1,2.75,5.5Zm0-4A1.25,1.25,0,1,0,4,2.75,1.25,1.25,0,0,0,2.75,1.5Z" transform="translate(309.25 325.25)" fill="#292d32"/>
      <path id="Vector-2" data-name="Vector" d="M.75,13.5a.76.76,0,0,1-.45-.15A.75.75,0,0,1,.15,12.3,9.169,9.169,0,0,0,2,6.75,9.169,9.169,0,0,0,.15,1.2.75.75,0,0,1,1.35.3,10.624,10.624,0,0,1,3.5,6.75,10.624,10.624,0,0,1,1.35,13.2.739.739,0,0,1,.75,13.5Z" transform="translate(319.25 321.25)" fill="#292d32"/>
      <path id="Vector-3" data-name="Vector" d="M2.75,13.5a.739.739,0,0,1-.6-.3A10.624,10.624,0,0,1,0,6.75,10.624,10.624,0,0,1,2.15.3a.75.75,0,1,1,1.2.9,9.25,9.25,0,0,0,0,11.1.75.75,0,0,1-.15,1.05A.738.738,0,0,1,2.75,13.5Z" transform="translate(301.25 321.25)" fill="#292d32"/>
      <path id="Vector-4" data-name="Vector" d="M.75,8.7A.76.76,0,0,1,.3,8.55.75.75,0,0,1,.15,7.5,5.168,5.168,0,0,0,1.2,4.35,5.168,5.168,0,0,0,.15,1.2.75.75,0,1,1,1.35.3,6.73,6.73,0,0,1,2.7,4.35,6.709,6.709,0,0,1,1.35,8.4.739.739,0,0,1,.75,8.7Z" transform="translate(316.05 323.65)" fill="#292d32"/>
      <path id="Vector-5" data-name="Vector" d="M1.95,8.7a.739.739,0,0,1-.6-.3,6.75,6.75,0,0,1,0-8.1.75.75,0,1,1,1.2.9A5.168,5.168,0,0,0,1.5,4.35,5.168,5.168,0,0,0,2.55,7.5.75.75,0,0,1,2.4,8.55.738.738,0,0,1,1.95,8.7Z" transform="translate(305.25 323.65)" fill="#292d32"/>
      <path id="Vector-6" data-name="Vector" d="M0,0H24V24H0Z" transform="translate(300 316)" fill="none" opacity="0"/>
    </g>
  </g>
</svg>
