<svg xmlns="http://www.w3.org/2000/svg" width="24" height="24" viewBox="0 0 24 24">
  <g id="vuesax_outline_receipt-search" data-name="vuesax/outline/receipt-search" transform="translate(-428 -316)">
    <g id="receipt-search">
      <path id="Vector" d="M7.77,20.69a.739.739,0,0,1-.6-.3L6.16,19.04a1.081,1.081,0,0,0-.79-.46,1.084,1.084,0,0,0-.84.37c-1.45,1.55-2.55,1.42-3.08,1.22S0,19.27,0,17.05V5.79C0,1.35,1.28,0,5.47,0h7.55c4.19,0,5.47,1.35,5.47,5.79v4.26a.75.75,0,0,1-1.5,0V5.79c0-3.61-.63-4.29-3.97-4.29H5.47c-3.34,0-3.97.68-3.97,4.29V17.05c0,1.05.26,1.63.5,1.72.18.07.67-.03,1.43-.84a2.588,2.588,0,0,1,2.02-.85,2.579,2.579,0,0,1,1.91,1.06l1.02,1.35a.75.75,0,0,1-.15,1.05A.764.764,0,0,1,7.77,20.69Z" transform="translate(430.77 317.25)" fill="#292d32"/>
      <path id="Vector-2" data-name="Vector" d="M3.95,7.9A3.95,3.95,0,1,1,7.9,3.95,3.952,3.952,0,0,1,3.95,7.9Zm0-6.4A2.45,2.45,0,1,0,6.4,3.95,2.454,2.454,0,0,0,3.95,1.5Z" transform="translate(442.25 330.25)" fill="#292d32"/>
      <path id="Vector-3" data-name="Vector" d="M1.747,2.5a.742.742,0,0,1-.53-.22l-1-1A.75.75,0,0,1,1.277.218l1,1a.754.754,0,0,1,0,1.06A.742.742,0,0,1,1.747,2.5Z" transform="translate(448.252 336.253)" fill="#292d32"/>
      <path id="Vector-4" data-name="Vector" d="M8.75,1.5h-8A.755.755,0,0,1,0,.75.755.755,0,0,1,.75,0h8A.755.755,0,0,1,9.5.75.755.755,0,0,1,8.75,1.5Z" transform="translate(435.25 322.25)" fill="#292d32"/>
      <path id="Vector-5" data-name="Vector" d="M6.75,1.5h-6A.755.755,0,0,1,0,.75.755.755,0,0,1,.75,0h6A.755.755,0,0,1,7.5.75.755.755,0,0,1,6.75,1.5Z" transform="translate(436.25 326.25)" fill="#292d32"/>
      <path id="Vector-6" data-name="Vector" d="M0,0H24V24H0Z" transform="translate(428 316)" fill="none" opacity="0"/>
    </g>
  </g>
</svg>
