<svg xmlns="http://www.w3.org/2000/svg" width="24" height="24" viewBox="0 0 24 24">
  <g id="vuesax_outline_receipt-edit" data-name="vuesax/outline/receipt-edit" transform="translate(-236 -316)">
    <g id="receipt-edit">
      <path id="Vector" d="M7.77,20.69a.739.739,0,0,1-.6-.3L6.16,19.04a1.081,1.081,0,0,0-.79-.46,1.071,1.071,0,0,0-.84.37c-1.45,1.55-2.55,1.42-3.08,1.22S0,19.27,0,17.05V5.79C0,1.35,1.28,0,5.47,0h7.55c4.19,0,5.47,1.35,5.47,5.79v4.26a.75.75,0,0,1-1.5,0V5.79c0-3.61-.63-4.29-3.97-4.29H5.47c-3.34,0-3.97.68-3.97,4.29V17.05c0,1.05.26,1.63.5,1.72.18.07.67-.03,1.43-.84a2.588,2.588,0,0,1,2.02-.85,2.579,2.579,0,0,1,1.91,1.06l1.02,1.35a.75.75,0,0,1-.15,1.05A.764.764,0,0,1,7.77,20.69Z" transform="translate(238.77 317.25)" fill="#292d32"/>
      <path id="Vector-2" data-name="Vector" d="M8.75,1.5h-8A.755.755,0,0,1,0,.75.755.755,0,0,1,.75,0h8A.755.755,0,0,1,9.5.75.755.755,0,0,1,8.75,1.5Z" transform="translate(243.25 322.25)" fill="#292d32"/>
      <path id="Vector-3" data-name="Vector" d="M6.75,1.5h-6A.755.755,0,0,1,0,.75.755.755,0,0,1,.75,0h6A.755.755,0,0,1,7.5.75.755.755,0,0,1,6.75,1.5Z" transform="translate(244.25 326.25)" fill="#292d32"/>
      <path id="Vector-4" data-name="Vector" d="M1.4,8.328a1.406,1.406,0,0,1-1-.4A1.423,1.423,0,0,1,.018,6.7l.19-1.35a1.981,1.981,0,0,1,.51-1.02L4.258.788a2.382,2.382,0,0,1,1.46-.78,2.264,2.264,0,0,1,1.82.78,2.252,2.252,0,0,1,.78,1.82,2.46,2.46,0,0,1-.78,1.46L4,7.608a1.981,1.981,0,0,1-1.02.51l-1.35.19A1.785,1.785,0,0,1,1.4,8.328ZM5.888,1.5h-.03a1.049,1.049,0,0,0-.54.35l-3.54,3.54a.381.381,0,0,0-.08.17l-.18,1.25,1.25-.18a.556.556,0,0,0,.17-.09L6.478,3a1.089,1.089,0,0,0,.35-.54c.02-.2-.18-.44-.35-.61A1.02,1.02,0,0,0,5.888,1.5Z" transform="translate(249.422 329.452)" fill="#292d32"/>
      <path id="Vector-5" data-name="Vector" d="M2.967,3.727a.645.645,0,0,1-.2-.03A3.977,3.977,0,0,1,.027.957a.76.76,0,0,1,.52-.93.745.745,0,0,1,.92.52,2.465,2.465,0,0,0,1.7,1.7.755.755,0,0,1,.52.93A.747.747,0,0,1,2.967,3.727Z" transform="translate(252.953 330.522)" fill="#292d32"/>
      <path id="Vector-6" data-name="Vector" d="M0,0H24V24H0Z" transform="translate(236 316)" fill="none" opacity="0"/>
    </g>
  </g>
</svg>
