<svg xmlns="http://www.w3.org/2000/svg" width="24" height="24" viewBox="0 0 24 24">
  <g id="vuesax_outline_receipt-disscount" data-name="vuesax/outline/receipt-disscount" transform="translate(-428 -572)">
    <g id="receipt-disscount">
      <path id="Vector" d="M9.25,21.5a2.563,2.563,0,0,1-2.06-1.11L6.18,19.04a1.081,1.081,0,0,0-.79-.46,1.084,1.084,0,0,0-.84.37l-.57-.5.55.51c-1.45,1.54-2.55,1.42-3.08,1.21S0,19.27,0,17.05V5.79C0,1.35,1.28,0,5.47,0h7.55c4.19,0,5.47,1.35,5.47,5.79V17.05c0,2.21-.91,2.9-1.45,3.12s-1.63.33-3.08-1.21a1.071,1.071,0,0,0-.85-.37,1.1,1.1,0,0,0-.8.46L11.3,20.4A2.547,2.547,0,0,1,9.25,21.5ZM5.33,17.08h.13a2.579,2.579,0,0,1,1.91,1.06l1.02,1.35a1.011,1.011,0,0,0,1.73,0l1.01-1.35a2.513,2.513,0,0,1,3.94-.21c.76.81,1.25.91,1.43.84.24-.1.5-.68.5-1.72V5.79c0-3.61-.63-4.29-3.97-4.29H5.47c-3.34,0-3.97.68-3.97,4.29V17.05c0,1.05.26,1.63.5,1.72.18.07.67-.03,1.43-.84A2.616,2.616,0,0,1,5.33,17.08Z" transform="translate(430.75 573.25)" fill="#292d32"/>
      <path id="Vector-2" data-name="Vector" d="M1,2A1,1,0,1,1,2,1,1,1,0,0,1,1,2Z" transform="translate(442 584)" fill="#292d32"/>
      <path id="Vector-3" data-name="Vector" d="M1,2A1,1,0,1,1,2,1,1,1,0,0,1,1,2Z" transform="translate(436 579)" fill="#292d32"/>
      <path id="Vector-4" data-name="Vector" d="M.747,8.227a.742.742,0,0,1-.53-.22.754.754,0,0,1,0-1.06L6.947.218a.75.75,0,0,1,1.06,1.06l-6.73,6.73A.71.71,0,0,1,.747,8.227Z" transform="translate(435.883 578.323)" fill="#292d32"/>
      <path id="Vector-5" data-name="Vector" d="M0,0H24V24H0Z" transform="translate(428 572)" fill="none" opacity="0"/>
    </g>
  </g>
</svg>
