<svg xmlns="http://www.w3.org/2000/svg" width="24" height="24" viewBox="0 0 24 24">
  <g id="vuesax_outline_receipt-item" data-name="vuesax/outline/receipt-item" transform="translate(-172 -188)">
    <g id="receipt-item">
      <path id="Vector" d="M4.17,10.5H.75A.755.755,0,0,1,0,9.75V2.76A2.766,2.766,0,0,1,2.76,0h.01A4.746,4.746,0,0,1,7.49,4.75V7.17A3.141,3.141,0,0,1,4.17,10.5ZM1.5,9H4.17A1.669,1.669,0,0,0,6,7.17V4.75a3.272,3.272,0,0,0-.95-2.3A3.312,3.312,0,0,0,2.77,1.5H2.76a1.257,1.257,0,0,0-.89.37,1.24,1.24,0,0,0-.37.89V9Z" transform="translate(187.25 189.25)" fill="#292d32"/>
      <path id="Vector-2" data-name="Vector" d="M7.75,22.08a1.708,1.708,0,0,1-1.24-.52L4.85,19.89a.246.246,0,0,0-.33-.02L2.8,21.15A1.748,1.748,0,0,1,0,19.75v-15C0,1.73,1.73,0,4.75,0h12a.755.755,0,0,1,.75.75.755.755,0,0,1-.75.75A1.25,1.25,0,0,0,15.5,2.75v17a1.755,1.755,0,0,1-2.8,1.41l-1.71-1.28a.243.243,0,0,0-.32.02L8.99,21.58A1.772,1.772,0,0,1,7.75,22.08ZM4.66,18.32a1.724,1.724,0,0,1,1.25.52l1.66,1.67a.266.266,0,0,0,.36,0l1.68-1.68a1.74,1.74,0,0,1,2.29-.15l1.7,1.27a.229.229,0,0,0,.26.02.249.249,0,0,0,.14-.22v-17a2.745,2.745,0,0,1,.3-1.25H4.75C2.53,1.5,1.5,2.53,1.5,4.75v15a.253.253,0,0,0,.14.23.234.234,0,0,0,.26-.03l1.71-1.28A1.766,1.766,0,0,1,4.66,18.32Z" transform="translate(173.25 189.25)" fill="#292d32"/>
      <path id="Vector-3" data-name="Vector" d="M3.75,1.5h-3A.755.755,0,0,1,0,.75.755.755,0,0,1,.75,0h3A.755.755,0,0,1,4.5.75.755.755,0,0,1,3.75,1.5Z" transform="translate(180.25 200.26)" fill="#292d32"/>
      <path id="Vector-4" data-name="Vector" d="M3.75,1.5h-3A.755.755,0,0,1,0,.75.755.755,0,0,1,.75,0h3A.755.755,0,0,1,4.5.75.755.755,0,0,1,3.75,1.5Z" transform="translate(180.25 196.26)" fill="#292d32"/>
      <path id="Vector-5" data-name="Vector" d="M1,2A1,1,0,1,1,2,1,1,1,0,0,1,1,2Z" transform="translate(176.97 196.01)" fill="#292d32"/>
      <path id="Vector-6" data-name="Vector" d="M1,2A1,1,0,1,1,2,1,1,1,0,0,1,1,2Z" transform="translate(176.97 200.01)" fill="#292d32"/>
      <path id="Vector-7" data-name="Vector" d="M0,0H24V24H0Z" transform="translate(172 188)" fill="none" opacity="0"/>
    </g>
  </g>
</svg>
