<svg xmlns="http://www.w3.org/2000/svg" width="24" height="24" viewBox="0 0 24 24">
  <g id="vuesax_outline_receipt-add" data-name="vuesax/outline/receipt-add" transform="translate(-108 -252)">
    <g id="receipt-add">
      <path id="Vector" d="M4.17,10.5H.75A.755.755,0,0,1,0,9.75V2.76A2.766,2.766,0,0,1,2.76,0h.01A4.746,4.746,0,0,1,7.49,4.75V7.17A3.141,3.141,0,0,1,4.17,10.5ZM1.5,9H4.17A1.669,1.669,0,0,0,6,7.17V4.75a3.272,3.272,0,0,0-.95-2.3A3.312,3.312,0,0,0,2.77,1.5H2.76a1.257,1.257,0,0,0-.89.37,1.24,1.24,0,0,0-.37.89V9Z" transform="translate(123.25 253.25)" fill="#292d32"/>
      <path id="Vector-2" data-name="Vector" d="M7.74,22.08a1.633,1.633,0,0,1-1.24-.52L4.84,19.89a.246.246,0,0,0-.33-.02L2.8,21.15A1.748,1.748,0,0,1,0,19.75v-15C0,1.73,1.73,0,4.75,0h12a.755.755,0,0,1,.75.75.755.755,0,0,1-.75.75A1.25,1.25,0,0,0,15.5,2.75v17a1.755,1.755,0,0,1-2.8,1.41l-1.71-1.28a.243.243,0,0,0-.32.02L8.99,21.58A1.814,1.814,0,0,1,7.74,22.08ZM4.65,18.32a1.724,1.724,0,0,1,1.25.52l1.66,1.67a.259.259,0,0,0,.18.07c0-.02.12-.01.18-.07L9.6,18.83a1.74,1.74,0,0,1,2.29-.15l1.7,1.27a.229.229,0,0,0,.26.02.249.249,0,0,0,.14-.22v-17a2.745,2.745,0,0,1,.3-1.25H4.74c-2.22,0-3.25,1.03-3.25,3.25v15a.253.253,0,0,0,.14.23.234.234,0,0,0,.26-.03L3.6,18.67A1.766,1.766,0,0,1,4.65,18.32Z" transform="translate(109.26 253.25)" fill="#292d32"/>
      <path id="Vector-3" data-name="Vector" d="M6.25,1.5H.75A.755.755,0,0,1,0,.75.755.755,0,0,1,.75,0h5.5A.755.755,0,0,1,7,.75.755.755,0,0,1,6.25,1.5Z" transform="translate(113.5 261.25)" fill="#292d32"/>
      <path id="Vector-4" data-name="Vector" d="M.75,7A.755.755,0,0,1,0,6.25V.75A.755.755,0,0,1,.75,0,.755.755,0,0,1,1.5.75v5.5A.755.755,0,0,1,.75,7Z" transform="translate(116.25 258.5)" fill="#292d32"/>
      <path id="Vector-5" data-name="Vector" d="M0,0H24V24H0Z" transform="translate(108 252)" fill="none" opacity="0"/>
    </g>
  </g>
</svg>
