<svg xmlns="http://www.w3.org/2000/svg" width="24" height="24" viewBox="0 0 24 24">
  <g id="vuesax_outline_receipt" data-name="vuesax/outline/receipt" transform="translate(-556 -380)">
    <g id="receipt">
      <path id="Vector" d="M4.17,10.5H.75A.755.755,0,0,1,0,9.75V2.76A2.766,2.766,0,0,1,2.76,0h.01A4.746,4.746,0,0,1,7.49,4.75V7.17A3.141,3.141,0,0,1,4.17,10.5ZM1.5,9H4.17A1.669,1.669,0,0,0,6,7.17V4.75A3.244,3.244,0,0,0,2.77,1.5H2.76a1.257,1.257,0,0,0-.89.37,1.24,1.24,0,0,0-.37.89Z" transform="translate(571.25 381.25)" fill="#292d32"/>
      <path id="Vector-2" data-name="Vector" d="M7.74,22.08a1.708,1.708,0,0,1-1.24-.52L4.84,19.89a.246.246,0,0,0-.33-.02L2.8,21.15A1.748,1.748,0,0,1,0,19.75v-15C0,1.73,1.73,0,4.75,0h12a.755.755,0,0,1,.75.75.755.755,0,0,1-.75.75A1.25,1.25,0,0,0,15.5,2.75v17a1.748,1.748,0,0,1-2.8,1.4l-1.71-1.28a.243.243,0,0,0-.32.02L8.99,21.57A1.78,1.78,0,0,1,7.74,22.08ZM4.65,18.32a1.724,1.724,0,0,1,1.25.52l1.66,1.67a.266.266,0,0,0,.36,0L9.6,18.83a1.74,1.74,0,0,1,2.29-.15l1.7,1.27a.229.229,0,0,0,.26.02.249.249,0,0,0,.14-.22v-17a2.745,2.745,0,0,1,.3-1.25H4.74c-2.22,0-3.25,1.03-3.25,3.25v15a.253.253,0,0,0,.14.23.234.234,0,0,0,.26-.03L3.6,18.67A1.766,1.766,0,0,1,4.65,18.32Z" transform="translate(557.26 381.25)" fill="#292d32"/>
      <path id="Vector-3" data-name="Vector" d="M0,0H24V24H0Z" transform="translate(556 380)" fill="none" opacity="0"/>
    </g>
  </g>
</svg>
