<svg xmlns="http://www.w3.org/2000/svg" width="24" height="24" viewBox="0 0 24 24">
  <g id="vuesax_outline_scanning" data-name="vuesax/outline/scanning" transform="translate(-492 -252)">
    <g id="scanning">
      <path id="Vector" d="M.75,8.5A.755.755,0,0,1,0,7.75V5.25A5.256,5.256,0,0,1,5.25,0h2.5A.755.755,0,0,1,8.5.75a.755.755,0,0,1-.75.75H5.25A3.751,3.751,0,0,0,1.5,5.25v2.5A.755.755,0,0,1,.75,8.5Z" transform="translate(493.25 253.25)" fill="#292d32"/>
      <path id="Vector-2" data-name="Vector" d="M7.75,8.5A.755.755,0,0,1,7,7.75V5.25A3.751,3.751,0,0,0,3.25,1.5H.75A.755.755,0,0,1,0,.75.755.755,0,0,1,.75,0h2.5A5.256,5.256,0,0,1,8.5,5.25v2.5A.755.755,0,0,1,7.75,8.5Z" transform="translate(506.25 253.25)" fill="#292d32"/>
      <path id="Vector-3" data-name="Vector" d="M2.25,7.5H.75A.75.75,0,0,1,.75,6h1.5A3.751,3.751,0,0,0,6,2.25V.75a.75.75,0,0,1,1.5,0v1.5A5.256,5.256,0,0,1,2.25,7.5Z" transform="translate(507.25 267.25)" fill="#292d32"/>
      <path id="Vector-4" data-name="Vector" d="M7.75,8.5H5.25A5.256,5.256,0,0,1,0,3.25V.75A.755.755,0,0,1,.75,0,.755.755,0,0,1,1.5.75v2.5A3.751,3.751,0,0,0,5.25,7h2.5a.75.75,0,0,1,0,1.5Z" transform="translate(493.25 266.25)" fill="#292d32"/>
      <path id="Vector-5" data-name="Vector" d="M3.25,6.5A3.25,3.25,0,1,1,6.5,3.25,3.256,3.256,0,0,1,3.25,6.5Zm0-5A1.75,1.75,0,1,0,5,3.25,1.758,1.758,0,0,0,3.25,1.5Z" transform="translate(497.25 257.25)" fill="#292d32"/>
      <path id="Vector-6" data-name="Vector" d="M2.25,4.5A2.25,2.25,0,1,1,4.5,2.25,2.253,2.253,0,0,1,2.25,4.5Zm0-3A.75.75,0,1,0,3,2.25.755.755,0,0,0,2.25,1.5Z" transform="translate(497.25 266.25)" fill="#292d32"/>
      <path id="Vector-7" data-name="Vector" d="M2.25,4.5A2.25,2.25,0,1,1,4.5,2.25,2.253,2.253,0,0,1,2.25,4.5Zm0-3A.75.75,0,1,0,3,2.25.755.755,0,0,0,2.25,1.5Z" transform="translate(506.25 257.25)" fill="#292d32"/>
      <path id="Vector-8" data-name="Vector" d="M3.25,6.5A3.25,3.25,0,1,1,6.5,3.25,3.256,3.256,0,0,1,3.25,6.5Zm0-5A1.75,1.75,0,1,0,5,3.25,1.758,1.758,0,0,0,3.25,1.5Z" transform="translate(504.25 264.25)" fill="#292d32"/>
      <path id="Vector-9" data-name="Vector" d="M0,0H24V24H0Z" transform="translate(492 252)" fill="none" opacity="0"/>
    </g>
  </g>
</svg>
