<svg xmlns="http://www.w3.org/2000/svg" width="24" height="24" viewBox="0 0 24 24">
  <g id="vuesax_outline_scanner" data-name="vuesax/outline/scanner" transform="translate(-684 -252)">
    <g id="scanner">
      <path id="Vector" d="M20.75,8.5A.755.755,0,0,1,20,7.75v-2A3.984,3.984,0,0,0,15.75,1.5h-10A3.984,3.984,0,0,0,1.5,5.75v2a.755.755,0,0,1-.75.75A.755.755,0,0,1,0,7.75v-2A5.443,5.443,0,0,1,5.75,0h10A5.443,5.443,0,0,1,21.5,5.75v2A.755.755,0,0,1,20.75,8.5Z" transform="translate(685.25 253.25)" fill="#292d32"/>
      <path id="Vector-2" data-name="Vector" d="M15.75,8.5h-10A5.443,5.443,0,0,1,0,2.75v-2A.755.755,0,0,1,.75,0,.755.755,0,0,1,1.5.75v2A3.984,3.984,0,0,0,5.75,7h10A3.984,3.984,0,0,0,20,2.75v-2a.75.75,0,0,1,1.5,0v2A5.443,5.443,0,0,1,15.75,8.5Z" transform="translate(685.25 266.25)" fill="#292d32"/>
      <path id="Vector-3" data-name="Vector" d="M20.75,1.5H.75A.755.755,0,0,1,0,.75.755.755,0,0,1,.75,0h20a.755.755,0,0,1,.75.75A.755.755,0,0,1,20.75,1.5Z" transform="translate(685.25 263.25)" fill="#292d32"/>
      <path id="Vector-4" data-name="Vector" d="M0,0H24V24H0Z" transform="translate(684 252)" fill="none" opacity="0"/>
    </g>
  </g>
</svg>
