<svg xmlns="http://www.w3.org/2000/svg" width="24" height="24" viewBox="0 0 24 24">
  <g id="vuesax_outline_scroll" data-name="vuesax/outline/scroll" transform="translate(-108 -316)">
    <g id="scroll">
      <path id="Vector" d="M13.75,21.5h-6C2.32,21.5,0,19.18,0,13.75v-6C0,2.32,2.32,0,7.75,0h6c5.43,0,7.75,2.32,7.75,7.75v6C21.5,19.18,19.18,21.5,13.75,21.5Zm-6-20C3.14,1.5,1.5,3.14,1.5,7.75v6C1.5,18.36,3.14,20,7.75,20h6C18.36,20,20,18.36,20,13.75v-6c0-4.61-1.64-6.25-6.25-6.25Z" transform="translate(109.25 317.25)" fill="#292d32"/>
      <path id="Vector-2" data-name="Vector" d="M3.463,7.548a.742.742,0,0,1-.53-.22L.442,4.838a1.5,1.5,0,0,1,0-2.13L2.932.218a.75.75,0,0,1,1.06,1.06L1.5,3.768l2.49,2.5a.754.754,0,0,1,0,1.06A.786.786,0,0,1,3.463,7.548Z" transform="translate(114.137 324.233)" fill="#292d32"/>
      <path id="Vector-3" data-name="Vector" d="M.747,7.558a.742.742,0,0,1-.53-.22.754.754,0,0,1,0-1.06l2.49-2.5-2.49-2.5A.75.75,0,0,1,1.278.218l2.49,2.49a1.5,1.5,0,0,1,0,2.13l-2.49,2.49A.736.736,0,0,1,.747,7.558Z" transform="translate(121.652 324.223)" fill="#292d32"/>
      <path id="Vector-4" data-name="Vector" d="M0,0H24V24H0Z" transform="translate(108 316)" fill="none" opacity="0"/>
    </g>
  </g>
</svg>
