<svg xmlns="http://www.w3.org/2000/svg" width="24" height="24" viewBox="0 0 24 24">
  <g id="vuesax_outline_security-card" data-name="vuesax/outline/security-card" transform="translate(-300 -444)">
    <g id="security-card">
      <path id="Vector" d="M9.3,21.427a5.051,5.051,0,0,1-3.01-.94l-4.28-3.2A5.561,5.561,0,0,1,0,13.258V5.848a4.189,4.189,0,0,1,2.56-3.7L7.54.278a5.752,5.752,0,0,1,3.53,0l4.97,1.87a4.269,4.269,0,0,1,2.48,2.91.773.773,0,0,1-.14.64.754.754,0,0,1-.59.29L9.88,6c-1.27.08-1.58.29-1.58,2.14v5.43c0,1.91.25,2.15,2.19,2.15h5.92a.748.748,0,0,1,.7.48.761.761,0,0,1-.2.83c-.11.09-.2.18-.31.26L12.32,20.5A5.187,5.187,0,0,1,9.3,21.427Zm0-19.92a3.592,3.592,0,0,0-1.24.19L3.08,3.568a2.731,2.731,0,0,0-1.59,2.3v7.41A4.1,4.1,0,0,0,2.9,16.1l4.28,3.2a3.827,3.827,0,0,0,4.23,0l2.77-2.07h-3.7c-2.76,0-3.69-.92-3.69-3.65V8.147c0-2.13.51-3.48,3.04-3.64l.65-.01h6.15a2.533,2.533,0,0,0-1.12-.93L10.54,1.7A3.631,3.631,0,0,0,9.3,1.508Z" transform="translate(301.26 445.282)" fill="#292d32"/>
      <path id="Vector-2" data-name="Vector" d="M13.95,1.5H.75A.755.755,0,0,1,0,.75.755.755,0,0,1,.75,0h13.2a.755.755,0,0,1,.75.75A.755.755,0,0,1,13.95,1.5Z" transform="translate(308.05 454.47)" fill="#292d32"/>
      <path id="Vector-3" data-name="Vector" d="M11.01,12.73H3.69C.93,12.73,0,11.81,0,9.08V3.65C0,1.52.51.17,3.04.01L3.69,0h7.32c2.76,0,3.69.92,3.69,3.65V9.2C14.68,11.84,13.75,12.73,11.01,12.73ZM3.69,1.5l-.61.01C1.81,1.59,1.5,1.8,1.5,3.65V9.08c0,1.91.25,2.15,2.19,2.15h7.32c1.91,0,2.17-.25,2.19-2.03V3.66c0-1.91-.25-2.15-2.19-2.15H3.69Z" transform="translate(308.05 449.77)" fill="#292d32"/>
      <path id="Vector-4" data-name="Vector" d="M2.09,1.5H.75A.755.755,0,0,1,0,.75.755.755,0,0,1,.75,0H2.09a.75.75,0,0,1,0,1.5Z" transform="translate(310.56 458.51)" fill="#292d32"/>
      <path id="Vector-5" data-name="Vector" d="M4.02,1.5H.75A.755.755,0,0,1,0,.75.755.755,0,0,1,.75,0H4.02a.75.75,0,0,1,0,1.5Z" transform="translate(314 458.51)" fill="#292d32"/>
      <path id="Vector-6" data-name="Vector" d="M0,0H24V24H0Z" transform="translate(300 444)" fill="none" opacity="0"/>
    </g>
  </g>
</svg>
