<svg xmlns="http://www.w3.org/2000/svg" width="24" height="24" viewBox="0 0 24 24">
  <g id="vuesax_outline_send" data-name="vuesax/outline/send" transform="translate(-236 -316)">
    <g id="send">
      <path id="Vector" d="M3.117,19.507a3.072,3.072,0,0,1-2.28-.83c-.88-.88-1.5-2.75.48-6.72l.87-1.73a1.38,1.38,0,0,0,0-.94l-.87-1.73c-1.99-3.97-1.36-5.85-.48-6.72s2.75-1.51,6.71.48l8.56,4.28c2.13,1.06,3.3,2.54,3.3,4.16s-1.17,3.1-3.29,4.16L7.557,18.2A10.276,10.276,0,0,1,3.117,19.507Zm0-18A1.687,1.687,0,0,0,1.9,1.9c-.73.72-.44,2.59.76,4.98l.87,1.74a2.828,2.828,0,0,1,0,2.28l-.87,1.73c-1.2,2.4-1.49,4.26-.76,4.98s2.59.44,4.99-.76l8.56-4.28c1.57-.78,2.46-1.81,2.46-2.82s-.9-2.04-2.47-2.82l-8.56-4.27A9.2,9.2,0,0,0,3.117,1.507Z" transform="translate(238.293 318.243)" fill="#292d32"/>
      <path id="Vector-2" data-name="Vector" d="M6.15,1.5H.75A.755.755,0,0,1,0,.75.755.755,0,0,1,.75,0h5.4A.755.755,0,0,1,6.9.75.755.755,0,0,1,6.15,1.5Z" transform="translate(240.69 327.25)" fill="#292d32"/>
      <path id="Vector-3" data-name="Vector" d="M0,0H24V24H0Z" transform="translate(236 316)" fill="none" opacity="0"/>
    </g>
  </g>
</svg>
