<svg xmlns="http://www.w3.org/2000/svg" width="24" height="24" viewBox="0 0 24 24">
  <g id="vuesax_outline_share" data-name="vuesax/outline/share" transform="translate(-364 -316)">
    <g id="share">
      <path id="Vector" d="M4.411,7.641a.764.764,0,0,1-.75-.67,7.834,7.834,0,0,0-3.34-5.61A.752.752,0,0,1,.131.321a.754.754,0,0,1,1.04-.19,9.335,9.335,0,0,1,3.97,6.68.759.759,0,0,1-.67.83Z" transform="translate(380.209 321.429)" fill="#292d32"/>
      <path id="Vector-2" data-name="Vector" d="M.754,7.658H.674A.766.766,0,0,1,0,6.828,9.355,9.355,0,0,1,3.914.138a.753.753,0,0,1,.87,1.23,7.847,7.847,0,0,0-3.29,5.62A.74.74,0,0,1,.754,7.658Z" transform="translate(366.736 321.462)" fill="#292d32"/>
      <path id="Vector-3" data-name="Vector" d="M4.622,2.422a9.318,9.318,0,0,1-4.21-1,.751.751,0,0,1,.68-1.34,7.9,7.9,0,0,0,6.94.06.749.749,0,0,1,.65,1.35A9.217,9.217,0,0,1,4.622,2.422Z" transform="translate(371.438 336.188)" fill="#292d32"/>
      <path id="Vector-4" data-name="Vector" d="M3.53,7.06A3.53,3.53,0,1,1,7.06,3.53,3.529,3.529,0,0,1,3.53,7.06Zm0-5.55A2.03,2.03,0,1,0,5.56,3.54,2.031,2.031,0,0,0,3.53,1.51Z" transform="translate(372.53 317.38)" fill="#292d32"/>
      <path id="Vector-5" data-name="Vector" d="M3.53,7.06A3.53,3.53,0,1,1,7.06,3.53,3.529,3.529,0,0,1,3.53,7.06Zm0-5.56A2.03,2.03,0,1,0,5.56,3.53,2.031,2.031,0,0,0,3.53,1.5Z" transform="translate(365.3 329.61)" fill="#292d32"/>
      <path id="Vector-6" data-name="Vector" d="M3.53,7.06A3.53,3.53,0,1,1,7.06,3.53,3.529,3.529,0,0,1,3.53,7.06Zm0-5.56A2.03,2.03,0,1,0,5.56,3.53,2.031,2.031,0,0,0,3.53,1.5Z" transform="translate(379.64 329.61)" fill="#292d32"/>
      <path id="Vector-7" data-name="Vector" d="M0,0H24V24H0Z" transform="translate(364 316)" fill="none" opacity="0"/>
    </g>
  </g>
</svg>
