<svg xmlns="http://www.w3.org/2000/svg" width="24" height="24" viewBox="0 0 24 24">
  <g id="vuesax_outline_shield-cross" data-name="vuesax/outline/shield-cross" transform="translate(-364 -188)">
    <g id="shield-cross">
      <path id="Vector" d="M9.35,21.507a5.09,5.09,0,0,1-3.02-.95l-4.3-3.21A5.6,5.6,0,0,1,0,13.308V5.867a4.209,4.209,0,0,1,2.58-3.72L7.57.278a5.784,5.784,0,0,1,3.54,0l4.99,1.87a4.209,4.209,0,0,1,2.58,3.72V13.3a5.585,5.585,0,0,1-2.03,4.04l-4.3,3.21A4.93,4.93,0,0,1,9.35,21.507ZM8.1,1.688,3.11,3.557a2.74,2.74,0,0,0-1.6,2.32v7.43a4.134,4.134,0,0,0,1.42,2.84l4.3,3.21a3.823,3.823,0,0,0,4.25,0l4.3-3.21a4.114,4.114,0,0,0,1.42-2.84V5.867a2.766,2.766,0,0,0-1.6-2.32l-4.99-1.87A4.377,4.377,0,0,0,8.1,1.688Z" transform="translate(366.65 189.253)" fill="#292d32"/>
      <path id="Vector-2" data-name="Vector" d="M5,5.747a.742.742,0,0,1-.53-.22L.218,1.278A.75.75,0,0,1,1.278.218l4.25,4.25a.754.754,0,0,1,0,1.06A.786.786,0,0,1,5,5.747Z" transform="translate(373.152 196.443)" fill="#292d32"/>
      <path id="Vector-3" data-name="Vector" d="M.748,5.747a.742.742,0,0,1-.53-.22.754.754,0,0,1,0-1.06L4.468.218a.75.75,0,0,1,1.06,1.06l-4.25,4.25A.725.725,0,0,1,.748,5.747Z" transform="translate(373.103 196.482)" fill="#292d32"/>
      <path id="Vector-4" data-name="Vector" d="M0,0H24V24H0Z" transform="translate(364 188)" fill="none" opacity="0"/>
    </g>
  </g>
</svg>
