<svg xmlns="http://www.w3.org/2000/svg" width="24" height="24" viewBox="0 0 24 24">
  <g id="vuesax_outline_shield-search" data-name="vuesax/outline/shield-search" transform="translate(-620 -188)">
    <g id="shield-search">
      <path id="Vector" d="M9.35,21.5a5.045,5.045,0,0,1-3.02-.94l-4.3-3.21A5.585,5.585,0,0,1,0,13.308V5.867a4.209,4.209,0,0,1,2.58-3.72L7.57.278a5.784,5.784,0,0,1,3.54,0l5,1.87a4.209,4.209,0,0,1,2.58,3.72V9.3a.75.75,0,0,1-1.5,0V5.867a2.757,2.757,0,0,0-1.61-2.32l-4.99-1.87a4.227,4.227,0,0,0-2.49,0L3.11,3.557A2.732,2.732,0,0,0,1.5,5.878v7.43a4.134,4.134,0,0,0,1.42,2.84l4.3,3.21A3.6,3.6,0,0,0,9.34,20a.755.755,0,0,1,.75.75A.747.747,0,0,1,9.35,21.5Z" transform="translate(622.65 189.253)" fill="#292d32"/>
      <path id="Vector-2" data-name="Vector" d="M4.75,9.5A4.75,4.75,0,1,1,9.5,4.75,4.754,4.754,0,0,1,4.75,9.5Zm0-7.99A3.25,3.25,0,1,0,8,4.76,3.256,3.256,0,0,0,4.75,1.51Z" transform="translate(631.25 199.25)" fill="#292d32"/>
      <path id="Vector-3" data-name="Vector" d="M1,1.987a1.355,1.355,0,0,1-.2-.02.636.636,0,0,1-.18-.06.757.757,0,0,1-.18-.09L.29,1.7A1.052,1.052,0,0,1,0,.987,1,1,0,0,1,.08.607,1.155,1.155,0,0,1,.29.278a1.047,1.047,0,0,1,1.42,0,1.155,1.155,0,0,1,.21.33A1,1,0,0,1,2,.987a1.052,1.052,0,0,1-.29.71A1.052,1.052,0,0,1,1,1.987Z" transform="translate(640 208.012)" fill="#292d32"/>
      <path id="Vector-4" data-name="Vector" d="M0,0H24V24H0Z" transform="translate(620 188)" fill="none" opacity="0"/>
    </g>
  </g>
</svg>
