<svg xmlns="http://www.w3.org/2000/svg" width="24" height="24" viewBox="0 0 24 24">
  <g id="vuesax_outline_signpost" data-name="vuesax/outline/signpost" transform="translate(-300 -700)">
    <g id="signpost">
      <path id="Vector" d="M12.95,8.5H4.69a2.475,2.475,0,0,1-1.56-.55L.94,6.2a2.493,2.493,0,0,1,0-3.9L3.13.55A2.534,2.534,0,0,1,4.69,0h8.26a2.5,2.5,0,0,1,2.5,2.5V6A2.5,2.5,0,0,1,12.95,8.5Zm-8.26-7a.977.977,0,0,0-.62.22L1.88,3.47a.991.991,0,0,0,0,1.56L4.07,6.78A1.02,1.02,0,0,0,4.69,7h8.26a1,1,0,0,0,1-1V2.5a1,1,0,0,0-1-1Z" transform="translate(304.27 701.25)" fill="#292d32"/>
      <path id="Vector-2" data-name="Vector" d="M10.76,8.5H2.5A2.5,2.5,0,0,1,0,6V2.5A2.5,2.5,0,0,1,2.5,0h8.26a2.455,2.455,0,0,1,1.56.55L14.51,2.3a2.493,2.493,0,0,1,0,3.9L12.32,7.95A2.455,2.455,0,0,1,10.76,8.5ZM2.5,1.5a1,1,0,0,0-1,1V6a1,1,0,0,0,1,1h8.26a.977.977,0,0,0,.62-.22l2.19-1.75a.991.991,0,0,0,0-1.56L11.38,1.72a1.02,1.02,0,0,0-.62-.22Z" transform="translate(304.3 711.25)" fill="#292d32"/>
      <path id="Vector-3" data-name="Vector" d="M.75,4.5A.755.755,0,0,1,0,3.75v-3A.755.755,0,0,1,.75,0,.755.755,0,0,1,1.5.75v3A.755.755,0,0,1,.75,4.5Z" transform="translate(311.25 708.25)" fill="#292d32"/>
      <path id="Vector-4" data-name="Vector" d="M.75,4.5A.755.755,0,0,1,0,3.75v-3A.755.755,0,0,1,.75,0,.755.755,0,0,1,1.5.75v3A.755.755,0,0,1,.75,4.5Z" transform="translate(311.25 718.25)" fill="#292d32"/>
      <path id="Vector-5" data-name="Vector" d="M6.75,1.5h-6A.755.755,0,0,1,0,.75.755.755,0,0,1,.75,0h6A.755.755,0,0,1,7.5.75.755.755,0,0,1,6.75,1.5Z" transform="translate(308.25 721.25)" fill="#292d32"/>
      <path id="Vector-6" data-name="Vector" d="M0,0H24V24H0Z" transform="translate(300 700)" fill="none" opacity="0"/>
    </g>
  </g>
</svg>
