<svg xmlns="http://www.w3.org/2000/svg" width="24" height="24" viewBox="0 0 24 24">
  <g id="vuesax_outline_speedometer" data-name="vuesax/outline/speedometer" transform="translate(-492 -572)">
    <g id="speedometer">
      <path id="Vector" d="M17.89,18.5a.775.775,0,0,1-.53-.21.745.745,0,0,1-.01-1.06A9.25,9.25,0,1,0,1.5,10.75a9.183,9.183,0,0,0,2.63,6.46.75.75,0,0,1-1.07,1.05A10.749,10.749,0,1,1,21.5,10.75a10.671,10.671,0,0,1-3.08,7.53A.725.725,0,0,1,17.89,18.5Z" transform="translate(493.25 573.75)" fill="#292d32"/>
      <path id="Vector-2" data-name="Vector" d="M4.12,8.25A4.125,4.125,0,1,1,8.24,4.12,4.127,4.127,0,0,1,4.12,8.25Zm0-6.75A2.62,2.62,0,1,0,6.74,4.12,2.623,2.623,0,0,0,4.12,1.5Z" transform="translate(499.88 586)" fill="#292d32"/>
      <path id="Vector-3" data-name="Vector" d="M2.25,4.5H1.5A1.5,1.5,0,0,1,0,3V2.25A2.25,2.25,0,1,1,2.25,4.5Zm0-3a.755.755,0,0,0-.75.75V3h.75a.75.75,0,0,0,0-1.5Z" transform="translate(505.75 580.25)" fill="#292d32"/>
      <path id="Vector-4" data-name="Vector" d="M0,0H24V24H0Z" transform="translate(492 572)" fill="none" opacity="0"/>
    </g>
  </g>
</svg>
