<svg xmlns="http://www.w3.org/2000/svg" width="24" height="24" viewBox="0 0 24 24">
  <g id="vuesax_outline_sticker" data-name="vuesax/outline/sticker" transform="translate(-620 -444)">
    <g id="sticker">
      <path id="Vector" d="M10.753,21.509a11.1,11.1,0,0,1-1.88-.16,10.76,10.76,0,1,1,12.47-12.49,11.254,11.254,0,0,1,.12,2.82v.01a3.762,3.762,0,0,1-.12.67.754.754,0,0,1-1.21.38,5.252,5.252,0,0,0-7.4,7.4.733.733,0,0,1,.14.71.747.747,0,0,1-.52.5,3.762,3.762,0,0,1-.67.12C11.383,21.5,11.073,21.509,10.753,21.509Zm0-20a9.26,9.26,0,0,0-9.11,10.83,9.264,9.264,0,0,0,7.49,7.53,8.607,8.607,0,0,0,1.72.14,6.756,6.756,0,0,1,9.17-9.17,9.416,9.416,0,0,0-.14-1.72,9.252,9.252,0,0,0-7.53-7.48A9.855,9.855,0,0,0,10.753,1.509Z" transform="translate(621.217 445.241)" fill="#292d32"/>
      <path id="Vector-2" data-name="Vector" d="M2.16,11.36a.71.71,0,0,1-.57-.27,6.741,6.741,0,0,1,9.5-9.5.748.748,0,0,1,.24.78,3.726,3.726,0,0,1-.96,1.62L3.99,10.37a3.784,3.784,0,0,1-1.62.96A.761.761,0,0,1,2.16,11.36ZM6.75,1.5A5.247,5.247,0,0,0,2.41,9.7a2.146,2.146,0,0,0,.52-.39L9.31,2.93a2.146,2.146,0,0,0,.39-.52A5.218,5.218,0,0,0,6.75,1.5Z" transform="translate(631.22 455.25)" fill="#292d32"/>
      <path id="Vector-3" data-name="Vector" d="M0,0H24V24H0Z" transform="translate(620 444)" fill="none" opacity="0"/>
    </g>
  </g>
</svg>
