<svg xmlns="http://www.w3.org/2000/svg" width="24" height="24" viewBox="0 0 24 24">
  <g id="vuesax_outline_stickynote" data-name="vuesax/outline/stickynote" transform="translate(-300 -316)">
    <g id="stickynote">
      <path id="Vector" d="M.75,4.5A.755.755,0,0,1,0,3.75v-3A.755.755,0,0,1,.75,0,.755.755,0,0,1,1.5.75v3A.755.755,0,0,1,.75,4.5Z" transform="translate(307.25 317.25)" fill="#292d32"/>
      <path id="Vector-2" data-name="Vector" d="M.75,4.5A.755.755,0,0,1,0,3.75v-3A.755.755,0,0,1,.75,0,.755.755,0,0,1,1.5.75v3A.755.755,0,0,1,.75,4.5Z" transform="translate(315.25 317.25)" fill="#292d32"/>
      <path id="Vector-3" data-name="Vector" d="M8.75,1.5h-8A.755.755,0,0,1,0,.75.755.755,0,0,1,.75,0h8A.755.755,0,0,1,9.5.75.755.755,0,0,1,8.75,1.5Z" transform="translate(306.25 326.25)" fill="#292d32"/>
      <path id="Vector-4" data-name="Vector" d="M5.75,1.5h-5A.755.755,0,0,1,0,.75.755.755,0,0,1,.75,0h5A.755.755,0,0,1,6.5.75.755.755,0,0,1,5.75,1.5Z" transform="translate(306.25 330.25)" fill="#292d32"/>
      <path id="Vector-5" data-name="Vector" d="M12.75,20h-6C1.13,20,0,17.35,0,13.07V6.9C0,2.16,1.6.23,5.71,0h8.04C17.9.23,19.5,2.16,19.5,6.9v6.35a.75.75,0,0,1-1.5,0V6.9c0-4.36-1.45-5.24-4.29-5.4H5.75C2.95,1.66,1.5,2.54,1.5,6.9v6.17c0,3.83.73,5.43,5.25,5.43h6a.75.75,0,0,1,0,1.5Z" transform="translate(302.25 318.75)" fill="#292d32"/>
      <path id="Vector-6" data-name="Vector" d="M.75,7.5A.755.755,0,0,1,0,6.75v-3A3.381,3.381,0,0,1,3.75,0h3a.741.741,0,0,1,.69.46.757.757,0,0,1-.16.82l-6,6A.749.749,0,0,1,.75,7.5Zm3-6c-1.58,0-2.25.67-2.25,2.25V4.94L4.94,1.5Z" transform="translate(314.25 331.25)" fill="#292d32"/>
      <path id="Vector-7" data-name="Vector" d="M0,0H24V24H0Z" transform="translate(300 316)" fill="none" opacity="0"/>
    </g>
  </g>
</svg>
