<svg xmlns="http://www.w3.org/2000/svg" width="24" height="24" viewBox="0 0 24 24">
  <g id="vuesax_outline_story" data-name="vuesax/outline/story" transform="translate(-748 -508)">
    <g id="story">
      <path id="Vector" d="M7,14a7,7,0,1,1,4.95-2.05A6.973,6.973,0,0,1,7,14ZM7,1.5a5.5,5.5,0,1,0,3.89,1.61A5.49,5.49,0,0,0,7,1.5Z" transform="translate(753.002 513.373)" fill="#292d32"/>
      <path id="Vector-2" data-name="Vector" d="M7,12.026a.918.918,0,0,1-.28-.05,10.636,10.636,0,0,1-5.29-4.59A10.6,10.6,0,0,1,.093.656a.751.751,0,1,1,1.49.19,9.174,9.174,0,0,0,1.15,5.78,9.1,9.1,0,0,0,4.54,3.94.764.764,0,0,1,.42.98A.74.74,0,0,1,7,12.026Z" transform="translate(749.247 518.364)" fill="#292d32"/>
      <path id="Vector-3" data-name="Vector" d="M.752,3.62a.753.753,0,0,1-.59-.29.738.738,0,0,1,.13-1.05A10.712,10.712,0,0,1,13.4,2.2a.749.749,0,1,1-.91,1.19,9.226,9.226,0,0,0-11.28.07A.736.736,0,0,1,.752,3.62Z" transform="translate(753.098 509.61)" fill="#292d32"/>
      <path id="Vector-4" data-name="Vector" d="M.753,12.016a.751.751,0,0,1-.28-1.45,9.152,9.152,0,0,0,4.54-3.94A9.044,9.044,0,0,0,6.163.846a.751.751,0,1,1,1.49-.19,10.677,10.677,0,0,1-1.34,6.73,10.642,10.642,0,0,1-5.29,4.59A1.1,1.1,0,0,1,.753,12.016Z" transform="translate(762.998 518.374)" fill="#292d32"/>
      <path id="Vector-5" data-name="Vector" d="M0,0H24V24H0Z" transform="translate(772 532) rotate(180)" fill="none" opacity="0"/>
    </g>
  </g>
</svg>
