<svg xmlns="http://www.w3.org/2000/svg" width="24" height="24" viewBox="0 0 24 24">
  <g id="vuesax_outline_strongbox-2" data-name="vuesax/outline/strongbox-2" transform="translate(-684 -188)">
    <g id="strongbox-2">
      <path id="Vector" d="M13.75,21.5h-6C2.32,21.5,0,19.18,0,13.75v-6C0,2.32,2.32,0,7.75,0h6c5.43,0,7.75,2.32,7.75,7.75v6C21.5,19.18,19.18,21.5,13.75,21.5Zm-6-20C3.14,1.5,1.5,3.14,1.5,7.75v6C1.5,18.36,3.14,20,7.75,20h6C18.36,20,20,18.36,20,13.75v-6c0-4.61-1.64-6.25-6.25-6.25Z" transform="translate(685.25 189.25)" fill="#292d32"/>
      <path id="Vector-2" data-name="Vector" d="M11.75,15.5h-8A3.381,3.381,0,0,1,0,11.75v-8A3.381,3.381,0,0,1,3.75,0h8A3.381,3.381,0,0,1,15.5,3.75v8A3.381,3.381,0,0,1,11.75,15.5Zm-8-14c-1.58,0-2.25.67-2.25,2.25v8c0,1.58.67,2.25,2.25,2.25h8c1.58,0,2.25-.67,2.25-2.25v-8c0-1.58-.67-2.25-2.25-2.25Z" transform="translate(688.25 192.25)" fill="#292d32"/>
      <path id="Vector-3" data-name="Vector" d="M3.23,6.5H.75A.75.75,0,0,1,.75,5H3.23a1.75,1.75,0,0,0,0-3.5H.75A.755.755,0,0,1,0,.75.755.755,0,0,1,.75,0H3.23a3.25,3.25,0,0,1,0,6.5Z" transform="translate(688.25 196.75)" fill="#292d32"/>
      <path id="Vector-4" data-name="Vector" d="M3.75,1.5h-3A.755.755,0,0,1,0,.75.755.755,0,0,1,.75,0h3A.755.755,0,0,1,4.5.75.755.755,0,0,1,3.75,1.5Z" transform="translate(699.25 197.24)" fill="#292d32"/>
      <path id="Vector-5" data-name="Vector" d="M3.75,1.5h-3A.755.755,0,0,1,0,.75.755.755,0,0,1,.75,0h3A.755.755,0,0,1,4.5.75.755.755,0,0,1,3.75,1.5Z" transform="translate(699.25 201.25)" fill="#292d32"/>
      <path id="Vector-6" data-name="Vector" d="M1,2a1,1,0,0,1-.38-.08,1.155,1.155,0,0,1-.33-.21A.99.99,0,0,1,0,1,1.052,1.052,0,0,1,.29.287,1.017,1.017,0,0,1,1.38.077a.933.933,0,0,1,.33.21A1.052,1.052,0,0,1,2,1a.99.99,0,0,1-.29.71,1.155,1.155,0,0,1-.33.21A1,1,0,0,1,1,2Z" transform="translate(690.25 199.003)" fill="#292d32"/>
      <path id="Vector-7" data-name="Vector" d="M0,0H24V24H0Z" transform="translate(684 188)" fill="none" opacity="0"/>
    </g>
  </g>
</svg>
