<svg xmlns="http://www.w3.org/2000/svg" width="24" height="24" viewBox="0 0 24 24">
  <g id="vuesax_outline_strongbox" data-name="vuesax/outline/strongbox" transform="translate(-172 -444)">
    <g id="strongbox">
      <path id="Vector" d="M13.75,21.5h-6C2.32,21.5,0,19.18,0,13.75v-6C0,2.32,2.32,0,7.75,0h6c5.43,0,7.75,2.32,7.75,7.75v6C21.5,19.18,19.18,21.5,13.75,21.5Zm-6-20C3.14,1.5,1.5,3.14,1.5,7.75v6C1.5,18.36,3.14,20,7.75,20h6C18.36,20,20,18.36,20,13.75v-6c0-4.61-1.64-6.25-6.25-6.25Z" transform="translate(173.25 445.25)" fill="#292d32"/>
      <path id="Vector-2" data-name="Vector" d="M3.13,9.117a2.006,2.006,0,0,1-2-2v-1.6A3.054,3.054,0,0,1,.04,3.567,2.892,2.892,0,0,1,0,3.117,3.093,3.093,0,0,1,1.22.647,3.155,3.155,0,0,1,3.96.107,3.123,3.123,0,0,1,6.15,2.3a3.016,3.016,0,0,1,.07,1.27,3.1,3.1,0,0,1-1.09,1.94v1.6A2.008,2.008,0,0,1,3.13,9.117ZM3.12,1.5a1.565,1.565,0,0,0-.99.34,1.615,1.615,0,0,0-.63,1.28.715.715,0,0,0,.02.21A1.609,1.609,0,0,0,2.28,4.5l.35.22v2.4a.5.5,0,0,0,1,0v-2.4l.35-.22a1.6,1.6,0,0,0,.75-1.14v-.02a1.425,1.425,0,0,0-.03-.65,1.594,1.594,0,0,0-1.13-1.13A1.74,1.74,0,0,0,3.12,1.5Z" transform="translate(180.87 451.443)" fill="#292d32"/>
      <path id="Vector-3" data-name="Vector" d="M0,0H7.65V1.5H0Z" transform="translate(186.35 454.16)" fill="#292d32"/>
      <path id="Vector-4" data-name="Vector" d="M0,0H7.65V1.5H0Z" transform="translate(174 454.16)" fill="#292d32"/>
      <path id="Vector-5" data-name="Vector" d="M0,0H24V24H0Z" transform="translate(172 444)" fill="none" opacity="0"/>
    </g>
  </g>
</svg>
