<svg xmlns="http://www.w3.org/2000/svg" width="24" height="24" viewBox="0 0 24 24">
  <g id="vuesax_outline_tag-right" data-name="vuesax/outline/tag-right" transform="translate(-300 -636)">
    <g id="tag-right">
      <path id="Vector" d="M13.427,19.3H2.977a2.972,2.972,0,0,1-2.52-4.55l2.77-4.43a1.443,1.443,0,0,0,0-1.34L.457,4.55a2.948,2.948,0,0,1-.08-3.02A2.938,2.938,0,0,1,2.977,0h11.44a3.19,3.19,0,0,1,2.52,1.4l4.18,6.68a2.949,2.949,0,0,1-.13,3.13l-5.18,6.9A3.247,3.247,0,0,1,13.427,19.3ZM2.977,1.5a1.449,1.449,0,0,0-1.29.76,1.467,1.467,0,0,0,.04,1.5L4.5,8.19a2.965,2.965,0,0,1,0,2.94l-2.77,4.43a1.467,1.467,0,0,0-.04,1.5,1.449,1.449,0,0,0,1.29.76h10.45a1.793,1.793,0,0,0,1.18-.59l5.18-6.9a1.434,1.434,0,0,0,.06-1.43l-4.18-6.68a1.727,1.727,0,0,0-1.25-.69H2.977Z" transform="translate(301.243 638.35)" fill="#292d32"/>
      <path id="Vector-2" data-name="Vector" d="M0,0H24V24H0Z" transform="translate(300 636)" fill="none" opacity="0"/>
    </g>
  </g>
</svg>
