<svg xmlns="http://www.w3.org/2000/svg" width="24" height="24" viewBox="0 0 24 24">
  <g id="vuesax_outline_tag-2" data-name="vuesax/outline/tag-2" transform="translate(-620 -444)">
    <g id="tag-2">
      <path id="Vector" d="M10.046,19.966a5.512,5.512,0,0,1-3.9-1.61l-4.53-4.53a5.548,5.548,0,0,1-1.61-4.17l.24-5.01a4.607,4.607,0,0,1,4.4-4.4l5-.24a5.534,5.534,0,0,1,4.17,1.61l4.53,4.53a5.535,5.535,0,0,1,0,7.81l-4.39,4.39A5.5,5.5,0,0,1,10.046,19.966Zm-7.37-7.21,4.53,4.53a4.026,4.026,0,0,0,5.69,0l4.39-4.39a4.026,4.026,0,0,0,0-5.69l-4.54-4.52a4.021,4.021,0,0,0-3.04-1.17l-5,.24a3.092,3.092,0,0,0-2.97,2.96L1.5,9.726A4.051,4.051,0,0,0,2.676,12.756Z" transform="translate(622.024 446.014)" fill="#292d32"/>
      <path id="Vector-2" data-name="Vector" d="M3.25,6.5A3.25,3.25,0,1,1,6.5,3.25,3.256,3.256,0,0,1,3.25,6.5Zm0-5A1.75,1.75,0,1,0,5,3.25,1.758,1.758,0,0,0,3.25,1.5Z" transform="translate(626.25 450.25)" fill="#292d32"/>
      <path id="Vector-3" data-name="Vector" d="M.747,5.5a.742.742,0,0,1-.53-.22.754.754,0,0,1,0-1.06l4-4a.75.75,0,0,1,1.06,1.06l-4,4A.742.742,0,0,1,.747,5.5Z" transform="translate(632.253 456.253)" fill="#292d32"/>
      <path id="Vector-4" data-name="Vector" d="M0,0H24V24H0Z" transform="translate(620 444)" fill="none" opacity="0"/>
    </g>
  </g>
</svg>
