<svg xmlns="http://www.w3.org/2000/svg" width="24" height="24" viewBox="0 0 24 24">
  <g id="vuesax_outline_tag" data-name="vuesax/outline/tag" transform="translate(-556 -444)">
    <g id="tag">
      <path id="Vector" d="M10.046,19.954a5.512,5.512,0,0,1-3.9-1.61l-4.53-4.53a5.548,5.548,0,0,1-1.61-4.17l.24-5a4.607,4.607,0,0,1,4.4-4.4l5-.24a5.586,5.586,0,0,1,4.17,1.61l4.53,4.53a5.535,5.535,0,0,1,0,7.81l-4.39,4.39A5.535,5.535,0,0,1,10.046,19.954Zm-7.37-7.21,4.53,4.53a4.008,4.008,0,0,0,5.68,0l4.39-4.39a4.008,4.008,0,0,0,0-5.68l-4.53-4.53A4,4,0,0,0,9.716,1.5l-5,.24A3.094,3.094,0,0,0,1.736,4.7l-.24,5A4.058,4.058,0,0,0,2.676,12.744Z" transform="translate(558.024 446.026)" fill="#292d32"/>
      <path id="Vector-2" data-name="Vector" d="M3.25,6.5A3.25,3.25,0,1,1,6.5,3.25,3.256,3.256,0,0,1,3.25,6.5Zm0-5A1.75,1.75,0,1,0,5,3.25,1.758,1.758,0,0,0,3.25,1.5Z" transform="translate(562.25 450.25)" fill="#292d32"/>
      <path id="Vector-3" data-name="Vector" d="M0,0H24V24H0Z" transform="translate(556 444)" fill="none" opacity="0"/>
    </g>
  </g>
</svg>
