<svg xmlns="http://www.w3.org/2000/svg" width="24" height="24" viewBox="0 0 24 24">
  <g id="vuesax_outline_task-square" data-name="vuesax/outline/task-square" transform="translate(-492 -316)">
    <g id="task-square">
      <path id="Vector" d="M6,1.5H.75A.755.755,0,0,1,0,.75.755.755,0,0,1,.75,0H6A.75.75,0,0,1,6,1.5Z" transform="translate(503.62 324.12)" fill="#292d32"/>
      <path id="Vector-2" data-name="Vector" d="M1.5,3.748a.742.742,0,0,1-.53-.22l-.75-.75a.75.75,0,0,1,1.06-1.06l.22.22L3.217.218a.75.75,0,0,1,1.06,1.06l-2.25,2.25A.749.749,0,0,1,1.5,3.748Z" transform="translate(497.622 322.633)" fill="#292d32"/>
      <path id="Vector-3" data-name="Vector" d="M6,1.5H.75A.755.755,0,0,1,0,.75.755.755,0,0,1,.75,0H6A.75.75,0,0,1,6,1.5Z" transform="translate(503.62 331.12)" fill="#292d32"/>
      <path id="Vector-4" data-name="Vector" d="M1.5,3.747a.742.742,0,0,1-.53-.22l-.75-.75a.75.75,0,0,1,1.06-1.06l.22.22L3.217.218a.75.75,0,0,1,1.06,1.06l-2.25,2.25A.749.749,0,0,1,1.5,3.747Z" transform="translate(497.622 329.633)" fill="#292d32"/>
      <path id="Vector-5" data-name="Vector" d="M0,0H24V24H0Z" transform="translate(492 316)" fill="none" opacity="0"/>
      <path id="Vector-6" data-name="Vector" d="M13.75,21.5h-6C2.32,21.5,0,19.18,0,13.75v-6C0,2.32,2.32,0,7.75,0h6c5.43,0,7.75,2.32,7.75,7.75v6C21.5,19.18,19.18,21.5,13.75,21.5Zm-6-20C3.14,1.5,1.5,3.14,1.5,7.75v6C1.5,18.36,3.14,20,7.75,20h6C18.36,20,20,18.36,20,13.75v-6c0-4.61-1.64-6.25-6.25-6.25Z" transform="translate(493.25 317.25)" fill="#292d32"/>
    </g>
  </g>
</svg>
