<svg xmlns="http://www.w3.org/2000/svg" width="24" height="24" viewBox="0 0 24 24">
  <g id="vuesax_outline_ticket-2" data-name="vuesax/outline/ticket-2" transform="translate(-684 -572)">
    <g id="ticket-2">
      <path id="Vector" d="M14.82,16.5H5.44C1.27,16.5,0,15.23,0,11.06V10.6a.755.755,0,0,1,.75-.75,1.6,1.6,0,0,0,0-3.2A.755.755,0,0,1,0,5.9V5.44C0,1.27,1.27,0,5.44,0h9.38c4.17,0,5.44,1.27,5.44,5.44v.94a.755.755,0,0,1-.75.75,1.6,1.6,0,1,0,0,3.19.755.755,0,0,1,.75.75C20.25,15.23,18.98,16.5,14.82,16.5ZM1.51,11.26C1.53,14.44,2.16,15,5.45,15h9.38c3.12,0,3.84-.51,3.93-3.28a3.1,3.1,0,0,1,.01-6.01V5.43c0-3.35-.59-3.94-3.94-3.94H5.44c-3.28,0-3.91.57-3.94,3.74A3.11,3.11,0,0,1,3.85,8.24,3.123,3.123,0,0,1,1.51,11.26Z" transform="translate(685.87 578.25)" fill="#292d32"/>
      <path id="Vector-2" data-name="Vector" d="M.75,4A.755.755,0,0,1,0,3.25V.75A.755.755,0,0,1,.75,0,.755.755,0,0,1,1.5.75v2.5A.755.755,0,0,1,.75,4Z" transform="translate(693.25 578.25)" fill="#292d32"/>
      <path id="Vector-3" data-name="Vector" d="M.75,4.83A.755.755,0,0,1,0,4.08V.75A.755.755,0,0,1,.75,0,.755.755,0,0,1,1.5.75V4.08A.755.755,0,0,1,.75,4.83Z" transform="translate(693.25 584.09)" fill="#292d32"/>
      <path id="Vector-4" data-name="Vector" d="M.75,4A.755.755,0,0,1,0,3.25V.75A.755.755,0,0,1,.75,0,.755.755,0,0,1,1.5.75v2.5A.755.755,0,0,1,.75,4Z" transform="translate(693.25 590.75)" fill="#292d32"/>
      <path id="Vector-5" data-name="Vector" d="M9.834,6.235H.744a.741.741,0,0,1-.69-.46.772.772,0,0,1,.16-.82l2.93-2.93c2.7-2.7,4.35-2.7,7.04,0l.6.6a.748.748,0,0,1,0,1.06,1.334,1.334,0,0,0-.28,1.5.741.741,0,0,1-.05.72A.75.75,0,0,1,9.834,6.235Zm-7.28-1.5h6.33a2.8,2.8,0,0,1,.38-1.52l-.13-.13C7.044,1,6.3,1,4.214,3.085Z" transform="translate(690.496 573.515)" fill="#292d32"/>
      <path id="Vector-6" data-name="Vector" d="M0,0H24V24H0Z" transform="translate(684 572)" fill="none" opacity="0"/>
    </g>
  </g>
</svg>
