<svg xmlns="http://www.w3.org/2000/svg" width="24" height="24" viewBox="0 0 24 24">
  <g id="vuesax_outline_ticket-expired" data-name="vuesax/outline/ticket-expired" transform="translate(-620 -572)">
    <g id="ticket-expired">
      <path id="Vector" d="M7.22,16.29H.75a.75.75,0,0,1,0-1.5H7.22c3.06,0,3.78-.5,3.86-3.22a3.066,3.066,0,0,1,.01-5.94V5.37c0-3.29-.58-3.87-3.87-3.87H1.59V7.54a.755.755,0,0,1-.75.75.755.755,0,0,1-.75-.75V.75A.755.755,0,0,1,.84,0H7.22c4.12,0,5.37,1.25,5.37,5.37v.92a.755.755,0,0,1-.75.75,1.565,1.565,0,0,0,0,3.13.755.755,0,0,1,.75.75C12.59,15.04,11.34,16.29,7.22,16.29Z" transform="translate(630.16 576.46)" fill="#292d32"/>
      <path id="Vector-2" data-name="Vector" d="M9.741,17.387H6.971c-2.02,0-3.06-1.52-4.01-3.8l-.19-.46a.75.75,0,0,1,.01-.57.764.764,0,0,1,.41-.4,1.613,1.613,0,0,0,.88-.86,1.571,1.571,0,0,0,0-1.24,1.625,1.625,0,0,0-2.12-.9.731.731,0,0,1-.58-.01.764.764,0,0,1-.4-.41L.8,8.307c-1.6-3.89-.9-5.56,2.99-7.17L6.431.057a.754.754,0,0,1,.98.41l3.03,7.34a.717.717,0,0,1,.06.29v2.54a.75.75,0,1,1-1.5,0v-2.4L6.3,1.727l-1.94.8c-3.08,1.27-3.45,2.05-2.24,5.05a3.123,3.123,0,0,1,3.34,1.9,3.109,3.109,0,0,1-1.05,3.7c.96,2.26,1.66,2.71,2.55,2.71h2.02v-2.25a.75.75,0,0,1,1.5,0v3A.741.741,0,0,1,9.741,17.387Z" transform="translate(621.259 575.363)" fill="#292d32"/>
      <path id="Vector-3" data-name="Vector" d="M.92,1.5H.75A.755.755,0,0,1,0,.75.755.755,0,0,1,.75,0H.92a.755.755,0,0,1,.75.75A.755.755,0,0,1,.92,1.5Z" transform="translate(627.25 591.25)" fill="#292d32"/>
      <path id="Vector-4" data-name="Vector" d="M0,0H24V24H0Z" transform="translate(620 572)" fill="none" opacity="0"/>
    </g>
  </g>
</svg>
