<svg xmlns="http://www.w3.org/2000/svg" width="24" height="24" viewBox="0 0 24 24">
  <g id="vuesax_outline_tree" data-name="vuesax/outline/tree" transform="translate(-108 -636)">
    <g id="tree">
      <path id="Vector" d="M10.323,9.564H1.983a1.932,1.932,0,0,1-1.82-.92,1.918,1.918,0,0,1,.32-2.01L4.653.794A1.827,1.827,0,0,1,7.673.8l4.17,5.83a1.918,1.918,0,0,1,.32,2.01A1.987,1.987,0,0,1,10.323,9.564Zm-4.17-8.11a.414.414,0,0,0-.28.2L1.7,7.5c-.2.27-.21.43-.2.46s.15.1.49.1h8.34a.8.8,0,0,0,.49-.11.9.9,0,0,0-.2-.45l-4.17-5.84Q6.288,1.454,6.153,1.454Z" transform="translate(113.848 637.246)" fill="#292d32"/>
      <path id="Vector-2" data-name="Vector" d="M13.572,9.44H2.4a2.257,2.257,0,0,1-2.21-1.1A2.248,2.248,0,0,1,.6,5.91L4.592.31A.74.74,0,0,1,5.2,0h5.57a.767.767,0,0,1,.61.31l3.99,5.61a2.222,2.222,0,0,1,.4,2.42A2.238,2.238,0,0,1,13.572,9.44ZM5.582,1.5,1.812,6.79c-.32.44-.35.74-.29.87s.33.28.87.28h11.17c.54,0,.81-.15.87-.28s.03-.43-.29-.87l-3.77-5.3H5.582Z" transform="translate(112.018 645.31)" fill="#292d32"/>
      <path id="Vector-3" data-name="Vector" d="M.75,5.5A.755.755,0,0,1,0,4.75v-4A.755.755,0,0,1,.75,0,.755.755,0,0,1,1.5.75v4A.755.755,0,0,1,.75,5.5Z" transform="translate(119.25 653.25)" fill="#292d32"/>
      <path id="Vector-4" data-name="Vector" d="M0,0H24V24H0Z" transform="translate(108 636)" fill="none" opacity="0"/>
    </g>
  </g>
</svg>
