<svg xmlns="http://www.w3.org/2000/svg" width="24" height="24" viewBox="0 0 24 24">
  <g id="vuesax_outline_triangle" data-name="vuesax/outline/triangle" transform="translate(-236 -508)">
    <g id="triangle">
      <path id="Vector" d="M16.816,20.32H4.7A4.606,4.606,0,0,1,.5,18.33,4.584,4.584,0,0,1,.8,13.7L6.856,2.79c1-1.8,2.38-2.79,3.9-2.79s2.9.99,3.9,2.79l6.06,10.91a4.561,4.561,0,0,1,.3,4.63A4.606,4.606,0,0,1,16.816,20.32ZM10.756,1.5c-.94,0-1.86.72-2.59,2.02L2.116,14.43a3.2,3.2,0,0,0-.32,3.15,3.2,3.2,0,0,0,2.91,1.25h12.12a3.186,3.186,0,0,0,2.91-1.25,3.2,3.2,0,0,0-.32-3.15L13.346,3.52C12.616,2.22,11.7,1.5,10.756,1.5Z" transform="translate(237.244 509.84)" fill="#292d32"/>
      <path id="Vector-2" data-name="Vector" d="M19.628,8.105a.692.692,0,0,1-.43-.14l-9.01-6.31-9.01,6.31a.74.74,0,0,1-1.04-.18.74.74,0,0,1,.18-1.04L9.758.135a.752.752,0,0,1,.86,0l9.44,6.61a.743.743,0,0,1,.18,1.04A.724.724,0,0,1,19.628,8.105Z" transform="translate(237.812 520.645)" fill="#292d32"/>
      <path id="Vector-3" data-name="Vector" d="M.75,11.89A.755.755,0,0,1,0,11.14V.75A.755.755,0,0,1,.75,0,.755.755,0,0,1,1.5.75V11.14A.755.755,0,0,1,.75,11.89Z" transform="translate(247.25 510.25)" fill="#292d32"/>
      <path id="Vector-4" data-name="Vector" d="M0,0H24V24H0Z" transform="translate(236 508)" fill="none" opacity="0"/>
    </g>
  </g>
</svg>
