<svg xmlns="http://www.w3.org/2000/svg" width="24" height="24" viewBox="0 0 24 24">
  <g id="vuesax_outline_trush-square" data-name="vuesax/outline/trush-square" transform="translate(-364 -572)">
    <g id="trush-square">
      <path id="Vector" d="M13.75,21.5h-6C2.32,21.5,0,19.18,0,13.75v-6C0,2.32,2.32,0,7.75,0h6c5.43,0,7.75,2.32,7.75,7.75v6C21.5,19.18,19.18,21.5,13.75,21.5Zm-6-20C3.14,1.5,1.5,3.14,1.5,7.75v6C1.5,18.36,3.14,20,7.75,20h6C18.36,20,20,18.36,20,13.75v-6c0-4.61-1.64-6.25-6.25-6.25Z" transform="translate(365.25 573.25)" fill="#292d32"/>
      <path id="Vector-2" data-name="Vector" d="M12.544,1.826h-.07A51.538,51.538,0,0,0,2.164,1.7l-1.34.13A.749.749,0,0,1,.674.336l1.34-.13a53.8,53.8,0,0,1,10.61.13.751.751,0,0,1,.67.82A.757.757,0,0,1,12.544,1.826Z" transform="translate(369.356 579.974)" fill="#292d32"/>
      <path id="Vector-3" data-name="Vector" d="M5.338,3.43a.751.751,0,0,1-.74-.62l-.14-.85a1.433,1.433,0,0,0-.1-.41,1.045,1.045,0,0,0-.46-.06H2.178a1.076,1.076,0,0,0-.47.06,2.74,2.74,0,0,0-.08.4l-.14.86a.76.76,0,0,1-.86.62.76.76,0,0,1-.62-.86l.14-.86A1.757,1.757,0,0,1,2.178,0H3.9a1.771,1.771,0,0,1,2.03,1.72l.14.85a.742.742,0,0,1-.61.86Z" transform="translate(372.952 577.71)" fill="#292d32"/>
      <path id="Vector-4" data-name="Vector" d="M7.352,9.942H3.142c-2.53,0-2.64-1.52-2.71-2.53L0,.8A.752.752,0,1,1,1.5.7l.43,6.6c.07.98.08,1.13,1.21,1.13h4.21c1.13,0,1.14-.15,1.21-1.13L8.992.7a.752.752,0,1,1,1.5.1l-.43,6.6C9.992,8.422,9.892,9.942,7.352,9.942Z" transform="translate(370.748 580.368)" fill="#292d32"/>
      <path id="Vector-5" data-name="Vector" d="M0,0H24V24H0Z" transform="translate(364 572)" fill="none" opacity="0"/>
    </g>
  </g>
</svg>
