<svg xmlns="http://www.w3.org/2000/svg" width="24" height="24" viewBox="0 0 24 24">
  <g id="vuesax_outline_wallet-3" data-name="vuesax/outline/wallet-3" transform="translate(-364 -380)">
    <g id="wallet-3">
      <path id="Vector" d="M6.75,1.5h-6A.755.755,0,0,1,0,.75.755.755,0,0,1,.75,0h6A.755.755,0,0,1,7.5.75.755.755,0,0,1,6.75,1.5Z" transform="translate(370.25 390.4)" fill="#292d32"/>
      <path id="Vector-2" data-name="Vector" d="M.75,9.81A.755.755,0,0,1,0,9.06V4.44A4.443,4.443,0,0,1,4.44,0h5.62A4.125,4.125,0,0,1,14.5,4.06a.75.75,0,0,1-1.5,0A2.67,2.67,0,0,0,10.06,1.5H4.44A2.945,2.945,0,0,0,1.5,4.44V9.06A.749.749,0,0,1,.75,9.81Z" transform="translate(365.25 382.09)" fill="#292d32"/>
      <path id="Vector-3" data-name="Vector" d="M14.75,16.5h-10A4.754,4.754,0,0,1,0,11.75v-7A4.754,4.754,0,0,1,4.75,0h10A4.754,4.754,0,0,1,19.5,4.75V6.2a.755.755,0,0,1-.75.75H17.67a1.229,1.229,0,0,0-.9.37l-.01.01a1.271,1.271,0,0,0-.34,1.24,1.427,1.427,0,0,0,1.4.97h.93a.755.755,0,0,1,.75.75v1.45A4.756,4.756,0,0,1,14.75,16.5Zm-10-15A3.256,3.256,0,0,0,1.5,4.75v7A3.256,3.256,0,0,0,4.75,15h10A3.256,3.256,0,0,0,18,11.75v-.7h-.18a2.9,2.9,0,0,1-2.85-2.08,2.779,2.779,0,0,1,.73-2.7,2.736,2.736,0,0,1,1.97-.82H18v-.7A3.256,3.256,0,0,0,14.75,1.5Z" transform="translate(365.25 385.4)" fill="#292d32"/>
      <path id="Vector-4" data-name="Vector" d="M4.853,5.6H2.923A2.879,2.879,0,0,1,.013,3.04,2.745,2.745,0,0,1,.833.81,2.71,2.71,0,0,1,2.793,0h2.05a1.775,1.775,0,0,1,1.78,1.77V3.83A1.761,1.761,0,0,1,4.853,5.6ZM2.8,1.5a1.229,1.229,0,0,0-.9.37,1.259,1.259,0,0,0-.39,1.04A1.386,1.386,0,0,0,2.923,4.1h1.93a.278.278,0,0,0,.28-.27V1.77a.278.278,0,0,0-.28-.27Z" transform="translate(380.117 390.85)" fill="#292d32"/>
      <path id="Vector-5" data-name="Vector" d="M0,0H24V24H0Z" transform="translate(388 404) rotate(180)" fill="none" opacity="0"/>
    </g>
  </g>
</svg>
