<svg xmlns="http://www.w3.org/2000/svg" width="24" height="24" viewBox="0 0 24 24">
  <g id="vuesax_outline_wallet-search" data-name="vuesax/outline/wallet-search" transform="translate(-620 -188)">
    <g id="wallet-search">
      <path id="Vector" d="M15.75,16.5h-5a.75.75,0,0,1,0-1.5h5A3.984,3.984,0,0,0,20,10.75v-5A4.023,4.023,0,0,0,16.46,1.5H5.75a1.494,1.494,0,0,0-.56.06.4.4,0,0,1-.15.03A3.843,3.843,0,0,0,1.5,5.75v1a.755.755,0,0,1-.75.75A.755.755,0,0,1,0,6.75v-1A5.351,5.351,0,0,1,4.79.11,3.11,3.11,0,0,1,5.75,0h10.8A5.486,5.486,0,0,1,21.5,5.75v5A5.443,5.443,0,0,1,15.75,16.5Z" transform="translate(621.25 194.25)" fill="#292d32"/>
      <path id="Vector-2" data-name="Vector" d="M.749,6.609a.75.75,0,0,1-.71-.99,2.766,2.766,0,0,1,.78-1.09l3.19-3.29a4.35,4.35,0,0,1,6.07-.01l1.8,1.8a4.424,4.424,0,0,1,1.21,2.64.742.742,0,0,1-.74.84H1.549a1.494,1.494,0,0,0-.56.06A.672.672,0,0,1,.749,6.609Zm1.69-1.6H11.4a2.685,2.685,0,0,0-.58-.92l-1.8-1.8a2.819,2.819,0,0,0-3.94,0Z" transform="translate(625.451 189.241)" fill="#292d32"/>
      <path id="Vector-3" data-name="Vector" d="M5.75,5.5h-3a2.75,2.75,0,0,1,0-5.5h3A.755.755,0,0,1,6.5.75a.755.755,0,0,1-.75.75h-3a1.25,1.25,0,0,0,0,2.5h3a.75.75,0,0,1,0,1.5Z" transform="translate(636.25 199.75)" fill="#292d32"/>
      <path id="Vector-4" data-name="Vector" d="M3.95,7.9A3.95,3.95,0,1,1,7.9,3.95,3.952,3.952,0,0,1,3.95,7.9Zm0-6.4A2.45,2.45,0,1,0,6.4,3.95,2.454,2.454,0,0,0,3.95,1.5Z" transform="translate(621.85 202.25)" fill="#292d32"/>
      <path id="Vector-5" data-name="Vector" d="M.747,2.5a.742.742,0,0,1-.53-.22.755.755,0,0,1,0-1.06l1-1a.75.75,0,0,1,1.06,1.06l-1,1A.742.742,0,0,1,.747,2.5Z" transform="translate(621.252 208.252)" fill="#292d32"/>
      <path id="Vector-6" data-name="Vector" d="M24,0H0V24H24Z" transform="translate(620 188)" fill="none" opacity="0"/>
    </g>
  </g>
</svg>
