<svg xmlns="http://www.w3.org/2000/svg" width="24" height="24" viewBox="0 0 24 24">
  <g id="vuesax_outline_wallet-2" data-name="vuesax/outline/wallet-2" transform="translate(-684 -316)">
    <g id="wallet-2">
      <path id="Vector" d="M6.75,1.5h-6A.755.755,0,0,1,0,.75.755.755,0,0,1,.75,0h6A.755.755,0,0,1,7.5.75.755.755,0,0,1,6.75,1.5Z" transform="translate(690.25 324.25)" fill="#292d32"/>
      <path id="Vector-2" data-name="Vector" d="M2.923,5.6A2.879,2.879,0,0,1,.013,3.04,2.745,2.745,0,0,1,.833.81,2.71,2.71,0,0,1,2.793,0h2.09a1.775,1.775,0,0,1,1.75,1.77V3.83A1.77,1.77,0,0,1,4.913,5.6Zm1.93-4.1H2.8a1.229,1.229,0,0,0-.9.37,1.259,1.259,0,0,0-.39,1.04A1.386,1.386,0,0,0,2.923,4.1h1.96a.265.265,0,0,0,.25-.27V1.77A.278.278,0,0,0,4.853,1.5Z" transform="translate(700.117 325.2)" fill="#292d32"/>
      <path id="Vector-3" data-name="Vector" d="M14.75,18.5h-9A5.443,5.443,0,0,1,0,12.75v-7A5.4,5.4,0,0,1,4.85.07,6.207,6.207,0,0,1,5.75,0h9a5.691,5.691,0,0,1,.87.06A5.39,5.39,0,0,1,20.5,5.75V7.2a.755.755,0,0,1-.75.75H17.67a1.229,1.229,0,0,0-.9.37l-.01.01a1.262,1.262,0,0,0-.38,1.02,1.386,1.386,0,0,0,1.41,1.19h1.96a.755.755,0,0,1,.75.75v1.45A5.446,5.446,0,0,1,14.75,18.5Zm-9-17a5.364,5.364,0,0,0-.7.05A3.925,3.925,0,0,0,1.5,5.75v7A3.984,3.984,0,0,0,5.75,17h9A3.984,3.984,0,0,0,19,12.75v-.7H17.79a2.879,2.879,0,0,1-2.91-2.56,2.815,2.815,0,0,1,2.79-3.04H19v-.7a3.927,3.927,0,0,0-3.59-4.21,3.825,3.825,0,0,0-.66-.04Z" transform="translate(685.25 318.75)" fill="#292d32"/>
      <path id="Vector-4" data-name="Vector" d="M0,0H24V24H0Z" transform="translate(708 340) rotate(180)" fill="none" opacity="0"/>
    </g>
  </g>
</svg>
