<svg xmlns="http://www.w3.org/2000/svg" width="24" height="24" viewBox="0 0 24 24">
  <g id="vuesax_outline_wallet-money" data-name="vuesax/outline/wallet-money" transform="translate(-108 -380)">
    <g id="wallet-money">
      <path id="Vector" d="M4.33,6.65A4.124,4.124,0,0,1,0,2.79V.75A.755.755,0,0,1,.75,0,.755.755,0,0,1,1.5.75C1.5,2,2.71,2.94,4.33,2.94S7.16,2,7.16.75a.75.75,0,0,1,1.5,0V2.79A4.117,4.117,0,0,1,4.33,6.65ZM1.76,3.77A2.882,2.882,0,0,0,4.33,5.15,2.9,2.9,0,0,0,6.9,3.77a4.942,4.942,0,0,1-2.57.68A4.942,4.942,0,0,1,1.76,3.77Z" transform="translate(110.84 396.1)" fill="#292d32"/>
      <path id="Vector-2" data-name="Vector" d="M4.33,7.516A4.458,4.458,0,0,1,.49,5.576,3.348,3.348,0,0,1,0,3.826a3.629,3.629,0,0,1,1.3-2.76,4.828,4.828,0,0,1,6.04-.01,3.675,3.675,0,0,1,1.31,2.77,3.348,3.348,0,0,1-.49,1.75A4.427,4.427,0,0,1,4.33,7.516Zm0-6.05a3.086,3.086,0,0,0-2.04.73,2.15,2.15,0,0,0-.79,1.63,1.844,1.844,0,0,0,.27.97,2.94,2.94,0,0,0,2.56,1.23,2.926,2.926,0,0,0,2.55-1.22,1.819,1.819,0,0,0,.27-.97A2.186,2.186,0,0,0,6.36,2.2,3.041,3.041,0,0,0,4.33,1.466Z" transform="translate(110.84 390.284)" fill="#292d32"/>
      <path id="Vector-3" data-name="Vector" d="M4.33,10.3C1.86,10.3,0,8.71,0,6.61V3.86A4.117,4.117,0,0,1,4.33,0,4.623,4.623,0,0,1,7.35,1.09,3.675,3.675,0,0,1,8.66,3.86V6.61C8.66,8.71,6.8,10.3,4.33,10.3Zm0-8.8A2.631,2.631,0,0,0,1.5,3.86V6.61C1.5,7.86,2.71,8.8,4.33,8.8s2.83-.94,2.83-2.19V3.86a2.186,2.186,0,0,0-.79-1.64A3.132,3.132,0,0,0,4.33,1.5Z" transform="translate(110.84 390.25)" fill="#292d32"/>
      <path id="Vector-4" data-name="Vector" d="M2.923,5.6A2.879,2.879,0,0,1,.013,3.04,2.745,2.745,0,0,1,.833.81,2.71,2.71,0,0,1,2.793,0h2.09a1.775,1.775,0,0,1,1.75,1.77V3.83A1.77,1.77,0,0,1,4.913,5.6Zm1.93-4.1H2.8a1.229,1.229,0,0,0-.9.37,1.259,1.259,0,0,0-.39,1.04A1.386,1.386,0,0,0,2.923,4.1h1.96a.265.265,0,0,0,.25-.27V1.77A.278.278,0,0,0,4.853,1.5Z" transform="translate(124.117 389.2)" fill="#292d32"/>
      <path id="Vector-5" data-name="Vector" d="M14.76,18.5h-2.5a.75.75,0,0,1,0-1.5h2.5a3.984,3.984,0,0,0,4.25-4.25v-.7H17.8a2.879,2.879,0,0,1-2.91-2.56,2.745,2.745,0,0,1,.82-2.23,2.71,2.71,0,0,1,1.96-.81H19v-.7a3.927,3.927,0,0,0-3.59-4.21,3.826,3.826,0,0,0-.66-.04h-9a5.364,5.364,0,0,0-.7.05A3.925,3.925,0,0,0,1.5,5.75v2a.755.755,0,0,1-.75.75A.755.755,0,0,1,0,7.75v-2A5.4,5.4,0,0,1,4.85.07,6.206,6.206,0,0,1,5.75,0h9a5.691,5.691,0,0,1,.87.06A5.39,5.39,0,0,1,20.5,5.75V7.2a.755.755,0,0,1-.75.75H17.67a1.229,1.229,0,0,0-.9.37,1.259,1.259,0,0,0-.39,1.04,1.386,1.386,0,0,0,1.41,1.19h1.97a.755.755,0,0,1,.75.75v1.45A5.443,5.443,0,0,1,14.76,18.5Z" transform="translate(109.24 382.75)" fill="#292d32"/>
      <path id="Vector-6" data-name="Vector" d="M0,0H24V24H0Z" transform="translate(132 404) rotate(180)" fill="none" opacity="0"/>
    </g>
  </g>
</svg>
