<svg xmlns="http://www.w3.org/2000/svg" width="24" height="24" viewBox="0 0 24 24">
  <g id="vuesax_outline_wallet-check" data-name="vuesax/outline/wallet-check" transform="translate(-300 -188)">
    <g id="wallet-check">
      <path id="Vector" d="M4.75,9.5A4.721,4.721,0,0,1,.69,7.19,4.612,4.612,0,0,1,0,4.75a4.75,4.75,0,0,1,9.5,0A4.672,4.672,0,0,1,8.81,7.2,4.734,4.734,0,0,1,4.75,9.5Zm0-8A3.256,3.256,0,0,0,1.5,4.75a3.169,3.169,0,0,0,.47,1.67A3.189,3.189,0,0,0,4.75,8,3.255,3.255,0,0,0,8,4.75,3.256,3.256,0,0,0,4.75,1.5Z" transform="translate(300.25 202.25)" fill="#292d32"/>
      <path id="Vector-2" data-name="Vector" d="M1.738,3.468a.742.742,0,0,1-.53-.22l-.99-.99A.75.75,0,0,1,1.278,1.2l.48.48L3.357.2a.75.75,0,0,1,1.02,1.1l-2.13,1.97A.782.782,0,0,1,1.738,3.468Z" transform="translate(302.692 205.272)" fill="#292d32"/>
      <path id="Vector-3" data-name="Vector" d="M0,0H24V24H0Z" transform="translate(300 188)" fill="none" opacity="0"/>
      <path id="Vector-4" data-name="Vector" d="M.754,6.558a.753.753,0,0,1-.61-.31.735.735,0,0,1-.06-.78A3.592,3.592,0,0,1,.8,4.5l3.25-3.26a4.279,4.279,0,0,1,6.02,0l1.75,1.78a4.152,4.152,0,0,1,1.24,2.75.752.752,0,0,1-.25.6.744.744,0,0,1-.62.18,4.26,4.26,0,0,0-.63-.04h-10a5.364,5.364,0,0,0-.7.05ZM2.424,5h8.96a2.662,2.662,0,0,0-.62-.93L9,2.287a2.789,2.789,0,0,0-3.9,0Z" transform="translate(305.436 189.252)" fill="#292d32"/>
      <path id="Vector-5" data-name="Vector" d="M15.77,16.5H6.4a.76.76,0,0,1-.71-.49.744.744,0,0,1,.22-.83,2.778,2.778,0,0,0,.62-.74,3.148,3.148,0,0,0,.48-1.68,3.246,3.246,0,0,0-5.69-2.14.765.765,0,0,1-.83.21.757.757,0,0,1-.49-.7V5.75A5.4,5.4,0,0,1,4.85.07,6.207,6.207,0,0,1,5.75,0h10a5.691,5.691,0,0,1,.87.06A5.39,5.39,0,0,1,21.5,5.75v5A5.417,5.417,0,0,1,15.77,16.5ZM7.95,15h7.82a3.984,3.984,0,0,0,4.25-4.25v-5a3.927,3.927,0,0,0-3.59-4.21,3.826,3.826,0,0,0-.66-.04h-10a5.364,5.364,0,0,0-.7.05,3.925,3.925,0,0,0-3.55,4.2V8.57A4.745,4.745,0,0,1,7.95,15Z" transform="translate(301.23 194.25)" fill="#292d32"/>
      <path id="Vector-6" data-name="Vector" d="M5.75,5.5h-3a2.75,2.75,0,0,1,0-5.5h3A.755.755,0,0,1,6.5.75a.755.755,0,0,1-.75.75h-3a1.25,1.25,0,0,0,0,2.5h3a.75.75,0,0,1,0,1.5Z" transform="translate(316.25 199.75)" fill="#292d32"/>
    </g>
  </g>
</svg>
