<svg xmlns="http://www.w3.org/2000/svg" width="24" height="24" viewBox="0 0 24 24">
  <g id="vuesax_outline_wallet-remove" data-name="vuesax/outline/wallet-remove" transform="translate(-684 -380)">
    <g id="wallet-remove">
      <path id="Vector" d="M15.77,16.5H6.4a.76.76,0,0,1-.71-.49.748.748,0,0,1,.22-.83,2.778,2.778,0,0,0,.62-.74,3.148,3.148,0,0,0,.48-1.68,3.246,3.246,0,0,0-5.69-2.14.765.765,0,0,1-.83.21.757.757,0,0,1-.49-.7V5.75A5.4,5.4,0,0,1,4.85.07,6.206,6.206,0,0,1,5.75,0h10a5.691,5.691,0,0,1,.87.06A5.39,5.39,0,0,1,21.5,5.75v5A5.417,5.417,0,0,1,15.77,16.5ZM7.95,15h7.82a3.984,3.984,0,0,0,4.25-4.25v-5a3.927,3.927,0,0,0-3.59-4.21,3.825,3.825,0,0,0-.66-.04h-10a5.364,5.364,0,0,0-.7.05,3.925,3.925,0,0,0-3.55,4.2V8.57A4.745,4.745,0,0,1,7.95,15Z" transform="translate(685.23 386.25)" fill="#292d32"/>
      <path id="Vector-2" data-name="Vector" d="M.754,6.558a.753.753,0,0,1-.61-.31.735.735,0,0,1-.06-.78A3.592,3.592,0,0,1,.8,4.5l3.25-3.26a4.279,4.279,0,0,1,6.02,0l1.75,1.78a4.152,4.152,0,0,1,1.24,2.75.752.752,0,0,1-.25.6.744.744,0,0,1-.62.18,4.261,4.261,0,0,0-.63-.04h-10a5.364,5.364,0,0,0-.7.05ZM2.424,5h8.96a2.662,2.662,0,0,0-.62-.93L9,2.287a2.789,2.789,0,0,0-3.9,0Z" transform="translate(689.436 381.252)" fill="#292d32"/>
      <path id="Vector-3" data-name="Vector" d="M5.75,5.5h-3a2.75,2.75,0,0,1,0-5.5h3A.755.755,0,0,1,6.5.75a.755.755,0,0,1-.75.75h-3a1.25,1.25,0,0,0,0,2.5h3a.75.75,0,0,1,0,1.5Z" transform="translate(700.25 391.75)" fill="#292d32"/>
      <path id="Vector-4" data-name="Vector" d="M4.75,9.5A4.721,4.721,0,0,1,.69,7.19,4.612,4.612,0,0,1,0,4.75a4.75,4.75,0,0,1,9.5,0A4.672,4.672,0,0,1,8.81,7.2a4.419,4.419,0,0,1-.95,1.12A4.593,4.593,0,0,1,4.75,9.5Zm0-8A3.237,3.237,0,0,0,2.31,2.61,3.276,3.276,0,0,0,1.5,4.75a3.169,3.169,0,0,0,.47,1.67A3.244,3.244,0,0,0,4.75,8a3.192,3.192,0,0,0,2.13-.81,2.879,2.879,0,0,0,.64-.76A3.148,3.148,0,0,0,8,4.75,3.256,3.256,0,0,0,4.75,1.5Z" transform="translate(684.25 394.25)" fill="#292d32"/>
      <path id="Vector-5" data-name="Vector" d="M2.858,3.607a.742.742,0,0,1-.53-.22L.218,1.277A.75.75,0,0,1,1.277.218l2.11,2.11a.754.754,0,0,1,0,1.06A.742.742,0,0,1,2.858,3.607Z" transform="translate(687.212 397.182)" fill="#292d32"/>
      <path id="Vector-6" data-name="Vector" d="M.747,3.608a.742.742,0,0,1-.53-.22.754.754,0,0,1,0-1.06L2.327.218a.75.75,0,0,1,1.06,1.06l-2.11,2.11A.742.742,0,0,1,.747,3.608Z" transform="translate(687.183 397.212)" fill="#292d32"/>
      <path id="Vector-7" data-name="Vector" d="M0,0H24V24H0Z" transform="translate(684 380)" fill="none" opacity="0"/>
    </g>
  </g>
</svg>
