<svg xmlns="http://www.w3.org/2000/svg" width="24" height="24" viewBox="0 0 24 24">
  <g id="vuesax_outline_wallet" data-name="vuesax/outline/wallet" transform="translate(-236 -444)">
    <g id="wallet">
      <path id="Vector" d="M15.75,16.5h-10A5.443,5.443,0,0,1,0,10.75v-5A5.4,5.4,0,0,1,4.85.07,6.441,6.441,0,0,1,5.75,0h10a5.691,5.691,0,0,1,.87.06A5.39,5.39,0,0,1,21.5,5.75v5A5.443,5.443,0,0,1,15.75,16.5Zm-10-15a5.364,5.364,0,0,0-.7.05A3.925,3.925,0,0,0,1.5,5.75v5A3.984,3.984,0,0,0,5.75,15h10A3.984,3.984,0,0,0,20,10.75v-5a3.927,3.927,0,0,0-3.59-4.21,3.826,3.826,0,0,0-.66-.04Z" transform="translate(237.25 450.25)" fill="#292d32"/>
      <path id="Vector-2" data-name="Vector" d="M.755,6.558a.753.753,0,0,1-.61-.31.735.735,0,0,1-.06-.78A3.592,3.592,0,0,1,.8,4.5l3.25-3.26a4.279,4.279,0,0,1,6.02,0l1.75,1.77a4.152,4.152,0,0,1,1.24,2.75.752.752,0,0,1-.25.6.744.744,0,0,1-.62.18,4.26,4.26,0,0,0-.63-.04h-10a5.364,5.364,0,0,0-.7.05A.375.375,0,0,1,.755,6.558ZM2.425,5h8.96a2.662,2.662,0,0,0-.62-.93L9,2.288a2.789,2.789,0,0,0-3.9,0Z" transform="translate(241.436 445.253)" fill="#292d32"/>
      <path id="Vector-3" data-name="Vector" d="M5.75,5.5h-3a2.75,2.75,0,0,1,0-5.5h3A.755.755,0,0,1,6.5.75a.755.755,0,0,1-.75.75h-3a1.25,1.25,0,0,0,0,2.5h3a.75.75,0,0,1,0,1.5Z" transform="translate(252.25 455.75)" fill="#292d32"/>
      <path id="Vector-4" data-name="Vector" d="M0,0H24V24H0Z" transform="translate(236 444)" fill="none" opacity="0"/>
    </g>
  </g>
</svg>
