<svg xmlns="http://www.w3.org/2000/svg" width="24" height="24" viewBox="0 0 24 24">
  <g id="vuesax_outline_warning-2" data-name="vuesax/outline/warning-2" transform="translate(-172 -700)">
    <g id="warning-2">
      <path id="Vector" d="M.75,6.75A.755.755,0,0,1,0,6V.75A.755.755,0,0,1,.75,0,.755.755,0,0,1,1.5.75V6A.755.755,0,0,1,.75,6.75Z" transform="translate(183.25 707)" fill="#292d32"/>
      <path id="Vector-2" data-name="Vector" d="M1,1.988A.99.99,0,0,1,.29,1.7a1.461,1.461,0,0,1-.22-.33A.986.986,0,0,1,0,.988,1.052,1.052,0,0,1,.29.278a1.047,1.047,0,0,1,1.42,0A1.052,1.052,0,0,1,2,.988a1,1,0,0,1-.08.38,1.155,1.155,0,0,1-.21.33A.99.99,0,0,1,1,1.988Z" transform="translate(183 715.262)" fill="#292d32"/>
      <path id="Vector-3" data-name="Vector" d="M9.84,21.5a3.878,3.878,0,0,1-1.95-.52l-5.94-3.43A3.926,3.926,0,0,1,0,14.175V7.335a3.926,3.926,0,0,1,1.95-3.38L7.89.525a3.884,3.884,0,0,1,3.9,0l5.94,3.43a3.926,3.926,0,0,1,1.95,3.38v6.84a3.926,3.926,0,0,1-1.95,3.38l-5.94,3.43A3.878,3.878,0,0,1,9.84,21.5Zm0-20a2.451,2.451,0,0,0-1.2.32L2.7,5.255a2.406,2.406,0,0,0-1.2,2.08v6.84a2.419,2.419,0,0,0,1.2,2.08l5.94,3.43a2.375,2.375,0,0,0,2.39,0l5.94-3.43a2.406,2.406,0,0,0,1.2-2.08V7.335a2.419,2.419,0,0,0-1.2-2.08l-5.94-3.43A2.386,2.386,0,0,0,9.84,1.5Z" transform="translate(174.16 701.245)" fill="#292d32"/>
      <path id="Vector-4" data-name="Vector" d="M0,0H24V24H0Z" transform="translate(172 700)" fill="none" opacity="0"/>
    </g>
  </g>
</svg>
