<svg xmlns="http://www.w3.org/2000/svg" width="24" height="24" viewBox="0 0 24 24">
  <g id="vuesax_outline_wifi" data-name="vuesax/outline/wifi" transform="translate(-428 -572)">
    <g id="wifi">
      <path id="Vector" d="M14.935,4a.736.736,0,0,1-.46-.16,10.6,10.6,0,0,0-13.27,0,.756.756,0,0,1-1.05-.13.756.756,0,0,1,.13-1.05,12.036,12.036,0,0,1,15.1,0,.738.738,0,0,1,.13,1.05A.693.693,0,0,1,14.935,4Z" transform="translate(432.155 580.588)" fill="#292d32"/>
      <path id="Vector-2" data-name="Vector" d="M20.745,5.022a.736.736,0,0,1-.46-.16,15.223,15.223,0,0,0-19.08,0,.756.756,0,0,1-1.05-.13.756.756,0,0,1,.13-1.05,16.7,16.7,0,0,1,20.92,0,.75.75,0,0,1-.46,1.34Z" transform="translate(429.255 576.088)" fill="#292d32"/>
      <path id="Vector-3" data-name="Vector" d="M11.165,3.335a.736.736,0,0,1-.46-.16,7.581,7.581,0,0,0-9.5,0,.756.756,0,0,1-1.05-.13A.756.756,0,0,1,.285,2a9.041,9.041,0,0,1,11.33,0,.738.738,0,0,1,.13,1.05A.72.72,0,0,1,11.165,3.335Z" transform="translate(434.045 584.905)" fill="#292d32"/>
      <path id="Vector-4" data-name="Vector" d="M5.955,2.42a.736.736,0,0,1-.46-.16,3.416,3.416,0,0,0-4.29,0,.756.756,0,0,1-1.05-.13.756.756,0,0,1,.13-1.05,4.875,4.875,0,0,1,6.12,0,.738.738,0,0,1,.13,1.05A.72.72,0,0,1,5.955,2.42Z" transform="translate(436.646 589.48)" fill="#292d32"/>
      <path id="Vector-5" data-name="Vector" d="M0,0H24V24H0Z" transform="translate(428 572)" fill="none" opacity="0"/>
    </g>
  </g>
</svg>
