<svg xmlns="http://www.w3.org/2000/svg" width="24" height="24" viewBox="0 0 24 24">
  <g id="vuesax_outline_wifi-square" data-name="vuesax/outline/wifi-square" transform="translate(-236 -572)">
    <g id="wifi-square">
      <path id="Vector" d="M12.745,3.613a.736.736,0,0,1-.46-.16,8.845,8.845,0,0,0-11.08,0,.756.756,0,0,1-1.05-.13.756.756,0,0,1,.13-1.05,10.318,10.318,0,0,1,12.92,0,.75.75,0,0,1-.46,1.34Z" transform="translate(241.255 579.097)" fill="#292d32"/>
      <path id="Vector-2" data-name="Vector" d="M9.555,3.05a.736.736,0,0,1-.46-.16,6.3,6.3,0,0,0-7.89,0,.756.756,0,0,1-1.05-.13.756.756,0,0,1,.13-1.05,7.761,7.761,0,0,1,9.72,0,.738.738,0,0,1,.13,1.05A.693.693,0,0,1,9.555,3.05Z" transform="translate(242.845 582.75)" fill="#292d32"/>
      <path id="Vector-3" data-name="Vector" d="M5.155,2.262a.736.736,0,0,1-.46-.16,2.783,2.783,0,0,0-3.49,0,.756.756,0,0,1-1.05-.13A.756.756,0,0,1,.285.923a4.3,4.3,0,0,1,5.32,0,.738.738,0,0,1,.13,1.05A.693.693,0,0,1,5.155,2.262Z" transform="translate(245.045 586.628)" fill="#292d32"/>
      <path id="Vector-4" data-name="Vector" d="M13.75,21.5h-6C2.32,21.5,0,19.18,0,13.75v-6C0,2.32,2.32,0,7.75,0h6c5.43,0,7.75,2.32,7.75,7.75v6C21.5,19.18,19.18,21.5,13.75,21.5Zm-6-20C3.14,1.5,1.5,3.14,1.5,7.75v6C1.5,18.36,3.14,20,7.75,20h6C18.36,20,20,18.36,20,13.75v-6c0-4.61-1.64-6.25-6.25-6.25Z" transform="translate(237.25 573.25)" fill="#292d32"/>
      <path id="Vector-5" data-name="Vector" d="M0,0H24V24H0Z" transform="translate(236 572)" fill="none" opacity="0"/>
    </g>
  </g>
</svg>
